<svg xmlns="http://www.w3.org/2000/svg" width="281" height="281" fill="none" viewBox="0 0 281 281">
  <g clip-path="url(#a)">
    <path fill="#324CB3" d="M222.44 218.979c18.862-18.862 18.862-49.444 0-68.306l-47.993-47.994c-18.863-18.862-49.445-18.862-68.307 0l-14.428 14.429 23.405 23.405 14.428-14.428c5.936-5.936 15.56-5.936 21.496 0l47.994 47.993c5.935 5.936 5.935 15.56 0 21.496l-47.994 47.993c-5.936 5.936-15.56 5.936-21.496 0l-47.993-47.993c-5.936-5.936-5.936-15.56 0-21.496l10.16-10.16-23.406-23.405-10.16 10.16c-18.862 18.862-18.862 49.444 0 68.306l47.994 47.993c18.862 18.863 49.444 18.863 68.306 0l47.994-47.993Z"/>
    <path fill="#1C2F7D" d="M106.14 178.347c18.862 18.862 49.444 18.862 68.306 0l14.429-14.429-23.405-23.405-14.429 14.429c-5.936 5.936-15.56 5.936-21.496 0l-47.947-47.947c-5.936-5.936-5.936-15.56 0-21.496l47.947-47.947c5.936-5.936 15.56-5.936 21.496 0l47.947 47.947c5.936 5.936 5.936 15.56 0 21.496l-10.113 10.113 23.405 23.405 10.113-10.113c18.862-18.862 18.862-49.444 0-68.306l-47.947-47.947c-18.862-18.863-49.444-18.863-68.306 0L58.193 62.094c-18.862 18.862-18.862 49.444 0 68.306l47.947 47.947Z"/>
  </g>
  <defs>
    <clipPath id="a">
      <path fill="#fff" d="M0 0h281v281H0z"/>
    </clipPath>
  </defs>
</svg>
