<svg xmlns="http://www.w3.org/2000/svg" width="801" height="281" fill="none" viewBox="0 0 801 281">
  <g clip-path="url(#a)">
    <path fill="#E8ECFD" d="M224.399 15.42h32.672l30.989 55.24 30.989-55.24h32.672v115.702h-32.672V69.145l-30.989 55.24-30.989-55.24v61.977h-32.672V15.42Zm228.994 115.702-5.894-15.494h-40.252l-5.894 15.494H364.47L408.931 15.42h36.884l44.461 115.702h-36.883ZM416.51 91.544h21.726l-10.779-28.125-10.947 28.125Zm86.499-76.124h32.673v45.64l38.904-45.64h38.567l-42.778 48.335 46.146 67.367h-39.072l-29.81-43.788-11.957 13.136v30.652h-32.673V15.42Z"/>
    <path fill="#E8ECFD" d="M674.216 133.143c-11.228 0-21.67-2.695-31.326-8.084-9.656-5.502-17.347-12.856-23.073-22.063-5.726-9.206-8.589-19.143-8.589-29.81 0-10.666 2.863-20.546 8.589-29.64 5.726-9.207 13.417-16.505 23.073-21.895 9.656-5.501 20.098-8.252 31.326-8.252 11.227 0 21.669 2.75 31.325 8.252 9.656 5.39 17.347 12.688 23.073 21.894 5.726 9.095 8.589 18.975 8.589 29.642 0 10.666-2.863 20.603-8.589 29.809-5.726 9.207-13.417 16.561-23.073 22.063-9.656 5.389-20.098 8.084-31.325 8.084Zm0-29.641c5.164 0 9.992-1.348 14.483-4.042 4.492-2.807 8.084-6.512 10.779-11.116 2.695-4.716 4.042-9.768 4.042-15.157 0-5.39-1.347-10.386-4.042-14.99-2.695-4.603-6.287-8.252-10.779-10.946-4.491-2.807-9.319-4.21-14.483-4.21-5.165 0-9.993 1.403-14.484 4.21-4.491 2.694-8.084 6.343-10.779 10.947-2.694 4.603-4.042 9.6-4.042 14.989 0 5.389 1.348 10.441 4.042 15.157 2.695 4.604 6.288 8.309 10.779 11.116 4.491 2.694 9.319 4.042 14.484 4.042Z"/>
    <path fill="#A4B1E8" fill-rule="evenodd" d="M393.418 266.42c-11.227 0-21.669-2.695-31.325-8.084-9.656-5.501-17.347-12.856-23.073-22.062-5.726-9.207-8.589-19.144-8.589-29.81s2.863-20.547 8.589-29.641c5.726-9.207 13.417-16.505 23.073-21.894 9.656-5.502 20.098-8.253 31.325-8.253 11.228 0 21.67 2.751 31.326 8.253 9.656 5.389 17.347 12.687 23.073 21.894 2.93 4.653 5.11 9.512 6.541 14.576h12.163c1.431-5.064 3.611-9.923 6.541-14.576 5.726-9.207 13.417-16.505 23.073-21.894 9.656-5.502 20.098-8.253 31.326-8.253 11.227 0 21.669 2.751 31.325 8.253 9.656 5.389 17.347 12.687 23.073 21.894 5.726 9.094 8.589 18.975 8.589 29.641 0 10.666-2.863 20.603-8.589 29.81-5.726 9.206-13.417 16.561-23.073 22.062-9.656 5.389-20.098 8.084-31.325 8.084-11.228 0-21.67-2.695-31.326-8.084-9.656-5.501-17.347-12.856-23.073-22.062-2.962-4.763-5.158-9.721-6.588-14.875h-12.069c-1.43 5.154-3.626 10.112-6.588 14.875-5.726 9.206-13.417 16.561-23.073 22.062-9.656 5.389-20.098 8.084-31.326 8.084Zm0-29.641c5.165 0 9.993-1.347 14.484-4.042 4.491-2.807 8.084-6.512 10.779-11.116 2.694-4.715 4.042-9.768 4.042-15.157 0-5.389-1.348-10.386-4.042-14.989-2.695-4.603-6.288-8.252-10.779-10.947-4.491-2.807-9.319-4.21-14.484-4.21-5.164 0-9.992 1.403-14.483 4.21-4.491 2.695-8.084 6.344-10.779 10.947-2.695 4.603-4.042 9.6-4.042 14.989 0 5.389 1.347 10.442 4.042 15.157 2.695 4.604 6.288 8.309 10.779 11.116 4.491 2.695 9.319 4.042 14.483 4.042Zm148.526-4.042c-4.491 2.695-9.319 4.042-14.483 4.042-5.165 0-9.993-1.347-14.484-4.042-4.491-2.807-8.084-6.512-10.779-11.116-2.695-4.715-4.042-9.768-4.042-15.157 0-5.389 1.347-10.386 4.042-14.989 2.695-4.603 6.288-8.252 10.779-10.947 4.491-2.807 9.319-4.21 14.484-4.21 5.164 0 9.992 1.403 14.483 4.21 4.491 2.695 8.084 6.344 10.779 10.947 2.695 4.603 4.042 9.6 4.042 14.989 0 5.389-1.347 10.442-4.042 15.157-2.695 4.604-6.288 8.309-10.779 11.116Z" clip-rule="evenodd"/>
    <path fill="#A4B1E8" d="M258.686 177.833h-34.189v-29.136h101.05v29.136h-34.189v86.566h-32.672v-86.566Zm379.575 57.43h53.893v29.136h-86.566V148.697h32.673v86.566Zm84.816 26.273c9.544 3.256 19.592 4.884 30.147 4.884 14.596 0 26.16-3.424 34.693-10.273 8.646-6.849 12.968-16.337 12.968-28.463 0-7.073-1.74-12.855-5.221-17.346-3.368-4.492-8.196-8.028-14.483-10.611-6.176-2.582-14.203-4.94-24.084-7.073-5.838-1.235-10.161-2.302-12.968-3.2-2.807-1.011-4.772-2.077-5.894-3.2-1.123-1.235-1.685-2.863-1.685-4.884 0-2.246 1.011-4.042 3.032-5.389 2.021-1.46 4.94-2.19 8.758-2.19 5.277 0 10.778 1.011 16.504 3.032 5.726 1.908 11.228 4.772 16.505 8.589l16.336-23.073c-13.024-10.442-29.192-15.663-48.503-15.663-9.095 0-17.123 1.572-24.084 4.716-6.849 3.144-12.182 7.579-15.999 13.305-3.706 5.726-5.558 12.406-5.558 20.041s1.852 13.81 5.558 18.526c3.705 4.603 8.645 8.196 14.82 10.779 6.175 2.47 14.203 4.828 24.084 7.073 6.287 1.46 10.666 2.583 13.136 3.369 2.47.673 4.211 1.515 5.221 2.526 1.123 1.01 1.684 2.414 1.684 4.21 0 2.583-1.179 4.604-3.537 6.063-2.357 1.347-5.726 2.021-10.104 2.021-13.474 0-26.217-4.716-38.231-14.147l-18.189 21.726c7.186 6.4 15.551 11.284 25.094 14.652ZM178.44 218.979c18.862-18.862 18.862-49.444 0-68.306l-47.993-47.994c-18.863-18.862-49.445-18.862-68.307 0l-14.428 14.429 23.405 23.405 14.428-14.428c5.936-5.936 15.56-5.936 21.496 0l47.994 47.993c5.935 5.936 5.935 15.56 0 21.496l-47.994 47.993c-5.936 5.936-15.56 5.936-21.496 0l-47.993-47.993c-5.936-5.936-5.936-15.56 0-21.496l10.16-10.16-23.406-23.405-10.16 10.16c-18.862 18.862-18.862 49.444 0 68.306l47.994 47.993c18.862 18.863 49.444 18.863 68.306 0l47.994-47.993Z"/>
    <path fill="#E8ECFD" d="M62.14 178.347c18.862 18.862 49.444 18.862 68.306 0l14.429-14.429-23.405-23.405-14.429 14.429c-5.936 5.936-15.56 5.936-21.496 0l-47.947-47.947c-5.936-5.936-5.936-15.56 0-21.496l47.947-47.947c5.936-5.936 15.56-5.936 21.496 0l47.947 47.947c5.936 5.936 5.936 15.56 0 21.496l-10.113 10.113 23.405 23.405 10.113-10.113c18.862-18.862 18.862-49.444 0-68.306l-47.947-47.947c-18.862-18.863-49.444-18.863-68.306 0L14.193 62.094c-18.862 18.862-18.862 49.444 0 68.306l47.947 47.947Z"/>
  </g>
  <defs>
    <clipPath id="a">
      <path fill="#fff" d="M0 0h801v281H0z"/>
    </clipPath>
  </defs>
</svg>
