<svg xmlns="http://www.w3.org/2000/svg" width="1753" height="281" fill="none" viewBox="0 0 1753 281">
  <path class="primaryText" fill="#E8ECFD" d="M0 51.406h51.772l49.103 87.535 49.103-87.535h51.772v183.343h-51.772v-98.21l-49.103 87.535-49.103-87.535v98.21H0V51.406Zm362.855 183.343-9.34-24.553h-63.781l-9.34 24.553h-58.443l70.452-183.343h58.443l70.453 183.343h-58.444Zm-58.443-62.716h34.425l-17.079-44.568-17.346 44.568ZM441.474 51.406h51.772v72.323l61.646-72.323h61.112l-67.784 76.593 73.121 106.75h-61.912l-47.235-69.388-18.948 20.817v48.571h-51.772V51.406Z"/>
  <path class="primaryText" fill="#E8ECFD" d="M712.761 237.951c-17.791 0-34.336-4.27-49.637-12.81-15.3-8.718-27.487-20.371-36.56-34.96-9.073-14.589-13.61-30.335-13.61-47.237s4.537-32.559 13.61-46.97c9.073-14.59 21.26-26.154 36.56-34.694 15.301-8.718 31.846-13.077 49.637-13.077s34.337 4.36 49.637 13.077c15.301 8.54 27.487 20.105 36.561 34.694 9.073 14.411 13.61 30.068 13.61 46.97 0 16.902-4.537 32.648-13.61 47.237-9.074 14.589-21.26 26.242-36.561 34.96-15.3 8.54-31.846 12.81-49.637 12.81Zm0-46.97c8.184 0 15.834-2.135 22.951-6.405 7.116-4.448 12.809-10.319 17.079-17.613 4.27-7.473 6.405-15.479 6.405-24.019s-2.135-16.457-6.405-23.752c-4.27-7.295-9.963-13.077-17.079-17.347-7.117-4.448-14.767-6.672-22.951-6.672-8.183 0-15.834 2.224-22.95 6.672-7.116 4.27-12.81 10.052-17.079 17.347-4.27 7.295-6.405 15.212-6.405 23.752s2.135 16.546 6.405 24.019c4.269 7.294 9.963 13.165 17.079 17.613 7.116 4.27 14.767 6.405 22.95 6.405Z"/>
  <path class="secondaryText" fill="#A4B1E8" fill-rule="evenodd" d="M1083.02 237.953c-17.79 0-34.34-4.27-49.64-12.81-15.3-8.718-27.48-20.371-36.557-34.96-9.074-14.59-13.61-30.335-13.61-47.237s4.536-32.559 13.61-46.97c9.077-14.59 21.257-26.154 36.557-34.694 15.3-8.718 31.85-13.077 49.64-13.077s34.34 4.359 49.64 13.077c15.3 8.54 27.48 20.105 36.56 34.694 4.64 7.373 8.09 15.072 10.36 23.098h19.28c2.26-8.026 5.72-15.725 10.36-23.098 9.07-14.59 21.26-26.154 36.56-34.694 15.3-8.718 31.85-13.077 49.64-13.077s34.33 4.359 49.63 13.077c15.3 8.54 27.49 20.105 36.57 34.694 9.07 14.411 13.61 30.068 13.61 46.97 0 16.902-4.54 32.647-13.61 47.237-9.08 14.589-21.27 26.242-36.57 34.96-15.3 8.54-31.84 12.81-49.63 12.81-17.79 0-34.34-4.27-49.64-12.81-15.3-8.718-27.49-20.371-36.56-34.96-4.69-7.548-8.17-15.404-10.44-23.571h-19.12c-2.27 8.167-5.75 16.023-10.44 23.571-9.08 14.589-21.26 26.242-36.56 34.96-15.3 8.54-31.85 12.81-49.64 12.81Zm0-46.97c8.18 0 15.83-2.135 22.95-6.405 7.12-4.448 12.81-10.319 17.08-17.613 4.27-7.473 6.4-15.479 6.4-24.019s-2.13-16.458-6.4-23.752c-4.27-7.295-9.96-13.077-17.08-17.347-7.12-4.448-14.77-6.672-22.95-6.672s-15.83 2.224-22.95 6.672c-7.12 4.27-12.81 10.052-17.08 17.347-4.27 7.294-6.4 15.212-6.4 23.752s2.13 16.546 6.4 24.019c4.27 7.294 9.96 13.165 17.08 17.613 7.12 4.27 14.77 6.405 22.95 6.405Zm235.35-6.405c-7.12 4.27-14.77 6.405-22.95 6.405-8.19 0-15.84-2.135-22.95-6.405-7.12-4.448-12.81-10.319-17.08-17.613-4.27-7.473-6.41-15.479-6.41-24.019s2.14-16.458 6.41-23.752c4.27-7.295 9.96-13.077 17.08-17.347 7.11-4.448 14.76-6.672 22.95-6.672 8.18 0 15.83 2.224 22.95 6.672 7.11 4.27 12.81 10.052 17.08 17.347 4.27 7.294 6.4 15.212 6.4 23.752s-2.13 16.546-6.4 24.019c-4.27 7.294-9.97 13.165-17.08 17.613Z" clip-rule="evenodd"/>
  <path class="secondaryText" fill="#A4B1E8" d="M869.528 97.577h-54.174v-46.17h160.12v46.17H921.3v137.174h-51.772V97.577Zm601.462 91.004h85.39v46.17h-137.16V51.408h51.77V188.58Zm134.39 41.633c15.13 5.16 31.05 7.739 47.77 7.739 23.13 0 41.46-5.426 54.98-16.279 13.7-10.853 20.55-25.887 20.55-45.102 0-11.209-2.76-20.371-8.28-27.488-5.33-7.117-12.98-12.721-22.95-16.813-9.78-4.092-22.5-7.829-38.16-11.209-9.25-1.957-16.1-3.647-20.55-5.071-4.45-1.601-7.56-3.291-9.34-5.07-1.78-1.957-2.67-4.537-2.67-7.74 0-3.558 1.6-6.405 4.81-8.54 3.2-2.313 7.82-3.469 13.87-3.469 8.37 0 17.08 1.601 26.16 4.804 9.07 3.024 17.79 7.561 26.15 13.61l25.88-36.561c-20.63-16.547-46.25-24.82-76.85-24.82-14.41 0-27.13 2.49-38.16 7.473-10.86 4.981-19.31 12.009-25.36 21.083-5.87 9.074-8.8 19.66-8.8 31.758 0 12.098 2.93 21.884 8.8 29.356 5.87 7.295 13.7 12.988 23.49 17.08 9.78 3.914 22.5 7.651 38.16 11.209 9.96 2.313 16.9 4.092 20.82 5.337 3.91 1.068 6.67 2.402 8.27 4.004 1.78 1.601 2.67 3.825 2.67 6.671 0 4.092-1.87 7.295-5.61 9.608-3.73 2.135-9.07 3.202-16.01 3.202-21.35 0-41.54-7.472-60.58-22.417l-28.82 34.427c11.39 10.141 24.64 17.88 39.76 23.218Z"/>
</svg>
