<svg xmlns="http://www.w3.org/2000/svg" width="5266" height="5266" fill="none" viewBox="0 0 5266 5266">
  <g clip-path="url(#a)">
    <path stroke="currentColor"  d="m135.495 5417.98 54.46-54.46 7.848 128.66M5500.61 237.411c-12.37 5.074-24.42 6.976-36.15 5.707-11.89-1.426-23.23-7.53-34.01-18.311-10.78-10.781-17.6-22.83-20.45-36.148-2.7-13.476-1.43-27.27 3.81-41.38 5.39-14.269 14.5-27.824 27.34-40.666m37.1 39.477c-5.39 5.39-8.48 10.543-9.27 15.457-.95 4.757.16 8.721 3.33 11.892 2.85 2.854 5.94 4.36 9.27 4.518 3.17 0 7.45-1.268 12.84-3.805M3882.94 5336.17l46.14-46.13 64.45 64.44-9.52-119.38 54.46-54.46 7.85 128.66 160.29 29.96-55.17 55.18-103.93-19.74 1.67 35.43 43.28 43.28m1312.88-1639.64 46.14-46.13M1376.91 5477.87c-4.91-21.08-4.36-42.25 1.67-63.49 5.86-21.41 16.72-40.03 32.58-55.89 15.85-15.85 34.48-26.71 55.88-32.58 21.25-6.02 42.41-6.58 63.5-1.66 20.93 4.75 38.92 14.66 53.98 29.72 15.06 15.06 25.05 33.14 29.97 54.22 4.91 21.09 4.44 42.34-1.43 63.74m-74.67 13.79c7.29-7.29 12.2-16.01 14.74-26.16 2.38-10.3 2.22-20.61-.47-30.91-2.86-10.47-8.09-19.5-15.7-27.11-7.61-7.61-16.57-12.77-26.87-15.46-10.31-2.7-20.53-2.78-30.68-.24-10.31 2.38-19.11 7.21-26.4 14.51-7.29 7.29-12.13 16.09-14.51 26.39-2.53 10.15-2.45 20.38.24 30.68 2.7 10.31 7.85 19.26 15.46 26.87m4038.06-3953.86c-21.09-4.92-39.16-14.91-54.23-29.97-15.06-15.06-24.97-33.05-29.72-53.98-4.92-21.09-4.36-42.25 1.66-63.5 5.87-21.4 16.73-40.03 32.58-55.88 15.86-15.86 34.48-26.72 55.89-32.59m-14.03 74.44c-7.3 7.29-12.13 16.09-14.51 26.4-2.54 10.15-2.46 20.37.24 30.68 2.69 10.3 7.85 19.26 15.46 26.87m-497.72 4017.82c5.86-21.41 16.72-40.03 32.58-55.89 15.85-15.85 34.48-26.71 55.88-32.58 21.25-6.02 42.41-6.58 63.5-1.66 20.93 4.75 38.92 14.66 53.98 29.72 15.07 15.06 25.05 33.14 29.97 54.22m-61.83 20.46c-2.86-10.47-8.09-19.5-15.7-27.11-7.61-7.61-16.57-12.77-26.87-15.46-10.31-2.7-20.53-2.78-30.68-.24-10.3 2.38-19.1 7.21-26.4 14.51-7.29 7.29-12.13 16.09-14.5 26.39m374.98-464.87 46.14-46.14m-2875.8 432.03 41.14 41.14-48.27 48.28m2887.14-2692.14-4.99-56.36m-4.76-26.63c-12.36 5.07-24.41 6.97-36.14 5.7-11.9-1.42-23.23-7.53-34.01-18.31-10.78-10.78-17.6-22.83-20.45-36.15-2.7-13.47-1.43-27.27 3.8-41.38 5.39-14.26 14.51-27.82 27.35-40.66 27.27-27.27 57.47-42.73 90.61-46.38m-25.92 66.83c-10.94 5.23-20.14 11.57-27.59 19.03-5.39 5.39-8.48 10.54-9.28 15.45-.95 4.76.16 8.72 3.33 11.89 2.86 2.86 5.95 4.36 9.28 4.52 3.17 0 7.45-1.27 12.84-3.8 5.23-2.7 12.84-7.3 22.83-13.8M694.862 5469.55l46.136-46.13 64.448 64.44-9.513-119.38 54.459-54.46 7.848 128.66 160.29 29.96M5499.11 912.63c-21.08-4.915-39.16-14.903-54.22-29.965-15.06-15.061-24.97-33.056-29.73-53.984-4.91-21.086-4.36-42.251 1.67-63.496 5.86-21.403 16.72-40.032 32.58-55.886m41.85 41.855c-7.29 7.293-12.13 16.092-14.5 26.398-2.54 10.147-2.46 20.372.23 30.678 2.7 10.305 7.85 19.262 15.46 26.872M4360.6 5469.46l52.08-52.08m1088.55-925.41c-15.06-15.06-24.97-33.06-29.73-53.99-4.91-21.08-4.36-42.25 1.67-63.49M1994.71 5471.02c-4.92-21.09-4.36-42.25 1.66-63.5 5.87-21.4 16.73-40.03 32.58-55.89 15.86-15.85 34.49-26.71 55.89-32.58 21.24-6.02 42.41-6.58 63.5-1.66 20.92 4.76 38.92 14.66 53.98 29.73 15.06 15.06 25.05 33.13 29.96 54.22 4.92 21.08 4.44 42.33-1.42 63.73m3269.72-3442.85-7.85-128.65-54.46 54.46 9.51 119.38-64.45-64.45-46.13 46.14 163.38 163.38m-2366.19 3255.6c27.27-27.27 57.47-42.73 90.61-46.38l9.51 55.65c-12.84 2.06-24.65 5.79-35.43 11.18m2277.86-2357.3-46.13 46.14 34.24 121.76-121.76-34.25-46.13 46.14 163.37 163.38M492.353 5393.59c-15.855 15.85-34.404 26.79-55.649 32.81-21.403 5.87-42.648 6.35-63.734 1.43-21.086-4.91-39.16-14.9-54.222-29.96-15.061-15.07-24.97-33.06-29.727-53.99-4.914-21.08-4.36-42.25 1.665-63.49 5.866-21.41 16.726-40.04 32.581-55.89 15.854-15.85 34.482-26.71 55.886-32.58 21.244-6.02 42.41-6.58 63.496-1.67 20.928 4.76 38.923 14.67 53.984 29.73 15.062 15.06 25.05 33.14 29.965 54.22 4.915 21.09 4.439 42.33-1.427 63.74-6.025 21.24-16.964 39.79-32.818 55.65Zm-41.856-41.86c7.293-7.29 12.208-16.01 14.745-26.16 2.378-10.3 2.219-20.61-.476-30.91-2.854-10.47-8.086-19.51-15.696-27.12-7.61-7.61-16.568-12.76-26.873-15.45-10.305-2.7-20.531-2.78-30.678-.24-10.305 2.38-19.104 7.21-26.397 14.51-7.293 7.29-12.129 16.09-14.507 26.39-2.537 10.15-2.457 20.38.238 30.68 2.695 10.31 7.848 19.26 15.458 26.87 7.61 7.61 16.647 12.85 27.111 15.7 10.305 2.69 20.61 2.85 30.915.48 10.147-2.54 18.867-7.46 26.16-14.75Zm110.881-277.35-48.276 48.28-41.142-41.15 142.688-142.68 41.142 41.14-48.276 48.27 122.236 122.24-46.136 46.14-122.236-122.24Zm365.282-115.1c-15.854 15.85-34.404 26.79-55.648 32.82-21.404 5.86-42.648 6.34-63.734 1.42-21.087-4.91-39.16-14.9-54.222-29.96-15.062-15.06-24.97-33.06-29.727-53.99-4.915-21.08-4.36-42.25 1.665-63.49 5.866-21.4 16.726-40.03 32.58-55.89 15.855-15.85 34.484-26.71 55.887-32.58 21.245-6.02 42.41-6.58 63.496-1.66 20.928 4.75 38.922 14.66 53.984 29.72 15.062 15.07 25.05 33.14 29.965 54.23 4.914 21.08 4.439 42.33-1.427 63.73-6.025 21.24-16.964 39.79-32.819 55.65Zm-41.855-41.86c7.293-7.29 12.208-16.01 14.744-26.16 2.379-10.3 2.22-20.61-.475-30.91-2.854-10.47-8.086-19.5-15.696-27.11-7.61-7.61-16.567-12.77-26.873-15.46-10.305-2.7-20.531-2.78-30.678-.24-10.305 2.38-19.104 7.21-26.397 14.51-7.293 7.29-12.129 16.09-14.507 26.39-2.536 10.15-2.457 20.38.238 30.68 2.695 10.31 7.848 19.27 15.458 26.88 7.61 7.61 16.647 12.84 27.111 15.69 10.305 2.7 20.61 2.86 30.916.48 10.146-2.54 18.866-7.45 26.159-14.75Zm281.075-197.36c-15.86 15.86-34.41 26.79-55.65 32.82-21.4 5.87-42.65 6.34-63.74 1.43-21.08-4.92-39.16-14.91-54.217-29.97-15.062-15.06-24.971-33.05-29.727-53.98-4.915-21.09-4.36-42.25 1.665-63.5 5.866-21.4 16.726-40.03 32.58-55.88 15.859-15.86 34.479-26.72 55.889-32.59 21.24-6.02 42.41-6.57 63.49-1.66 20.93 4.76 38.93 14.67 53.99 29.73 15.06 15.06 25.05 33.13 29.96 54.22 4.92 21.08 4.44 42.33-1.42 63.73-6.03 21.25-16.97 39.8-32.82 55.65Zm-41.86-41.85c7.29-7.3 12.21-16.02 14.75-26.16 2.37-10.31 2.22-20.61-.48-30.92-2.85-10.46-8.09-19.5-15.7-27.11-7.61-7.61-16.56-12.76-26.87-15.46-10.3-2.69-20.53-2.77-30.68-.24-10.3 2.38-19.1 7.22-26.39 14.51-7.3 7.29-12.13 16.09-14.51 26.4-2.54 10.14-2.46 20.37.24 30.68 2.69 10.3 7.85 19.26 15.46 26.87 7.61 7.61 16.64 12.84 27.11 15.69 10.3 2.7 20.61 2.86 30.91.48 10.15-2.54 18.87-7.45 26.16-14.74Zm204.26-208.54 76.1-76.1 41.14 41.14-122.23 122.23-163.38-163.37 46.13-46.14 122.24 122.24Zm256.27-168.28c-14.9 14.9-31.39 26.79-49.46 35.67-18.24 8.72-36.94 13.63-56.13 14.74l-4.99-56.36c30.28-3.64 54.93-14.98 73.96-34.01 6.18-6.18 9.99-11.89 11.41-17.12 1.27-5.39.08-9.91-3.56-13.55-2.54-2.54-5.32-3.73-8.33-3.57-2.85 0-6.5 1.27-10.94 3.8-4.6 2.38-12.36 6.98-23.3 13.8-17.13 10.78-31.79 18.78-44 24.02-12.37 5.07-24.41 6.97-36.15 5.7-11.89-1.42-23.22-7.53-34-18.31-10.78-10.78-17.6-22.83-20.46-36.15-2.69-13.47-1.42-27.26 3.81-41.37 5.39-14.27 14.51-27.83 27.35-40.67 27.27-27.27 57.47-42.73 90.6-46.37l9.52 55.64c-12.84 2.06-24.66 5.79-35.44 11.18-10.94 5.23-20.13 11.57-27.58 19.03-5.39 5.39-8.49 10.54-9.28 15.45-.95 4.76.16 8.72 3.33 11.89 2.85 2.86 5.95 4.36 9.28 4.52 3.17 0 7.45-1.27 12.84-3.8 5.23-2.7 12.84-7.29 22.83-13.8 16.96-10.93 31.63-18.94 43.99-24.01 12.53-5.24 24.34-7.06 35.44-5.47 11.25 1.42 21.88 7.13 31.87 17.12 17.12 17.12 24.41 36.62 21.87 58.5-2.37 21.72-13.87 42.89-34.48 63.5Zm-27.72-304.74 46.13-46.14 121.76 34.25-34.24-121.76 46.13-46.14 163.38 163.38-46.13 46.14-87.52-87.52 34.24 121.76-121.76-34.24 87.52 87.51-46.14 46.14-163.37-163.38Zm536.67-209.92-30.2-13.55-56.84 56.83 13.55 30.21-52.08 52.08-100.59-226.16 52.08-52.09 226.16 100.6-52.08 52.08Zm-107.97-3.8 30.68-30.68-54.94-24.5 24.26 55.18Zm64.59-279.58 46.14-46.13 64.45 64.44-9.52-119.38 54.46-54.46 7.85 128.66 160.29 29.96-55.18 55.18-103.92-19.74 1.66 35.43 43.29 43.28-46.14 46.14-163.38-163.38Zm457.93-125.46c-15.85 15.85-34.4 26.79-55.65 32.82-21.4 5.86-42.65 6.34-63.73 1.42-21.09-4.91-39.16-14.9-54.22-29.96-15.07-15.06-24.97-33.06-29.73-53.98-4.92-21.09-4.36-42.26 1.66-63.5 5.87-21.4 16.73-40.03 32.58-55.89 15.86-15.85 34.49-26.71 55.89-32.58 21.25-6.02 42.41-6.58 63.5-1.66 20.92 4.75 38.92 14.66 53.98 29.72 15.06 15.07 25.05 33.14 29.97 54.23 4.91 21.08 4.43 42.33-1.43 63.73-6.03 21.24-16.97 39.79-32.82 55.65Zm-41.86-41.86c7.3-7.29 12.21-16.01 14.75-26.16 2.38-10.3 2.22-20.61-.48-30.91-2.85-10.47-8.08-19.5-15.69-27.11-7.61-7.61-16.57-12.77-26.87-15.46-10.31-2.7-20.54-2.78-30.68-.24-10.31 2.38-19.11 7.21-26.4 14.51-7.29 7.29-12.13 16.09-14.51 26.39-2.53 10.15-2.45 20.38.24 30.68 2.7 10.31 7.85 19.27 15.46 26.88 7.61 7.61 16.65 12.84 27.11 15.69 10.3 2.7 20.61 2.86 30.92.48 10.14-2.54 18.86-7.45 26.15-14.75Zm110.89-277.35-48.28 48.28-41.14-41.14 142.69-142.69 41.14 41.14-48.28 48.28 122.24 122.23-46.14 46.14-122.23-122.24Zm365.28-115.1c-15.86 15.85-34.41 26.79-55.65 32.82-21.4 5.86-42.65 6.34-63.73 1.43-21.09-4.92-39.16-14.91-54.23-29.97-15.06-15.06-24.97-33.06-29.72-53.98-4.92-21.09-4.36-42.25 1.66-63.5 5.87-21.4 16.73-40.03 32.58-55.89 15.86-15.85 34.49-26.71 55.89-32.58 21.24-6.02 42.41-6.58 63.5-1.66 20.92 4.76 38.92 14.66 53.98 29.73 15.06 15.06 25.05 33.13 29.96 54.22 4.92 21.08 4.44 42.33-1.42 63.73-6.03 21.25-16.97 39.8-32.82 55.65Zm-41.86-41.86c7.3-7.29 12.21-16.01 14.75-26.15 2.38-10.31 2.22-20.62-.48-30.92-2.85-10.46-8.08-19.5-15.69-27.11-7.61-7.61-16.57-12.76-26.88-15.46-10.3-2.69-20.53-2.77-30.67-.24-10.31 2.38-19.11 7.22-26.4 14.51-7.3 7.29-12.13 16.09-14.51 26.4-2.54 10.14-2.46 20.37.24 30.67 2.69 10.31 7.85 19.27 15.46 26.88 7.61 7.61 16.64 12.84 27.11 15.69 10.3 2.7 20.61 2.86 30.91.48 10.15-2.54 18.87-7.45 26.16-14.75Zm281.08-197.36c-15.86 15.86-34.41 26.8-55.65 32.82-21.41 5.87-42.65 6.34-63.74 1.43-21.08-4.92-39.16-14.9-54.22-29.97-15.06-15.06-24.97-33.05-29.73-53.98-4.91-21.09-4.36-42.25 1.67-63.5 5.86-21.4 16.73-40.03 32.58-55.88 15.85-15.86 34.48-26.72 55.89-32.58 21.24-6.03 42.41-6.58 63.49-1.67 20.93 4.76 38.92 14.67 53.99 29.73 15.06 15.06 25.05 33.13 29.96 54.22 4.92 21.09 4.44 42.33-1.43 63.73-6.02 21.25-16.96 39.8-32.81 55.65Zm-41.86-41.85c7.29-7.3 12.21-16.01 14.74-26.16 2.38-10.31 2.22-20.61-.47-30.92-2.85-10.46-8.09-19.5-15.7-27.11-7.61-7.61-16.56-12.76-26.87-15.46-10.3-2.69-20.53-2.77-30.68-.23-10.3 2.37-19.1 7.21-26.4 14.5-7.29 7.3-12.12 16.09-14.5 26.4-2.54 10.15-2.46 20.37.24 30.68 2.69 10.3 7.84 19.26 15.45 26.87 7.61 7.61 16.65 12.84 27.11 15.7 10.31 2.69 20.62 2.85 30.92.47 10.15-2.53 18.87-7.45 26.16-14.74Zm204.26-208.54 76.1-76.1 41.14 41.14-122.24 122.24-163.37-163.38 46.13-46.14 122.24 122.24Zm256.27-168.28c-14.9 14.9-31.39 26.79-49.47 35.67-18.23 8.72-36.94 13.64-56.12 14.75l-5-56.37c30.29-3.64 54.94-14.98 73.96-34 6.19-6.19 9.99-11.89 11.42-17.13 1.27-5.39.08-9.9-3.57-13.55-2.53-2.54-5.31-3.73-8.32-3.57-2.85 0-6.5 1.27-10.94 3.81-4.6 2.37-12.37 6.97-23.31 13.79-17.12 10.78-31.78 18.79-43.99 24.02-12.37 5.07-24.42 6.98-36.15 5.71-11.89-1.43-23.23-7.53-34.01-18.31-10.78-10.79-17.59-22.84-20.45-36.15-2.69-13.48-1.43-27.27 3.81-41.38 5.39-14.27 14.5-27.83 27.35-40.67 27.26-27.27 57.47-42.73 90.6-46.37l9.51 55.65c-12.84 2.06-24.65 5.78-35.43 11.17-10.94 5.24-20.13 11.58-27.59 19.03-5.39 5.39-8.48 10.54-9.27 15.46-.95 4.75.16 8.72 3.33 11.89 2.85 2.85 5.94 4.36 9.27 4.52 3.17 0 7.45-1.27 12.85-3.81 5.23-2.69 12.84-7.29 22.83-13.79 16.96-10.94 31.63-18.95 43.99-24.02 12.53-5.23 24.34-7.06 35.44-5.47 11.25 1.43 21.87 7.13 31.86 17.12 17.13 17.12 24.42 36.62 21.88 58.5-2.38 21.72-13.87 42.89-34.48 63.5Zm-27.73-304.74 46.14-46.13 121.76 34.24-34.25-121.76 46.14-46.14 163.38 163.38-46.14 46.14-87.51-87.52 34.24 121.76-121.76-34.24 87.52 87.51-46.14 46.14-163.38-163.38Zm536.68-209.92-30.21-13.55-56.83 56.84 13.55 30.2-52.08 52.08-100.59-226.16 52.08-52.08 226.16 100.59-52.08 52.08Zm-107.97-3.8 30.68-30.68-54.94-24.49 24.26 55.17Zm64.59-279.58 46.14-46.13 64.44 64.45-9.51-119.39 54.46-54.46 7.85 128.66 160.29 29.97-55.18 55.17-103.92-19.74 1.66 35.43 43.28 43.29-46.13 46.13-163.38-163.38Zm457.93-125.46c-15.86 15.85-34.41 26.79-55.65 32.82-21.4 5.86-42.65 6.34-63.73 1.42-21.09-4.91-39.16-14.9-54.23-29.96-15.06-15.06-24.97-33.06-29.72-53.98-4.92-21.09-4.36-42.25 1.66-63.5 5.87-21.4 16.73-40.03 32.58-55.89 15.86-15.85 34.49-26.71 55.89-32.58 21.24-6.02 42.41-6.58 63.5-1.66 20.92 4.75 38.92 14.66 53.98 29.73 15.06 15.06 25.05 33.13 29.96 54.22 4.92 21.08 4.44 42.33-1.42 63.73-6.03 21.25-16.97 39.8-32.82 55.65Zm-41.86-41.86c7.3-7.29 12.21-16.01 14.75-26.15 2.38-10.31 2.22-20.62-.48-30.92-2.85-10.46-8.08-19.5-15.69-27.11-7.61-7.61-16.57-12.76-26.88-15.46-10.3-2.69-20.53-2.77-30.67-.24-10.31 2.38-19.11 7.22-26.4 14.51-7.3 7.29-12.13 16.09-14.51 26.4-2.54 10.14-2.46 20.37.24 30.68 2.69 10.3 7.85 19.26 15.46 26.87 7.61 7.61 16.64 12.84 27.11 15.69 10.3 2.7 20.61 2.86 30.91.48 10.15-2.54 18.87-7.45 26.16-14.75Zm110.88-277.35-48.27 48.28-41.14-41.14 142.68-142.69 41.15 41.142-48.28 48.277 122.24 122.241-46.14 46.13-122.24-122.24Zm365.29-115.098c-15.86 15.855-34.41 26.794-55.65 32.819-21.41 5.866-42.65 6.341-63.74 1.426-21.08-4.915-39.16-14.903-54.22-29.964-15.06-15.062-24.97-33.057-29.72-53.984-4.92-21.086-4.37-42.251 1.66-63.496 5.87-21.403 16.73-40.032 32.58-55.887 15.85-15.854 34.48-26.714 55.89-32.58 21.24-6.025 42.41-6.58 63.49-1.665 20.93 4.756 38.93 14.665 53.99 29.727 15.06 15.061 25.05 33.135 29.96 54.221 4.92 21.086 4.44 42.331-1.43 63.735-6.02 21.244-16.96 39.794-32.81 55.648Zm-41.86-41.855c7.29-7.293 12.21-16.013 14.75-26.16 2.37-10.305 2.22-20.61-.48-30.916-2.85-10.463-8.09-19.5-15.7-27.11-7.61-7.61-16.56-12.763-26.87-15.458-10.3-2.696-20.53-2.775-30.68-.238-10.3 2.378-19.1 7.214-26.39 14.507-7.3 7.293-12.13 16.092-14.51 26.397-2.54 10.147-2.46 20.373.24 30.678 2.69 10.306 7.84 19.263 15.45 26.873 7.61 7.61 16.65 12.842 27.12 15.696 10.3 2.695 20.61 2.854 30.91.476 10.15-2.537 18.87-7.452 26.16-14.745Zm281.07-197.362c-15.85 15.855-34.4 26.794-55.65 32.819-21.4 5.866-42.64 6.341-63.73 1.426-21.09-4.915-39.16-14.903-54.22-29.964-15.06-15.062-24.97-33.056-29.73-53.984-4.91-21.086-4.36-42.251 1.67-63.496 5.86-21.403 16.72-40.032 32.58-55.886 15.85-15.855 34.48-26.715 55.88-32.581 21.25-6.025 42.41-6.58 63.5-1.665 20.93 4.756 38.92 14.665 53.98 29.727 15.07 15.061 25.05 33.135 29.97 54.221 4.91 21.087 4.44 42.332-1.43 63.735-6.02 21.245-16.96 39.794-32.82 55.648Zm-41.85-41.855c7.29-7.293 12.21-16.013 14.74-26.16 2.38-10.305 2.22-20.61-.47-30.915-2.86-10.464-8.09-19.501-15.7-27.111-7.61-7.61-16.57-12.763-26.87-15.458-10.31-2.695-20.53-2.775-30.68-.238-10.31 2.378-19.1 7.214-26.4 14.507-7.29 7.293-12.13 16.092-14.5 26.397-2.54 10.147-2.46 20.373.23 30.678 2.7 10.306 7.85 19.263 15.46 26.873 7.61 7.61 16.65 12.842 27.11 15.696 10.31 2.695 20.61 2.854 30.92.476 10.14-2.537 18.86-7.452 26.16-14.745Zm204.26-208.539 76.1-76.1 41.14 41.142-122.24 122.236-163.38-163.378 46.14-46.136 122.24 122.236ZM4340.87 5210.71c-15.85 15.85-34.4 26.79-55.65 32.82-21.4 5.86-42.65 6.34-63.73 1.42-21.09-4.91-39.16-14.9-54.22-29.96-15.07-15.06-24.97-33.06-29.73-53.98-4.92-21.09-4.36-42.26 1.66-63.5 5.87-21.4 16.73-40.03 32.58-55.89 15.86-15.85 34.49-26.71 55.89-32.58 21.25-6.02 42.41-6.58 63.5-1.66 20.93 4.75 38.92 14.66 53.98 29.72 15.06 15.07 25.05 33.14 29.97 54.23 4.91 21.08 4.44 42.33-1.43 63.73-6.03 21.25-16.96 39.79-32.82 55.65Zm-41.85-41.86c7.29-7.29 12.2-16.01 14.74-26.16 2.38-10.3 2.22-20.61-.48-30.91-2.85-10.47-8.08-19.5-15.69-27.11-7.61-7.61-16.57-12.77-26.87-15.46-10.31-2.7-20.54-2.77-30.68-.24-10.31 2.38-19.11 7.22-26.4 14.51-7.29 7.29-12.13 16.09-14.51 26.4-2.53 10.14-2.45 20.37.24 30.67 2.7 10.31 7.85 19.27 15.46 26.88 7.61 7.61 16.65 12.84 27.11 15.69 10.31 2.7 20.61 2.86 30.92.48 10.14-2.54 18.86-7.45 26.16-14.75Zm110.88-277.35-48.28 48.28-41.14-41.14 142.69-142.69 41.14 41.14-48.28 48.28 122.24 122.23-46.14 46.14-122.23-122.24Zm365.28-115.1c-15.86 15.86-34.4 26.79-55.65 32.82-21.4 5.87-42.65 6.34-63.73 1.43-21.09-4.92-39.16-14.91-54.23-29.97-15.06-15.06-24.97-33.05-29.72-53.98-4.92-21.09-4.36-42.25 1.66-63.5 5.87-21.4 16.73-40.03 32.58-55.89 15.86-15.85 34.49-26.71 55.89-32.58 21.24-6.02 42.41-6.58 63.5-1.66 20.92 4.76 38.92 14.66 53.98 29.73 15.06 15.06 25.05 33.13 29.96 54.22 4.92 21.08 4.44 42.33-1.42 63.73-6.03 21.25-16.97 39.8-32.82 55.65Zm-41.86-41.85c7.3-7.3 12.21-16.02 14.75-26.16 2.38-10.31 2.22-20.61-.48-30.92-2.85-10.46-8.08-19.5-15.69-27.11-7.61-7.61-16.57-12.76-26.88-15.46-10.3-2.69-20.53-2.77-30.67-.24-10.31 2.38-19.11 7.22-26.4 14.51-7.29 7.29-12.13 16.09-14.51 26.4-2.53 10.14-2.46 20.37.24 30.68 2.7 10.3 7.85 19.26 15.46 26.87 7.61 7.61 16.64 12.84 27.11 15.69 10.3 2.7 20.61 2.86 30.91.48 10.15-2.54 18.87-7.45 26.16-14.74Zm281.08-197.37c-15.86 15.86-34.41 26.8-55.65 32.82-21.41 5.87-42.65 6.34-63.74 1.43-21.08-4.92-39.16-14.9-54.22-29.97-15.06-15.06-24.97-33.05-29.73-53.98-4.91-21.09-4.36-42.25 1.67-63.5 5.87-21.4 16.73-40.03 32.58-55.88 15.85-15.86 34.48-26.72 55.89-32.58 21.24-6.03 42.41-6.58 63.49-1.67 20.93 4.76 38.92 14.67 53.99 29.73 15.06 15.06 25.05 33.14 29.96 54.22 4.92 21.09 4.44 42.33-1.43 63.74-6.02 21.24-16.96 39.79-32.81 55.64Zm-41.86-41.85c7.29-7.29 12.21-16.01 14.74-26.16 2.38-10.31 2.23-20.61-.47-30.92-2.85-10.46-8.09-19.5-15.7-27.11-7.61-7.61-16.56-12.76-26.87-15.46-10.3-2.69-20.53-2.77-30.68-.23-10.3 2.38-19.1 7.21-26.39 14.5-7.3 7.3-12.13 16.1-14.51 26.4-2.54 10.15-2.46 20.37.24 30.68 2.69 10.3 7.84 19.26 15.45 26.87 7.61 7.61 16.65 12.84 27.12 15.7 10.3 2.69 20.61 2.85 30.91.47 10.15-2.53 18.87-7.45 26.16-14.74Zm204.26-208.54 76.1-76.1 41.14 41.14-122.24 122.24-163.37-163.38 46.13-46.14 122.24 122.24Zm256.27-168.28c-14.9 14.9-31.39 26.79-49.47 35.67-18.23 8.72-36.94 13.64-56.12 14.75l-4.99-56.36c30.28-3.65 54.93-14.99 73.96-34.01 6.18-6.19 9.98-11.89 11.41-17.12 1.27-5.4.08-9.91-3.57-13.56-2.53-2.54-5.31-3.73-8.32-3.57-2.85 0-6.5 1.27-10.94 3.81-4.6 2.38-12.37 6.97-23.31 13.79-17.12 10.78-31.78 18.79-43.99 24.02-12.37 5.07-24.42 6.98-36.15 5.71-11.89-1.43-23.22-7.53-34.01-18.31-10.78-10.79-17.59-22.83-20.45-36.15-2.69-13.48-1.42-27.27 3.81-41.38 5.39-14.27 14.5-27.83 27.35-40.67 27.27-27.27 57.47-42.73 90.6-46.37l9.52 55.65c-12.85 2.06-24.66 5.78-35.44 11.17-10.94 5.24-20.13 11.58-27.59 19.03-5.39 5.39-8.48 10.54-9.27 15.46-.95 4.75.16 8.72 3.33 11.89 2.85 2.85 5.95 4.36 9.27 4.52 3.18 0 7.46-1.27 12.85-3.81 5.23-2.69 12.84-7.29 22.83-13.79 16.96-10.94 31.63-18.95 43.99-24.02 12.53-5.23 24.34-7.06 35.44-5.47 11.25 1.43 21.88 7.13 31.86 17.12 17.13 17.12 24.42 36.63 21.88 58.5-2.38 21.72-13.87 42.89-34.48 63.5ZM1742.64 5277.18l76.11-76.1 41.14 41.14-122.24 122.24-163.38-163.38 46.14-46.13 122.23 122.23Zm256.28-168.28c-14.91 14.91-31.4 26.8-49.47 35.68-18.23 8.72-36.94 13.63-56.12 14.74l-5-56.36c30.28-3.65 54.94-14.98 73.96-34.01 6.19-6.18 9.99-11.89 11.42-17.12 1.27-5.39.08-9.91-3.57-13.56-2.54-2.53-5.31-3.72-8.32-3.56-2.86 0-6.5 1.26-10.94 3.8-4.6 2.38-12.37 6.98-23.31 13.79-17.12 10.78-31.79 18.79-43.99 24.02-12.37 5.08-24.42 6.98-36.15 5.71-11.89-1.43-23.23-7.53-34.01-18.31-10.78-10.78-17.6-22.83-20.45-36.15-2.7-13.48-1.43-27.27 3.8-41.38 5.39-14.27 14.51-27.82 27.35-40.67 27.27-27.26 57.47-42.72 90.61-46.37l9.51 55.65c-12.84 2.06-24.65 5.79-35.43 11.18-10.94 5.23-20.14 11.57-27.59 19.02-5.39 5.39-8.48 10.54-9.27 15.46-.95 4.76.15 8.72 3.33 11.89 2.85 2.85 5.94 4.36 9.27 4.52 3.17 0 7.45-1.27 12.84-3.81 5.23-2.69 12.84-7.29 22.83-13.79 16.97-10.94 31.63-18.94 44-24.02 12.52-5.23 24.33-7.05 35.43-5.47 11.26 1.43 21.88 7.14 31.87 17.12 17.12 17.13 24.42 36.63 21.88 58.51-2.38 21.72-13.87 42.88-34.48 63.49Zm-27.73-304.74 46.14-46.13 121.76 34.24-34.25-121.76 46.14-46.13 163.38 163.38-46.14 46.13-87.52-87.51 34.25 121.76-121.76-34.25 87.51 87.52-46.13 46.13-163.38-163.38Zm536.67-209.91-30.2-13.56-56.84 56.84 13.56 30.2-52.08 52.08-100.6-226.16 52.08-52.08 226.16 100.6-52.08 52.08Zm-107.96-3.81 30.67-30.68-54.93-24.49 24.26 55.17Zm64.59-279.57 46.13-46.14 64.45 64.45-9.51-119.38 54.46-54.46 7.85 128.65 160.28 29.97-55.17 55.17-103.93-19.74 1.67 35.44 43.28 43.28-46.13 46.14-163.38-163.38Zm457.92-125.47c-15.85 15.86-34.4 26.8-55.64 32.82-21.41 5.87-42.65 6.34-63.74 1.43-21.08-4.92-39.16-14.9-54.22-29.97-15.06-15.06-24.97-33.05-29.73-53.98-4.91-21.09-4.36-42.25 1.67-63.5 5.86-21.4 16.72-40.03 32.58-55.88 15.85-15.86 34.48-26.72 55.89-32.58 21.24-6.03 42.41-6.58 63.49-1.67 20.93 4.76 38.92 14.67 53.99 29.73 15.06 15.06 25.05 33.14 29.96 54.22 4.91 21.09 4.44 42.33-1.43 63.74-6.02 21.24-16.96 39.79-32.82 55.64Zm-41.85-41.85c7.29-7.29 12.21-16.01 14.74-26.16 2.38-10.31 2.22-20.61-.47-30.92-2.86-10.46-8.09-19.5-15.7-27.11-7.61-7.61-16.57-12.76-26.87-15.46-10.31-2.69-20.53-2.77-30.68-.23-10.3 2.38-19.1 7.21-26.4 14.5-7.29 7.3-12.12 16.1-14.5 26.4-2.54 10.15-2.46 20.37.24 30.68 2.69 10.3 7.84 19.26 15.45 26.87 7.61 7.61 16.65 12.84 27.11 15.7 10.31 2.69 20.61 2.85 30.92.47 10.15-2.53 18.87-7.45 26.16-14.74Zm110.88-277.35-48.28 48.27-41.14-41.14 142.69-142.69 41.14 41.15-48.27 48.27 122.23 122.24-46.13 46.13-122.24-122.23Zm365.28-115.1c-15.85 15.85-34.4 26.79-55.65 32.81-21.4 5.87-42.64 6.35-63.73 1.43-21.09-4.91-39.16-14.9-54.22-29.96-15.06-15.06-24.97-33.06-29.73-53.99-4.91-21.08-4.36-42.25 1.67-63.49 5.86-21.41 16.72-40.04 32.58-55.89 15.85-15.85 34.48-26.71 55.88-32.58 21.25-6.03 42.41-6.58 63.5-1.67 20.93 4.76 38.92 14.67 53.98 29.73 15.07 15.06 25.05 33.14 29.97 54.22 4.91 21.09 4.44 42.33-1.43 63.74-6.02 21.24-16.96 39.79-32.82 55.65Zm-41.85-41.86c7.29-7.29 12.21-16.01 14.74-26.16 2.38-10.3 2.22-20.61-.47-30.91-2.86-10.47-8.09-19.51-15.7-27.12-7.61-7.61-16.57-12.76-26.87-15.45-10.31-2.7-20.53-2.78-30.68-.24-10.31 2.38-19.1 7.21-26.4 14.51-7.29 7.29-12.13 16.09-14.5 26.39-2.54 10.15-2.46 20.38.23 30.68 2.7 10.31 7.85 19.26 15.46 26.87 7.61 7.61 16.65 12.85 27.11 15.7 10.31 2.69 20.61 2.85 30.92.47 10.14-2.53 18.86-7.45 26.16-14.74Zm281.07-197.36c-15.85 15.85-34.4 26.79-55.65 32.82-21.4 5.86-42.65 6.34-63.73 1.42-21.09-4.91-39.16-14.9-54.22-29.96-15.07-15.06-24.98-33.06-29.73-53.98-4.92-21.09-4.36-42.26 1.66-63.5 5.87-21.4 16.73-40.03 32.58-55.89 15.86-15.85 34.49-26.71 55.89-32.58 21.25-6.02 42.41-6.58 63.5-1.66 20.92 4.75 38.92 14.66 53.98 29.72 15.06 15.07 25.05 33.14 29.96 54.23 4.92 21.08 4.44 42.33-1.42 63.73-6.03 21.25-16.97 39.79-32.82 55.65Zm-41.86-41.86c7.3-7.29 12.21-16.01 14.75-26.16 2.38-10.3 2.22-20.61-.48-30.91-2.85-10.47-8.08-19.5-15.69-27.11-7.61-7.61-16.57-12.77-26.88-15.46-10.3-2.7-20.53-2.77-30.67-.24-10.31 2.38-19.11 7.22-26.4 14.51-7.29 7.29-12.13 16.09-14.51 26.4-2.53 10.14-2.45 20.37.24 30.67 2.7 10.31 7.85 19.27 15.46 26.88 7.61 7.61 16.65 12.84 27.11 15.69 10.3 2.7 20.61 2.86 30.91.48 10.15-2.54 18.87-7.45 26.16-14.75Zm204.26-208.54 76.1-76.1 41.14 41.15-122.23 122.23-163.38-163.38 46.14-46.13 122.23 122.23Zm256.27-168.27c-14.9 14.9-31.39 26.79-49.46 35.67-18.23 8.72-36.94 13.63-56.13 14.74l-4.99-56.36c30.28-3.65 54.93-14.98 73.96-34.01 6.18-6.18 9.99-11.89 11.41-17.12 1.27-5.39.08-9.91-3.56-13.56-2.54-2.53-5.31-3.72-8.33-3.56-2.85 0-6.5 1.27-10.94 3.8-4.59 2.38-12.36 6.98-23.3 13.8-17.12 10.78-31.79 18.78-44 24.02-12.36 5.07-24.41 6.97-36.14 5.7-11.9-1.42-23.23-7.53-34.01-18.31-10.78-10.78-17.6-22.83-20.45-36.15-2.7-13.47-1.43-27.27 3.8-41.38 5.39-14.27 14.51-27.82 27.35-40.66 27.27-27.27 57.47-42.73 90.61-46.38l9.51 55.65c-12.84 2.06-24.65 5.79-35.43 11.18-10.94 5.23-20.14 11.57-27.59 19.02-5.39 5.4-8.48 10.55-9.28 15.46-.95 4.76.16 8.72 3.33 11.89 2.86 2.86 5.95 4.36 9.28 4.52 3.17 0 7.45-1.27 12.84-3.8 5.23-2.7 12.84-7.3 22.83-13.8 16.96-10.94 31.63-18.94 44-24.02 12.52-5.23 24.33-7.05 35.43-5.47 11.26 1.43 21.88 7.14 31.87 17.13 17.12 17.12 24.41 36.62 21.88 58.5-2.38 21.72-13.88 42.88-34.49 63.5Zm-27.72-304.74 46.13-46.14 121.76 34.25-34.24-121.76 46.13-46.14 163.38 163.38-46.13 46.13-87.52-87.51 34.25 121.76-121.76-34.25 87.51 87.52-46.13 46.14-163.38-163.38Zm536.67-209.92-30.2-13.56-56.84 56.84 13.56 30.2-52.08 52.09-100.6-226.17 52.08-52.08 226.16 100.6-52.08 52.08Zm-107.97-3.81 30.68-30.67-54.93-24.5 24.25 55.17Zm64.59-279.57 46.14-46.14 64.45 64.45-9.51-119.38 54.45-54.46 7.85 128.66 160.29 29.96-55.17 55.17-103.93-19.73 1.67 35.43 43.28 43.28-46.14 46.14-163.38-163.38Zm457.93-125.46c-15.85 15.85-34.4 26.79-55.65 32.81-21.4 5.87-42.64 6.35-63.73 1.43-21.09-4.91-39.16-14.9-54.22-29.96-15.06-15.07-24.97-33.06-29.73-53.99-4.91-21.08-4.36-42.25 1.67-63.49 5.86-21.41 16.72-40.04 32.58-55.89 15.85-15.85 34.48-26.71 55.88-32.58 21.25-6.03 42.41-6.58 63.5-1.67 20.93 4.76 38.92 14.67 53.98 29.73 15.07 15.06 25.05 33.14 29.97 54.22 4.91 21.09 4.44 42.33-1.43 63.74-6.02 21.24-16.96 39.79-32.82 55.65Zm-41.85-41.86c7.29-7.29 12.21-16.01 14.74-26.16 2.38-10.3 2.22-20.61-.47-30.91-2.86-10.47-8.09-19.51-15.7-27.12-7.61-7.61-16.57-12.76-26.87-15.45-10.31-2.7-20.53-2.78-30.68-.24-10.31 2.38-19.1 7.21-26.4 14.51-7.29 7.29-12.13 16.09-14.5 26.39-2.54 10.15-2.46 20.38.23 30.68 2.7 10.31 7.85 19.26 15.46 26.87 7.61 7.61 16.65 12.85 27.11 15.7 10.31 2.69 20.61 2.85 30.92.48 10.14-2.54 18.86-7.46 26.16-14.75Zm110.88-277.35-48.28 48.28-41.14-41.15 142.69-142.68 41.14 41.14-48.28 48.27 122.24 122.24-46.14 46.14-122.23-122.24Zm365.28-115.1c-15.85 15.85-34.4 26.79-55.65 32.82-21.4 5.86-42.65 6.34-63.73 1.42-21.09-4.91-39.16-14.9-54.22-29.96-15.06-15.06-24.97-33.06-29.73-53.99-4.91-21.08-4.36-42.25 1.66-63.49 5.87-21.4 16.73-40.03 32.58-55.89 15.86-15.85 34.49-26.71 55.89-32.58 21.25-6.02 42.41-6.58 63.5-1.66 20.93 4.75 38.92 14.66 53.98 29.72 15.06 15.07 25.05 33.14 29.97 54.23 4.91 21.08 4.44 42.33-1.43 63.73-6.03 21.24-16.97 39.79-32.82 55.65Zm-41.85-41.86c7.29-7.29 12.2-16.01 14.74-26.16 2.38-10.3 2.22-20.61-.48-30.91-2.85-10.47-8.08-19.5-15.69-27.11-7.61-7.61-16.57-12.77-26.87-15.46-10.31-2.7-20.54-2.78-30.68-.24-10.31 2.38-19.11 7.21-26.4 14.51-7.29 7.29-12.13 16.09-14.51 26.4-2.53 10.14-2.45 20.37.24 30.67 2.7 10.31 7.85 19.27 15.46 26.88 7.61 7.61 16.65 12.84 27.11 15.69 10.31 2.7 20.61 2.86 30.92.48 10.14-2.54 18.86-7.45 26.16-14.75Zm98.19 3651.16c-15.85 15.85-34.4 26.79-55.65 32.82-21.4 5.86-42.65 6.34-63.73 1.43-21.09-4.92-39.16-14.91-54.22-29.97-15.07-15.06-24.97-33.06-29.73-53.98-4.92-21.09-4.36-42.25 1.66-63.5 5.87-21.4 16.73-40.03 32.58-55.89 15.86-15.85 34.49-26.71 55.89-32.58 21.25-6.02 42.41-6.58 63.5-1.66 20.92 4.75 38.92 14.66 53.98 29.73 15.06 15.06 25.05 33.13 29.97 54.22 4.91 21.08 4.44 42.33-1.43 63.73-6.03 21.25-16.97 39.8-32.82 55.65Zm-41.85-41.86c7.29-7.29 12.2-16.01 14.74-26.15 2.38-10.31 2.22-20.62-.48-30.92-2.85-10.46-8.08-19.5-15.69-27.11-7.61-7.61-16.57-12.76-26.87-15.46-10.31-2.69-20.54-2.77-30.68-.24-10.31 2.38-19.11 7.22-26.4 14.51-7.29 7.29-12.13 16.09-14.51 26.4-2.53 10.14-2.45 20.37.24 30.67 2.7 10.31 7.85 19.27 15.46 26.88 7.61 7.61 16.65 12.84 27.11 15.69 10.31 2.7 20.61 2.86 30.92.48 10.14-2.54 18.86-7.45 26.16-14.75Zm-2481.76 121.71c-15.86 15.86-34.41 26.8-55.65 32.82-21.41 5.87-42.65 6.34-63.74 1.43-21.08-4.92-39.16-14.9-54.22-29.97-15.06-15.06-24.97-33.05-29.73-53.98-4.91-21.09-4.36-42.25 1.67-63.5 5.86-21.4 16.72-40.03 32.58-55.88 15.85-15.86 34.48-26.72 55.89-32.58 21.24-6.03 42.41-6.58 63.49-1.67 20.93 4.76 38.92 14.67 53.99 29.73 15.06 15.06 25.05 33.14 29.96 54.22 4.92 21.09 4.44 42.33-1.43 63.74-6.02 21.24-16.96 39.79-32.81 55.64Zm-41.86-41.85c7.29-7.29 12.21-16.01 14.74-26.16 2.38-10.31 2.22-20.61-.47-30.92-2.85-10.46-8.09-19.5-15.7-27.11-7.61-7.61-16.56-12.76-26.87-15.46-10.31-2.69-20.53-2.77-30.68-.23-10.3 2.38-19.1 7.21-26.4 14.5-7.29 7.3-12.12 16.1-14.5 26.4-2.54 10.15-2.46 20.37.24 30.68 2.69 10.3 7.84 19.26 15.45 26.87 7.61 7.61 16.65 12.84 27.11 15.7 10.31 2.69 20.62 2.85 30.92.47 10.15-2.53 18.87-7.45 26.16-14.74Zm281.07-197.36c-15.85 15.85-34.4 26.79-55.65 32.82-21.4 5.86-42.64 6.34-63.73 1.42-21.09-4.91-39.16-14.9-54.22-29.96-15.06-15.06-24.97-33.06-29.73-53.99-4.91-21.08-4.36-42.25 1.67-63.49 5.86-21.41 16.72-40.03 32.58-55.89 15.85-15.85 34.48-26.71 55.88-32.58 21.25-6.02 42.41-6.58 63.5-1.66 20.93 4.75 38.92 14.66 53.98 29.72 15.06 15.06 25.05 33.14 29.97 54.22 4.91 21.09 4.44 42.34-1.43 63.74-6.02 21.24-16.96 39.79-32.82 55.65Zm-41.85-41.86c7.29-7.29 12.2-16.01 14.74-26.16 2.38-10.3 2.22-20.61-.47-30.91-2.86-10.47-8.09-19.5-15.7-27.11-7.61-7.61-16.57-12.77-26.87-15.46-10.31-2.7-20.53-2.78-30.68-.24-10.31 2.38-19.11 7.21-26.4 14.51-7.29 7.29-12.13 16.09-14.51 26.39-2.53 10.15-2.45 20.38.24 30.68 2.7 10.31 7.85 19.27 15.46 26.88 7.61 7.61 16.65 12.84 27.11 15.69 10.31 2.7 20.61 2.85 30.92.48 10.14-2.54 18.86-7.45 26.16-14.75Zm204.25-208.54 76.11-76.1 41.14 41.14-122.24 122.24-163.38-163.38 46.14-46.13 122.23 122.23Zm256.28-168.28c-14.91 14.91-31.4 26.8-49.47 35.68-18.23 8.72-36.94 13.63-56.12 14.74l-5-56.36c30.28-3.65 54.94-14.98 73.96-34.01 6.19-6.18 9.99-11.89 11.42-17.12 1.27-5.39.08-9.91-3.57-13.56-2.54-2.53-5.31-3.72-8.32-3.56-2.86 0-6.5 1.26-10.94 3.8-4.6 2.38-12.37 6.98-23.31 13.79-17.12 10.78-31.79 18.79-43.99 24.02-12.37 5.08-24.42 6.98-36.15 5.71-11.89-1.43-23.23-7.53-34.01-18.31-10.78-10.78-17.6-22.83-20.45-36.15-2.7-13.48-1.43-27.27 3.8-41.38 5.39-14.27 14.51-27.82 27.35-40.66 27.27-27.27 57.47-42.73 90.61-46.38l9.51 55.65c-12.84 2.06-24.65 5.79-35.43 11.18-10.94 5.23-20.14 11.57-27.59 19.02-5.39 5.39-8.48 10.55-9.27 15.46-.95 4.76.16 8.72 3.33 11.89 2.85 2.85 5.94 4.36 9.27 4.52 3.17 0 7.45-1.27 12.84-3.81 5.23-2.69 12.84-7.29 22.83-13.79 16.97-10.94 31.63-18.94 44-24.02 12.52-5.23 24.33-7.05 35.43-5.47 11.26 1.43 21.88 7.14 31.87 17.12 17.12 17.13 24.42 36.63 21.88 58.51-2.38 21.72-13.87 42.88-34.48 63.49Zm-27.73-304.73 46.14-46.14 121.76 34.24-34.25-121.76 46.14-46.13 163.38 163.38-46.14 46.13-87.52-87.51 34.25 121.76-121.76-34.25 87.51 87.52-46.13 46.13-163.38-163.37Zm536.67-209.92-30.2-13.56-56.84 56.84 13.56 30.2-52.08 52.08-100.6-226.16 52.08-52.08 226.17 100.6-52.09 52.08Zm-107.96-3.81 30.67-30.68-54.93-24.49 24.26 55.17Zm64.59-279.57 46.13-46.14 64.45 64.45-9.51-119.38 54.46-54.46 7.85 128.66 160.28 29.96-55.17 55.17-103.93-19.74 1.67 35.44 43.28 43.28-46.13 46.14-163.38-163.38Zm457.92-125.47c-15.85 15.86-34.4 26.8-55.64 32.82-21.41 5.87-42.65 6.34-63.74 1.43-21.08-4.92-39.16-14.9-54.22-29.96-15.06-15.07-24.97-33.06-29.73-53.99-4.91-21.08-4.36-42.25 1.67-63.49 5.86-21.41 16.72-40.04 32.58-55.89 15.85-15.86 34.48-26.72 55.89-32.58 21.24-6.03 42.41-6.58 63.49-1.67 20.93 4.76 38.92 14.67 53.99 29.73 15.06 15.06 25.05 33.14 29.96 54.22 4.92 21.09 4.44 42.33-1.43 63.74-6.02 21.24-16.96 39.79-32.82 55.64Zm-41.85-41.85c7.29-7.29 12.21-16.01 14.74-26.16 2.38-10.31 2.22-20.61-.47-30.92-2.86-10.46-8.09-19.5-15.7-27.11-7.61-7.61-16.57-12.76-26.87-15.45-10.31-2.7-20.53-2.78-30.68-.24-10.3 2.38-19.1 7.21-26.4 14.5-7.29 7.3-12.12 16.1-14.5 26.4-2.54 10.15-2.46 20.37.24 30.68 2.69 10.3 7.84 19.26 15.45 26.87 7.61 7.61 16.65 12.84 27.11 15.7 10.31 2.69 20.61 2.85 30.92.47 10.15-2.53 18.87-7.45 26.16-14.74Zm110.88-277.35-48.28 48.28-41.14-41.15 142.69-142.69 41.14 41.15-48.27 48.27 122.23 122.24-46.13 46.13-122.24-122.23Zm365.28-115.1c-15.85 15.85-34.4 26.79-55.65 32.81-21.4 5.87-42.64 6.35-63.73 1.43-21.09-4.91-39.16-14.9-54.22-29.96-15.06-15.06-24.97-33.06-29.73-53.99-4.91-21.08-4.36-42.25 1.67-63.49 5.86-21.41 16.72-40.04 32.58-55.89 15.85-15.85 34.48-26.71 55.88-32.58 21.25-6.02 42.41-6.58 63.5-1.66 20.93 4.75 38.92 14.66 53.98 29.72 15.07 15.06 25.05 33.14 29.97 54.22 4.91 21.09 4.44 42.33-1.43 63.74-6.02 21.24-16.96 39.79-32.82 55.65Zm-41.85-41.86c7.29-7.29 12.21-16.01 14.74-26.16 2.38-10.3 2.22-20.61-.47-30.91-2.86-10.47-8.09-19.51-15.7-27.12-7.61-7.61-16.57-12.76-26.87-15.45-10.31-2.7-20.53-2.78-30.68-.24-10.31 2.38-19.1 7.21-26.4 14.51-7.29 7.29-12.13 16.09-14.5 26.39-2.54 10.15-2.46 20.38.23 30.68 2.7 10.31 7.85 19.26 15.46 26.87 7.61 7.61 16.65 12.85 27.11 15.7 10.31 2.7 20.61 2.85 30.92.48 10.14-2.54 18.87-7.46 26.16-14.75Zm281.07-197.36c-15.85 15.85-34.4 26.79-55.65 32.82-21.4 5.86-42.65 6.34-63.73 1.42-21.09-4.91-39.16-14.9-54.22-29.96-15.07-15.06-24.98-33.06-29.73-53.98-4.92-21.09-4.36-42.26 1.66-63.5 5.87-21.4 16.73-40.03 32.58-55.89 15.86-15.85 34.49-26.71 55.89-32.58 21.24-6.02 42.41-6.58 63.5-1.66 20.92 4.75 38.92 14.66 53.98 29.73 15.06 15.06 25.05 33.13 29.96 54.22 4.92 21.08 4.44 42.33-1.42 63.73-6.03 21.25-16.97 39.79-32.82 55.65Zm-41.86-41.86c7.3-7.29 12.21-16.01 14.75-26.16 2.38-10.3 2.22-20.61-.48-30.91-2.85-10.46-8.08-19.5-15.69-27.11-7.61-7.61-16.57-12.76-26.88-15.46-10.3-2.69-20.53-2.77-30.67-.24-10.31 2.38-19.11 7.22-26.4 14.51-7.29 7.29-12.13 16.09-14.51 26.4-2.53 10.14-2.45 20.37.24 30.67 2.7 10.31 7.85 19.27 15.46 26.88 7.61 7.61 16.65 12.84 27.11 15.69 10.3 2.7 20.61 2.86 30.91.48 10.15-2.54 18.87-7.45 26.16-14.75Zm204.26-208.53 76.1-76.11 41.15 41.15-122.24 122.23-163.38-163.38 46.14-46.13 122.23 122.24ZM1152.79 5344.09c-15.85 15.85-34.4 26.79-55.65 32.82-21.4 5.86-42.65 6.34-63.73 1.42-21.09-4.91-39.163-14.9-54.224-29.96-15.062-15.06-24.971-33.06-29.727-53.98-4.915-21.09-4.36-42.26 1.665-63.5 5.866-21.4 16.726-40.03 32.58-55.89 15.855-15.85 34.486-26.71 55.886-32.58 21.25-6.02 42.41-6.58 63.5-1.66 20.92 4.75 38.92 14.66 53.98 29.72 15.06 15.07 25.05 33.14 29.97 54.23 4.91 21.08 4.43 42.33-1.43 63.73-6.03 21.24-16.97 39.79-32.82 55.65Zm-41.86-41.86c7.3-7.29 12.21-16.01 14.75-26.16 2.38-10.3 2.22-20.61-.48-30.91-2.85-10.47-8.08-19.5-15.69-27.11-7.61-7.61-16.57-12.77-26.88-15.46-10.3-2.7-20.53-2.78-30.67-.24-10.31 2.38-19.11 7.21-26.4 14.51-7.29 7.29-12.13 16.09-14.51 26.4-2.53 10.14-2.45 20.37.24 30.67 2.7 10.31 7.85 19.27 15.46 26.88 7.61 7.61 16.65 12.84 27.11 15.69 10.3 2.7 20.61 2.86 30.92.48 10.14-2.54 18.86-7.45 26.15-14.75Zm110.89-277.35-48.28 48.28-41.14-41.14 142.69-142.69 41.14 41.14-48.28 48.28 122.24 122.23-46.14 46.14-122.23-122.24Zm365.28-115.1c-15.86 15.85-34.41 26.79-55.65 32.82-21.4 5.87-42.65 6.34-63.73 1.43-21.09-4.92-39.16-14.91-54.23-29.97-15.06-15.06-24.97-33.06-29.72-53.98-4.92-21.09-4.36-42.25 1.66-63.5 5.87-21.4 16.73-40.03 32.58-55.89 15.86-15.85 34.49-26.71 55.89-32.58 21.24-6.02 42.41-6.58 63.49-1.66 20.93 4.76 38.93 14.66 53.99 29.73 15.06 15.06 25.05 33.13 29.96 54.22 4.92 21.08 4.44 42.33-1.42 63.73-6.03 21.25-16.97 39.8-32.82 55.65Zm-41.86-41.85c7.3-7.3 12.21-16.02 14.75-26.16 2.38-10.31 2.22-20.62-.48-30.92-2.85-10.46-8.08-19.5-15.69-27.11-7.61-7.61-16.57-12.76-26.88-15.46-10.3-2.69-20.53-2.77-30.68-.24-10.3 2.38-19.1 7.22-26.39 14.51-7.3 7.29-12.13 16.09-14.51 26.4-2.54 10.14-2.46 20.37.24 30.68 2.69 10.3 7.85 19.26 15.46 26.87 7.61 7.61 16.64 12.84 27.11 15.69 10.3 2.7 20.61 2.86 30.91.48 10.15-2.54 18.87-7.45 26.16-14.74Zm281.07-197.37c-15.85 15.86-34.4 26.8-55.64 32.82-21.41 5.87-42.65 6.34-63.74 1.43-21.08-4.92-39.16-14.9-54.22-29.97-15.06-15.06-24.97-33.05-29.73-53.98-4.91-21.09-4.36-42.25 1.67-63.5 5.86-21.4 16.72-40.03 32.58-55.88 15.85-15.86 34.48-26.72 55.89-32.58 21.24-6.03 42.41-6.58 63.49-1.67 20.93 4.76 38.92 14.67 53.99 29.73 15.06 15.06 25.05 33.13 29.96 54.22 4.91 21.09 4.44 42.33-1.43 63.74-6.02 21.24-16.96 39.79-32.82 55.64Zm-41.85-41.85c7.29-7.29 12.21-16.01 14.74-26.16 2.38-10.31 2.22-20.61-.47-30.92-2.86-10.46-8.09-19.5-15.7-27.11-7.61-7.61-16.56-12.76-26.87-15.46-10.31-2.69-20.53-2.77-30.68-.23-10.3 2.37-19.1 7.21-26.4 14.5-7.29 7.3-12.12 16.1-14.5 26.4-2.54 10.15-2.46 20.37.24 30.68 2.69 10.3 7.84 19.26 15.45 26.87 7.61 7.61 16.65 12.84 27.11 15.7 10.31 2.69 20.61 2.85 30.92.47 10.15-2.53 18.87-7.45 26.16-14.74Zm204.26-208.54 76.1-76.1 41.14 41.14-122.24 122.24-163.37-163.38 46.13-46.14 122.24 122.24Zm256.27-168.28c-14.9 14.9-31.39 26.79-49.47 35.67-18.23 8.72-36.94 13.64-56.12 14.75l-4.99-56.37c30.28-3.64 54.93-14.98 73.96-34 6.18-6.19 9.98-11.89 11.41-17.13 1.27-5.39.08-9.9-3.57-13.55-2.53-2.54-5.31-3.73-8.32-3.57-2.85 0-6.5 1.27-10.94 3.81-4.6 2.37-12.37 6.97-23.31 13.79-17.12 10.78-31.78 18.79-43.99 24.02-12.37 5.07-24.42 6.98-36.15 5.71-11.89-1.43-23.23-7.53-34.01-18.31-10.78-10.79-17.59-22.84-20.45-36.15-2.69-13.48-1.43-27.27 3.81-41.38 5.39-14.27 14.5-27.83 27.35-40.67 27.26-27.27 57.47-42.73 90.6-46.37l9.52 55.65c-12.85 2.06-24.66 5.78-35.44 11.17-10.94 5.24-20.13 11.58-27.59 19.03-5.39 5.39-8.48 10.54-9.27 15.46-.95 4.75.16 8.72 3.33 11.89 2.85 2.85 5.94 4.36 9.27 4.52 3.17 0 7.46-1.27 12.85-3.81 5.23-2.69 12.84-7.29 22.83-13.79 16.96-10.94 31.63-18.95 43.99-24.02 12.53-5.23 24.34-7.06 35.44-5.47 11.25 1.43 21.87 7.13 31.86 17.12 17.13 17.12 24.42 36.62 21.88 58.5-2.38 21.72-13.87 42.89-34.48 63.5Zm-27.73-304.74 46.14-46.13 121.76 34.24-34.25-121.76 46.14-46.14 163.38 163.38-46.14 46.14-87.51-87.52 34.24 121.76-121.76-34.24 87.52 87.51-46.14 46.14-163.38-163.38Zm536.68-209.92-30.21-13.55-56.83 56.84 13.55 30.2-52.08 52.08-100.59-226.16 52.08-52.08 226.16 100.59-52.08 52.08Zm-107.97-3.8 30.68-30.68-54.94-24.49 24.26 55.17Zm64.59-279.58 46.14-46.13 64.44 64.45-9.51-119.39 54.46-54.46 7.85 128.66 160.29 29.97-55.18 55.17-103.92-19.74 1.66 35.43 43.28 43.29-46.13 46.13-163.38-163.38Zm457.93-125.46c-15.86 15.86-34.41 26.79-55.65 32.82-21.4 5.87-42.65 6.34-63.73 1.43-21.09-4.92-39.16-14.91-54.23-29.97-15.06-15.06-24.97-33.05-29.72-53.98-4.92-21.09-4.36-42.25 1.66-63.5 5.87-21.4 16.73-40.03 32.58-55.89 15.86-15.85 34.49-26.71 55.89-32.58 21.24-6.02 42.41-6.58 63.49-1.66 20.93 4.76 38.93 14.66 53.99 29.73 15.06 15.06 25.05 33.13 29.96 54.22 4.92 21.08 4.44 42.33-1.42 63.73-6.03 21.25-16.97 39.8-32.82 55.65Zm-41.86-41.85c7.3-7.3 12.21-16.02 14.75-26.16 2.38-10.31 2.22-20.61-.48-30.92-2.85-10.46-8.08-19.5-15.69-27.11-7.61-7.61-16.57-12.76-26.88-15.46-10.3-2.69-20.53-2.77-30.68-.24-10.3 2.38-19.1 7.22-26.39 14.51-7.3 7.29-12.13 16.09-14.51 26.4-2.54 10.14-2.46 20.37.24 30.68 2.69 10.3 7.85 19.26 15.46 26.87 7.61 7.61 16.64 12.84 27.11 15.69 10.3 2.7 20.61 2.86 30.91.48 10.15-2.54 18.87-7.45 26.16-14.74Zm110.88-277.36-48.27 48.28-41.14-41.14 142.68-142.69 41.15 41.14-48.28 48.28 122.24 122.24-46.14 46.13-122.24-122.24Zm365.29-115.1c-15.86 15.86-34.41 26.8-55.65 32.82-21.41 5.87-42.65 6.34-63.74 1.43-21.08-4.92-39.16-14.91-54.22-29.97-15.06-15.06-24.97-33.05-29.73-53.98-4.91-21.09-4.35-42.25 1.67-63.5 5.87-21.4 16.73-40.03 32.58-55.88 15.85-15.86 34.48-26.72 55.89-32.58 21.24-6.03 42.41-6.58 63.49-1.67 20.93 4.76 38.92 14.67 53.99 29.73 15.06 15.06 25.05 33.13 29.96 54.22 4.92 21.09 4.44 42.33-1.43 63.73-6.02 21.25-16.96 39.8-32.81 55.65Zm-41.86-41.85c7.29-7.3 12.21-16.02 14.74-26.16 2.38-10.31 2.22-20.61-.47-30.92-2.85-10.46-8.09-19.5-15.7-27.11-7.61-7.61-16.56-12.76-26.87-15.46-10.3-2.69-20.53-2.77-30.68-.23-10.3 2.37-19.1 7.21-26.39 14.5-7.3 7.29-12.13 16.09-14.51 26.4-2.54 10.15-2.46 20.37.24 30.68 2.69 10.3 7.84 19.26 15.45 26.87 7.61 7.61 16.65 12.84 27.12 15.7 10.3 2.69 20.61 2.85 30.91.47 10.15-2.53 18.87-7.45 26.16-14.74Zm281.07-197.36c-15.85 15.85-34.4 26.79-55.65 32.81-21.4 5.87-42.64 6.35-63.73 1.43-21.09-4.91-39.16-14.9-54.22-29.96-15.06-15.07-24.97-33.06-29.73-53.99-4.91-21.08-4.36-42.25 1.67-63.49 5.86-21.41 16.72-40.04 32.58-55.89 15.85-15.85 34.48-26.71 55.88-32.58 21.25-6.02 42.41-6.58 63.5-1.67 20.93 4.76 38.92 14.67 53.98 29.73 15.06 15.06 25.05 33.14 29.97 54.22 4.91 21.09 4.44 42.33-1.43 63.74-6.02 21.24-16.96 39.79-32.82 55.65Zm-41.85-41.86c7.29-7.29 12.21-16.01 14.74-26.16 2.38-10.3 2.22-20.61-.47-30.91-2.86-10.47-8.09-19.51-15.7-27.12-7.61-7.61-16.57-12.76-26.87-15.45-10.31-2.7-20.53-2.78-30.68-.24-10.31 2.38-19.1 7.21-26.4 14.5-7.29 7.3-12.13 16.1-14.5 26.4-2.54 10.15-2.46 20.38.23 30.68 2.7 10.31 7.85 19.26 15.46 26.87 7.61 7.61 16.65 12.85 27.11 15.7 10.31 2.69 20.61 2.85 30.92.47 10.14-2.53 18.86-7.45 26.16-14.74Zm204.26-208.54 76.1-76.1 41.14 41.14-122.24 122.24-163.38-163.38 46.14-46.13 122.24 122.23Zm256.27-168.28c-14.91 14.91-31.4 26.8-49.47 35.67-18.23 8.72-36.94 13.64-56.12 14.75l-5-56.36c30.28-3.65 54.94-14.99 73.96-34.01 6.19-6.18 9.99-11.89 11.42-17.12 1.27-5.39.08-9.91-3.57-13.56-2.54-2.54-5.31-3.72-8.32-3.57-2.86 0-6.5 1.27-10.94 3.81-4.6 2.38-12.37 6.98-23.31 13.79-17.12 10.78-31.79 18.79-43.99 24.02-12.37 5.08-24.42 6.98-36.15 5.71-11.89-1.43-23.23-7.53-34.01-18.31-10.78-10.78-17.6-22.83-20.45-36.15-2.7-13.48-1.43-27.27 3.8-41.38 5.39-14.27 14.51-27.82 27.35-40.67 27.27-27.27 57.47-42.72 90.61-46.37l9.51 55.65c-12.84 2.06-24.65 5.79-35.43 11.18-10.94 5.23-20.14 11.57-27.59 19.02-5.39 5.39-8.48 10.54-9.27 15.46-.95 4.76.16 8.72 3.33 11.89 2.85 2.85 5.94 4.36 9.27 4.52 3.17 0 7.45-1.27 12.84-3.81 5.23-2.69 12.85-7.29 22.83-13.79 16.97-10.94 31.63-18.95 44-24.02 12.52-5.23 24.34-7.05 35.43-5.47 11.26 1.43 21.88 7.14 31.87 17.12 17.12 17.13 24.42 36.63 21.88 58.51-2.38 21.72-13.87 42.88-34.48 63.49Zm-27.73-304.74 46.14-46.13 121.76 34.24-34.25-121.76 46.14-46.13 163.38 163.37-46.14 46.14-87.52-87.51 34.25 121.76-121.76-34.25 87.51 87.52-46.13 46.13-163.38-163.38Zm536.68-209.91-30.21-13.56-56.83 56.84 13.55 30.2-52.08 52.08-100.6-226.16 52.08-52.08 226.17 100.59-52.08 52.09Zm-107.97-3.81 30.68-30.68-54.94-24.49 24.26 55.17Zm64.59-279.57 46.13-46.14 64.45 64.45-9.51-119.38 54.46-54.46 7.85 128.65 160.28 29.97-55.17 55.17-103.92-19.74 1.66 35.44 43.28 43.28-46.13 46.13-163.38-163.37Zm457.93-125.47c-15.86 15.86-34.41 26.8-55.65 32.82-21.41 5.87-42.65 6.34-63.74 1.43-21.08-4.92-39.16-14.91-54.22-29.97-15.06-15.06-24.97-33.05-29.72-53.98-4.92-21.09-4.37-42.25 1.66-63.5 5.87-21.4 16.73-40.03 32.58-55.88 15.85-15.86 34.48-26.72 55.89-32.58 21.24-6.03 42.41-6.58 63.49-1.67 20.93 4.76 38.93 14.67 53.99 29.73 15.06 15.06 25.05 33.13 29.96 54.22 4.92 21.09 4.44 42.33-1.43 63.73-6.02 21.25-16.96 39.8-32.81 55.65Zm-41.86-41.85c7.29-7.3 12.21-16.02 14.75-26.16 2.37-10.31 2.21-20.61-.48-30.92-2.85-10.46-8.09-19.5-15.7-27.11-7.61-7.61-16.56-12.76-26.87-15.46-10.3-2.69-20.53-2.77-30.68-.23-10.3 2.37-19.1 7.21-26.39 14.5-7.3 7.3-12.13 16.09-14.51 26.4-2.54 10.15-2.46 20.37.24 30.68 2.69 10.3 7.84 19.26 15.45 26.87 7.61 7.61 16.65 12.84 27.12 15.7 10.3 2.69 20.61 2.85 30.91.47 10.15-2.53 18.87-7.45 26.16-14.74Zm110.88-277.353-48.27 48.273-41.15-41.14 142.69-142.687 41.14 41.142-48.27 48.276 122.23 122.239-46.13 46.13-122.24-122.233ZM4543.38 5286.68l46.14-46.14 64.44 64.45-9.51-119.39 54.46-54.46 7.85 128.66 160.29 29.97-55.18 55.17-103.92-19.74 1.66 35.44 43.29 43.28-46.14 46.13-163.38-163.37Zm457.93-125.47c-15.86 15.86-34.41 26.8-55.65 32.82-21.4 5.87-42.65 6.34-63.73 1.43-21.09-4.92-39.16-14.91-54.23-29.97-15.06-15.06-24.97-33.05-29.72-53.98-4.92-21.09-4.36-42.25 1.66-63.5 5.87-21.4 16.73-40.03 32.58-55.88 15.86-15.86 34.49-26.72 55.89-32.58 21.24-6.03 42.41-6.58 63.5-1.67 20.92 4.76 38.92 14.67 53.98 29.73 15.06 15.06 25.05 33.13 29.96 54.22 4.92 21.09 4.44 42.33-1.42 63.73-6.03 21.25-16.97 39.8-32.82 55.65Zm-41.86-41.85c7.3-7.3 12.21-16.02 14.75-26.16 2.38-10.31 2.22-20.61-.48-30.92-2.85-10.46-8.08-19.5-15.69-27.11-7.61-7.61-16.57-12.76-26.88-15.46-10.3-2.69-20.53-2.77-30.67-.24-10.31 2.38-19.11 7.22-26.4 14.51-7.29 7.29-12.13 16.09-14.51 26.4-2.54 10.14-2.46 20.37.24 30.68 2.69 10.3 7.85 19.26 15.46 26.87 7.61 7.61 16.64 12.84 27.11 15.69 10.3 2.7 20.61 2.86 30.91.48 10.15-2.54 18.87-7.45 26.16-14.74Zm110.88-277.35-48.27 48.27-41.14-41.14 142.68-142.69 41.15 41.14-48.28 48.28 122.24 122.24-46.14 46.13-122.24-122.23Zm365.29-115.11c-15.86 15.86-34.41 26.8-55.65 32.82-21.4 5.87-42.65 6.34-63.74 1.43-21.08-4.92-39.16-14.9-54.22-29.97-15.06-15.06-24.97-33.05-29.72-53.98-4.92-21.09-4.36-42.25 1.66-63.5 5.87-21.4 16.73-40.03 32.58-55.88 15.86-15.86 34.48-26.72 55.89-32.58 21.24-6.03 42.41-6.58 63.49-1.67 20.93 4.76 38.93 14.67 53.99 29.73 15.06 15.06 25.05 33.13 29.96 54.22 4.92 21.09 4.44 42.33-1.43 63.74-6.02 21.24-16.96 39.79-32.81 55.64Zm-41.86-41.85c7.29-7.3 12.21-16.01 14.75-26.16 2.37-10.31 2.22-20.61-.48-30.92-2.85-10.46-8.09-19.5-15.7-27.11-7.61-7.61-16.56-12.76-26.87-15.46-10.3-2.69-20.53-2.77-30.68-.23-10.3 2.37-19.1 7.21-26.39 14.5-7.3 7.3-12.13 16.09-14.51 26.4-2.54 10.15-2.46 20.37.24 30.68 2.69 10.3 7.85 19.26 15.46 26.87 7.61 7.61 16.64 12.84 27.11 15.7 10.3 2.69 20.61 2.85 30.91.47 10.15-2.53 18.87-7.45 26.16-14.74Zm-3237.58 793.82c7.3-7.3 12.21-16.02 14.75-26.16 2.38-10.31 2.22-20.61-.48-30.92-2.85-10.46-8.08-19.5-15.69-27.11-7.61-7.61-16.57-12.76-26.88-15.46-10.3-2.69-20.53-2.77-30.67-.24-10.31 2.38-19.11 7.22-26.4 14.51-7.3 7.29-12.13 16.09-14.51 26.4-2.54 10.14-2.46 20.37.24 30.68 2.69 10.3 7.85 19.26 15.46 26.87 7.61 7.61 16.64 12.84 27.11 15.69 10.3 2.7 20.61 2.86 30.91.48 10.15-2.54 18.87-7.45 26.16-14.74Zm281.08-197.37c-15.86 15.86-34.41 26.8-55.65 32.82-21.41 5.87-42.65 6.34-63.74 1.43-21.08-4.92-39.16-14.9-54.22-29.97-15.06-15.06-24.97-33.05-29.73-53.98-4.91-21.09-4.36-42.25 1.67-63.5 5.86-21.4 16.73-40.03 32.58-55.88 15.85-15.86 34.48-26.72 55.89-32.58 21.24-6.03 42.41-6.58 63.49-1.67 20.93 4.76 38.92 14.67 53.99 29.73 15.06 15.06 25.05 33.14 29.96 54.22 4.92 21.09 4.44 42.33-1.43 63.74-6.02 21.24-16.96 39.79-32.81 55.64Zm-41.86-41.85c7.29-7.29 12.21-16.01 14.74-26.16 2.38-10.31 2.22-20.61-.47-30.92-2.85-10.46-8.09-19.5-15.7-27.11-7.61-7.61-16.56-12.76-26.87-15.46-10.31-2.69-20.53-2.77-30.68-.23-10.3 2.37-19.1 7.21-26.4 14.5-7.29 7.3-12.12 16.1-14.5 26.4-2.54 10.15-2.46 20.37.24 30.68 2.69 10.3 7.84 19.26 15.45 26.87 7.61 7.61 16.65 12.84 27.11 15.7 10.31 2.69 20.62 2.85 30.92.47 10.15-2.53 18.87-7.45 26.16-14.74Zm204.26-208.54 76.1-76.1 41.14 41.14-122.24 122.24-163.37-163.38 46.13-46.14 122.24 122.24Zm256.27-168.28c-14.9 14.9-31.39 26.79-49.47 35.67-18.23 8.72-36.94 13.64-56.12 14.75l-4.99-56.37c30.28-3.64 54.93-14.98 73.96-34 6.18-6.19 9.98-11.89 11.41-17.13 1.27-5.39.08-9.9-3.57-13.55-2.53-2.54-5.31-3.73-8.32-3.57-2.85 0-6.5 1.27-10.94 3.81-4.6 2.38-12.37 6.97-23.31 13.79-17.12 10.78-31.78 18.79-43.99 24.02-12.37 5.07-24.42 6.98-36.15 5.71-11.89-1.43-23.23-7.53-34.01-18.31-10.78-10.79-17.59-22.83-20.45-36.15-2.69-13.48-1.42-27.27 3.81-41.38 5.39-14.27 14.5-27.83 27.35-40.67 27.26-27.27 57.47-42.73 90.6-46.37l9.52 55.65c-12.85 2.06-24.66 5.78-35.44 11.17-10.94 5.24-20.13 11.58-27.59 19.03-5.39 5.39-8.48 10.54-9.27 15.46-.95 4.75.16 8.72 3.33 11.89 2.85 2.85 5.94 4.36 9.27 4.52 3.17 0 7.46-1.27 12.85-3.81 5.23-2.69 12.84-7.29 22.83-13.79 16.96-10.94 31.63-18.95 43.99-24.02 12.53-5.23 24.34-7.06 35.44-5.47 11.25 1.43 21.88 7.13 31.86 17.12 17.13 17.12 24.42 36.62 21.88 58.5-2.38 21.72-13.87 42.89-34.48 63.5Zm-27.73-304.74 46.14-46.13 121.76 34.24-34.25-121.76 46.14-46.14 163.38 163.38-46.14 46.14-87.51-87.52 34.24 121.76-121.76-34.24 87.52 87.51-46.14 46.14-163.38-163.38Zm536.68-209.92-30.21-13.55-56.83 56.84 13.55 30.2-52.08 52.08-100.59-226.16 52.08-52.08 226.16 100.59-52.08 52.08Zm-107.97-3.8 30.68-30.68-54.94-24.49 24.26 55.17Zm64.59-279.58 46.14-46.13 64.44 64.45-9.51-119.39 54.46-54.46 7.85 128.66 160.29 29.97-55.18 55.17-103.92-19.74 1.66 35.43 43.28 43.29-46.13 46.13-163.38-163.38Zm457.93-125.46c-15.86 15.86-34.41 26.79-55.65 32.82-21.4 5.87-42.65 6.34-63.73 1.43-21.09-4.92-39.16-14.91-54.23-29.97-15.06-15.06-24.97-33.05-29.72-53.98-4.92-21.09-4.36-42.25 1.66-63.5 5.87-21.4 16.73-40.03 32.58-55.88 15.86-15.86 34.49-26.72 55.89-32.59 21.24-6.02 42.41-6.57 63.49-1.66 20.93 4.76 38.93 14.67 53.99 29.73 15.06 15.06 25.05 33.13 29.96 54.22 4.92 21.08 4.44 42.33-1.42 63.73-6.03 21.25-16.97 39.8-32.82 55.65Zm-41.86-41.85c7.3-7.3 12.21-16.02 14.75-26.16 2.38-10.31 2.22-20.61-.48-30.92-2.85-10.46-8.08-19.5-15.69-27.11-7.61-7.61-16.57-12.76-26.88-15.46-10.3-2.69-20.53-2.77-30.68-.24-10.3 2.38-19.1 7.22-26.39 14.51-7.3 7.29-12.13 16.09-14.51 26.4-2.54 10.14-2.46 20.37.24 30.68 2.69 10.3 7.85 19.26 15.46 26.87 7.61 7.61 16.64 12.84 27.11 15.69 10.3 2.7 20.61 2.86 30.91.48 10.15-2.54 18.87-7.45 26.16-14.74Zm110.88-277.36-48.27 48.28-41.14-41.14 142.68-142.69 41.15 41.14-48.28 48.28 122.24 122.24-46.14 46.13-122.24-122.24Zm365.29-115.1c-15.86 15.86-34.41 26.8-55.65 32.82-21.41 5.87-42.65 6.34-63.74 1.43-21.08-4.92-39.16-14.9-54.22-29.97-15.06-15.06-24.97-33.05-29.72-53.98-4.92-21.09-4.36-42.25 1.66-63.5 5.87-21.4 16.73-40.03 32.58-55.88 15.85-15.86 34.48-26.72 55.89-32.58 21.24-6.03 42.41-6.58 63.49-1.67 20.93 4.76 38.93 14.67 53.99 29.73 15.06 15.06 25.05 33.13 29.96 54.22 4.92 21.09 4.44 42.33-1.43 63.73-6.02 21.25-16.96 39.8-32.81 55.65Zm-41.86-41.85c7.29-7.3 12.21-16.02 14.75-26.16 2.37-10.31 2.21-20.61-.48-30.92-2.85-10.46-8.09-19.5-15.7-27.11-7.61-7.61-16.56-12.76-26.87-15.46-10.3-2.69-20.53-2.77-30.68-.23-10.3 2.37-19.1 7.21-26.39 14.5-7.3 7.3-12.13 16.09-14.51 26.4-2.54 10.15-2.46 20.37.24 30.68 2.69 10.3 7.85 19.26 15.46 26.87 7.61 7.61 16.64 12.84 27.11 15.7 10.3 2.69 20.61 2.85 30.91.47 10.15-2.53 18.87-7.45 26.16-14.74Zm281.07-197.36c-15.85 15.85-34.4 26.79-55.65 32.81-21.4 5.87-42.64 6.35-63.73 1.43-21.09-4.91-39.16-14.9-54.22-29.96-15.06-15.06-24.97-33.06-29.73-53.99-4.91-21.08-4.36-42.25 1.67-63.49 5.86-21.41 16.72-40.04 32.58-55.89 15.85-15.85 34.48-26.71 55.88-32.58 21.25-6.02 42.41-6.58 63.5-1.66 20.93 4.75 38.92 14.66 53.98 29.72 15.07 15.06 25.05 33.14 29.97 54.22 4.91 21.09 4.44 42.33-1.43 63.74-6.02 21.24-16.96 39.79-32.82 55.65Zm-41.85-41.86c7.29-7.29 12.21-16.01 14.74-26.16 2.38-10.3 2.22-20.61-.47-30.91-2.86-10.47-8.09-19.51-15.7-27.12-7.61-7.61-16.57-12.76-26.87-15.45-10.31-2.7-20.53-2.78-30.68-.24-10.31 2.38-19.1 7.21-26.4 14.51-7.29 7.29-12.13 16.09-14.5 26.39-2.54 10.15-2.46 20.38.23 30.68 2.7 10.31 7.85 19.26 15.46 26.87 7.61 7.61 16.65 12.85 27.11 15.7 10.31 2.69 20.61 2.85 30.92.48 10.14-2.54 18.87-7.46 26.16-14.75Zm204.26-208.54 76.1-76.1 41.14 41.14-122.24 122.24-163.38-163.38 46.14-46.13 122.24 122.23Zm256.27-168.28c-14.91 14.91-31.4 26.8-49.47 35.67-18.23 8.72-36.94 13.64-56.12 14.75l-5-56.36c30.28-3.65 54.94-14.98 73.96-34.01 6.19-6.18 9.99-11.89 11.42-17.12 1.27-5.39.08-9.91-3.57-13.56-2.54-2.53-5.31-3.72-8.32-3.57-2.86 0-6.5 1.27-10.94 3.81-4.6 2.38-12.37 6.98-23.31 13.79-17.12 10.78-31.79 18.79-43.99 24.02-12.37 5.08-24.42 6.98-36.15 5.71-11.89-1.43-23.23-7.53-34.01-18.31-10.78-10.78-17.6-22.83-20.45-36.15-2.7-13.48-1.43-27.27 3.8-41.38 5.39-14.27 14.51-27.82 27.35-40.67 27.27-27.27 57.47-42.72 90.61-46.37l9.51 55.65c-12.84 2.06-24.65 5.79-35.43 11.18-10.94 5.23-20.14 11.57-27.59 19.02-5.39 5.39-8.48 10.54-9.27 15.46-.95 4.76.16 8.72 3.33 11.89 2.85 2.85 5.94 4.36 9.27 4.52 3.17 0 7.45-1.27 12.84-3.81 5.24-2.69 12.85-7.29 22.83-13.79 16.97-10.94 31.63-18.95 44-24.02 12.52-5.23 24.34-7.05 35.43-5.47 11.26 1.43 21.88 7.14 31.87 17.12 17.12 17.13 24.42 36.63 21.88 58.51-2.38 21.72-13.87 42.88-34.48 63.49Zm-27.73-304.74 46.14-46.13 121.76 34.24-34.25-121.76 46.14-46.13 163.38 163.38-46.14 46.13-87.52-87.51 34.25 121.76-121.76-34.25 87.51 87.52-46.13 46.13-163.38-163.38Zm536.68-209.91-30.21-13.56-56.83 56.84 13.55 30.2-52.08 52.08-100.6-226.16 52.09-52.08 226.16 100.59-52.08 52.09Zm-107.97-3.81 30.68-30.68-54.94-24.49 24.26 55.17ZM3281.46 5326.72l46.13-46.14 121.77 34.25-34.25-121.76 46.14-46.14 163.37 163.38-46.13 46.13-87.52-87.51 34.25 121.76-121.76-34.25 87.51 87.52-46.13 46.14-163.38-163.38Zm536.67-209.92-30.2-13.56-56.84 56.84 13.56 30.2-52.08 52.09-100.6-226.17 52.08-52.08 226.16 100.6-52.08 52.08Zm-107.97-3.81 30.68-30.67-54.93-24.5 24.25 55.17Zm64.6-279.57 46.13-46.14 64.45 64.45-9.51-119.38 54.46-54.46 7.84 128.66 160.29 29.96-55.17 55.17-103.93-19.73 1.67 35.43 43.28 43.28-46.14 46.14-163.37-163.38Zm457.92-125.46c-15.85 15.85-34.4 26.79-55.65 32.81-21.4 5.87-42.64 6.35-63.73 1.43-21.09-4.91-39.16-14.9-54.22-29.96-15.06-15.06-24.97-33.06-29.73-53.99-4.91-21.08-4.36-42.25 1.67-63.49 5.86-21.41 16.72-40.04 32.58-55.89 15.85-15.85 34.48-26.71 55.88-32.58 21.25-6.03 42.41-6.58 63.5-1.67 20.93 4.76 38.92 14.67 53.98 29.73 15.07 15.06 25.05 33.14 29.97 54.22 4.91 21.09 4.44 42.33-1.43 63.74-6.02 21.24-16.96 39.79-32.82 55.65Zm-41.85-41.86c7.29-7.29 12.21-16.01 14.74-26.16 2.38-10.3 2.22-20.61-.47-30.91-2.86-10.47-8.09-19.51-15.7-27.12-7.61-7.61-16.57-12.76-26.87-15.45-10.31-2.7-20.53-2.78-30.68-.24-10.31 2.38-19.1 7.21-26.4 14.51-7.29 7.29-12.13 16.09-14.5 26.39-2.54 10.15-2.46 20.38.23 30.68 2.7 10.31 7.85 19.26 15.46 26.87 7.61 7.61 16.65 12.85 27.11 15.7 10.31 2.69 20.61 2.85 30.92.48 10.15-2.54 18.87-7.46 26.16-14.75Zm110.88-277.35-48.28 48.28-41.14-41.15 142.69-142.68 41.14 41.14-48.27 48.27 122.23 122.24-46.13 46.14-122.24-122.24Zm365.28-115.1c-15.85 15.85-34.4 26.79-55.65 32.82-21.4 5.86-42.64 6.34-63.73 1.42-21.09-4.91-39.16-14.9-54.22-29.96-15.06-15.06-24.97-33.06-29.73-53.99-4.91-21.08-4.36-42.25 1.67-63.49 5.86-21.4 16.72-40.03 32.58-55.89 15.85-15.85 34.48-26.71 55.88-32.58 21.25-6.02 42.41-6.58 63.5-1.66 20.93 4.75 38.92 14.66 53.98 29.72 15.06 15.07 25.05 33.14 29.97 54.23 4.91 21.08 4.44 42.33-1.43 63.73-6.02 21.24-16.96 39.79-32.82 55.65Zm-41.85-41.86c7.29-7.29 12.2-16.01 14.74-26.16 2.38-10.3 2.22-20.61-.47-30.91-2.86-10.47-8.09-19.5-15.7-27.11-7.61-7.61-16.57-12.77-26.87-15.46-10.31-2.7-20.53-2.78-30.68-.24-10.31 2.38-19.11 7.21-26.4 14.51-7.29 7.29-12.13 16.09-14.51 26.39-2.53 10.15-2.45 20.38.24 30.68 2.7 10.31 7.85 19.27 15.46 26.88 7.61 7.61 16.65 12.84 27.11 15.69 10.31 2.7 20.61 2.86 30.92.48 10.14-2.54 18.86-7.45 26.16-14.75Zm281.07-197.36c-15.86 15.86-34.41 26.79-55.65 32.82-21.4 5.87-42.65 6.34-63.73 1.43-21.09-4.92-39.16-14.91-54.23-29.97-15.06-15.06-24.97-33.05-29.72-53.98-4.92-21.09-4.36-42.25 1.66-63.5 5.87-21.4 16.73-40.03 32.58-55.89 15.86-15.85 34.49-26.71 55.89-32.57 21.24-6.03 42.41-6.58 63.5-1.67 20.92 4.76 38.92 14.67 53.98 29.73 15.06 15.06 25.05 33.13 29.96 54.22 4.92 21.08 4.44 42.33-1.42 63.73-6.03 21.25-16.97 39.8-32.82 55.65Zm-41.86-41.85c7.3-7.3 12.21-16.02 14.75-26.16 2.38-10.31 2.22-20.61-.48-30.92-2.85-10.46-8.08-19.5-15.69-27.11-7.61-7.61-16.57-12.76-26.88-15.46-10.3-2.69-20.53-2.77-30.67-.24-10.31 2.38-19.11 7.22-26.4 14.51-7.29 7.29-12.13 16.09-14.51 26.4-2.54 10.14-2.46 20.37.24 30.68 2.69 10.3 7.85 19.26 15.46 26.87 7.61 7.61 16.64 12.84 27.11 15.69 10.3 2.7 20.61 2.86 30.91.48 10.15-2.54 18.87-7.45 26.16-14.74Zm204.26-208.54 76.1-76.1 41.14 41.14-122.23 122.23-163.38-163.37 46.13-46.14 122.24 122.24Zm256.27-168.28c-14.9 14.9-31.39 26.79-49.46 35.67-18.24 8.72-36.94 13.63-56.13 14.74l-4.99-56.36c30.28-3.64 54.93-14.98 73.96-34 6.18-6.19 9.99-11.9 11.41-17.13 1.27-5.39.08-9.91-3.56-13.55-2.54-2.54-5.31-3.73-8.33-3.57-2.85 0-6.5 1.27-10.94 3.8-4.59 2.38-12.36 6.98-23.3 13.8-17.13 10.78-31.79 18.79-44 24.02-12.36 5.07-24.41 6.97-36.15 5.7-11.89-1.42-23.22-7.53-34-18.31-10.78-10.78-17.6-22.83-20.46-36.14-2.69-13.48-1.42-27.27 3.81-41.38 5.39-14.27 14.51-27.83 27.35-40.67 27.27-27.27 57.47-42.73 90.61-46.37l9.51 55.64c-12.84 2.07-24.65 5.79-35.44 11.18-10.94 5.23-20.13 11.58-27.58 19.03-5.39 5.39-8.48 10.54-9.28 15.45-.95 4.76.16 8.72 3.33 11.89 2.86 2.86 5.95 4.36 9.28 4.52 3.17 0 7.45-1.26 12.84-3.8 5.23-2.7 12.84-7.29 22.83-13.79 16.96-10.94 31.63-18.95 44-24.02 12.52-5.24 24.33-7.06 35.43-5.47 11.26 1.42 21.88 7.13 31.87 17.12 17.12 17.12 24.41 36.62 21.87 58.5-2.37 21.72-13.87 42.89-34.48 63.5Z"/>
  </g>
  <defs>
    <clipPath id="a">
      <path fill="#fff" d="M0 0h5266v5266H0z"/>
    </clipPath>
  </defs>
</svg>
