<svg xmlns="http://www.w3.org/2000/svg" width="903" height="240" fill="none" viewBox="0 0 903 240">
  <path fill="#F4F6FF" d="M298.052 192.424c-.114.281-.206.051-.206-.512 0-.562.092-.792.206-.511.113.282.113.742 0 1.023Zm-1.293-11.962c.139.225.057.409-.181.409s-.433-.184-.433-.409c0-.225.081-.409.181-.409.099 0 .294.184.433.409Z"/>
  <path fill="#F4F6FF" fill-rule="evenodd" d="M184.607 130.85c1.406-.404 4.764-1.9 7.463-3.324s5.184-2.603 5.521-2.619c.337-.015 1.349.91 2.249 2.057.9 1.147 2.418 2.743 3.374 3.546l1.738 1.462v80.724l-1.661.281c-.914.154-2.892.902-4.396 1.661-1.505.759-3.733 2.305-4.952 3.436-1.218 1.13-2.255 2.055-2.303 2.055-.049 0-.179-.349-.291-.776-.111-.427-.696-1.1-1.3-1.495-.75-.492-2.475-.831-5.467-1.076-2.404-.196-5.429-.624-6.722-.95-1.293-.326-3.087-.968-3.986-1.427-.899-.459-2.645-1.86-3.879-3.114-1.233-1.253-2.799-3.412-3.479-4.797-.68-1.385-1.508-3.806-1.84-5.38-.366-1.733-.607-5.138-.611-8.625-.005-4.377.183-6.505.784-8.855.435-1.701 1.282-4.062 1.882-5.246.6-1.183 2.038-3.153 3.195-4.377 1.158-1.224 2.977-2.668 4.044-3.208 1.067-.541 3.092-1.246 4.499-1.568 1.408-.322 4.399-.716 6.647-.876 3.824-.273 4.159-.369 5.213-1.499l1.128-1.206v-15.069c0-10.464-.144-15.382-.469-16.097-.266-.583-1.02-1.201-1.738-1.423-.698-.216-2.603-.516-4.234-.667-1.631-.15-2.965-.395-2.965-.544 0-.149 1.151-.601 2.556-1.004ZM9.479 128.118v-2.863h56.88l-.144 35.271c-.14 34.187-.171 35.388-1.01 39.061-.477 2.085-1.185 4.753-1.574 5.93-.543 1.645-1.391 2.826-3.667 5.107-1.87 1.875-3.772 3.339-5.164 3.976-1.212.555-3.485 1.194-5.053 1.421-1.567.226-6.848.415-11.735.42-8.452.007-9.016.057-11.581 1.022-1.482.559-3.28 1.415-3.996 1.903-.716.489-2.175 1.728-3.243 2.753l-1.943 1.864v-46.732c0-34.422-.124-46.968-.47-47.626-.259-.492-.673-1.029-.92-1.194-.248-.165-1.784-.303-3.415-.307l-2.965-.006Zm24.946 85.042v-42.521c0-23.387-.144-42.521-.318-42.521-.175 0-.712.276-1.194.613-.481.337-1.258 1.233-1.726 1.991-.847 1.37-.852 1.586-.852 39.88v38.503l1.038 1.569c.57.863 1.491 1.775 2.045 2.027l1.007.459Zm18.537-82.064c-.376-.791-1.25-1.784-1.943-2.207-1.081-.659-2.111-.768-7.291-.769l-6.032-.002v85.132l4.543-.139 4.542-.138 1.801-2.045c.99-1.125 2.35-3.149 3.021-4.498.922-1.852 1.32-3.406 1.624-6.339.228-2.193.407-17.753.41-35.72.007-28.9-.055-31.968-.675-33.275Zm60.081 32.768c1.631-.551 5.173-2.173 7.872-3.603l4.907-2.601 3.559 3.733 3.558 3.734.02 21.685c.017 18.599.107 21.81.634 22.561.337.482 1.144.994 1.793 1.136.869.191 2.638-.296 6.737-1.853 5.313-2.019 5.568-2.168 5.793-3.396.13-.706.18-9.422.112-19.368-.12-17.657-.143-18.105-.969-18.931-.654-.653-1.746-.947-4.815-1.296-2.182-.248-3.887-.533-3.786-.633.099-.099 1.622-.682 3.383-1.293 1.761-.613 5.309-2.257 7.886-3.656l4.685-2.541 1.027 1.338c.565.737 2.105 2.474 3.424 3.862l2.397 2.522-.174 18.947c-.16 17.564-.238 19.237-1.058 22.913-.487 2.182-1.456 5.586-2.154 7.566-.697 1.98-1.883 4.887-2.636 6.461-.753 1.575-2.156 4.059-3.119 5.521-.962 1.462-3.132 4.108-4.822 5.879s-4.226 4.044-5.636 5.05c-1.57 1.122-2.812 1.734-3.207 1.583-.557-.213-.506-.483.372-1.983.558-.955 1.932-3.577 3.052-5.826 1.121-2.249 2.335-5.01 2.699-6.134.363-1.125 1.024-3.793 1.468-5.93.444-2.136.932-4.943 1.083-6.236.178-1.515.127-2.351-.144-2.351-.231 0-2.599.751-5.263 1.67-2.664.918-6.871 2.59-9.349 3.714-2.477 1.125-4.822 2.142-5.209 2.26-.465.142-1.09-.253-1.836-1.159-.621-.755-2.092-2.396-3.268-3.645l-2.138-2.272-.117-21.465c-.104-19.358-.184-21.569-.808-22.522-.427-.651-1.211-1.145-2.045-1.288-.744-.128-2.595-.356-4.113-.506l-2.76-.275V209.4l-1.942.482c-1.069.265-2.915.923-4.102 1.463-1.188.54-3.26 2.03-4.604 3.312-1.344 1.282-2.51 2.255-2.59 2.163-.08-.092-.37-.597-.643-1.122-.274-.525-1.12-1.215-1.883-1.533-.761-.318-2.725-.582-4.363-.586-1.638-.004-4.245-.275-5.793-.603-1.549-.328-3.643-.997-4.654-1.487-1.011-.49-2.79-1.842-3.953-3.004-1.163-1.163-2.59-2.93-3.173-3.925-.582-.996-1.444-3.065-1.916-4.598-.472-1.532-1.05-4.816-1.284-7.296-.287-3.048-.293-5.796-.018-8.476.224-2.18.774-5.153 1.223-6.607.449-1.453 1.478-3.746 2.288-5.095.808-1.35 2.241-3.244 3.183-4.211.943-.966 2.634-2.203 3.758-2.748 1.125-.545 3.15-1.274 4.499-1.621 1.35-.346 4.219-.746 6.377-.888 2.159-.141 4.593-.132 5.41.022.816.153 2.297.899 3.29 1.657l1.806 1.378 2.001-.927c1.101-.51 3.145-1.986 4.542-3.279l2.541-2.353v5.348l2.965-1.002Zm94.874 1.74c1.406-.407 4.764-1.897 7.463-3.311 2.699-1.415 5.149-2.598 5.445-2.629.295-.032 1.03.54 1.632 1.271.603.731 2.012 2.31 3.132 3.509 1.758 1.884 2.193 2.149 3.189 1.949.635-.126 2.572-.794 4.306-1.483 1.733-.689 4.74-2.164 6.68-3.278 1.941-1.114 3.628-2.026 3.749-2.026.122 0 1.968 1.913 4.105 4.25l3.883 4.251 1.087-1.135c.598-.624 1.962-1.61 3.031-2.192 1.068-.581 3.033-1.365 4.366-1.741 1.889-.533 4.83-.726 13.362-.875 10.454-.183 10.939-.157 10.935.568-.003.418-.618 2.783-1.369 5.258-.75 2.474-1.944 5.88-2.651 7.569-.769 1.834-2.603 4.825-4.555 7.424-1.797 2.394-4.942 6.026-6.988 8.072-2.046 2.046-3.977 3.72-4.292 3.72-.361 0 .187-1.161 1.488-3.155 1.133-1.735 2.691-4.486 3.464-6.114.772-1.627 1.866-4.553 2.43-6.501.565-1.948 1.027-4.497 1.027-5.665 0-1.471-.33-2.784-1.072-4.274-.701-1.407-1.618-2.496-2.65-3.147-1.018-.643-2.181-.997-3.276-.997-1.408 0-1.927.243-3.039 1.422-.783.83-1.69 2.489-2.182 3.987-.462 1.411-1.044 3.762-1.293 5.224-.249 1.462-.554 6.246-.678 10.632-.137 4.838-.042 9.654.241 12.243.257 2.348.677 4.972.935 5.831.257.858 1.102 2.302 1.877 3.208.776.906 2.172 2.045 3.104 2.532 1.173.612 2.407.879 4.01.869 1.655-.011 2.951-.326 4.543-1.105 1.225-.599 3.164-2.081 4.309-3.292 1.8-1.902 2.234-2.707 3.198-5.927.613-2.05 1.266-3.726 1.451-3.726.185 0 .336 3.772.336 8.383v8.383l-9.303-.006c-6.893-.004-9.992-.168-11.962-.631-1.462-.343-4.004-1.288-5.648-2.099-1.645-.812-3.794-2.257-4.776-3.211-.983-.955-2.271-2.693-2.864-3.863s-1.449-3.536-1.902-5.258c-.528-2.003-.9-5.043-1.034-8.446-.115-2.924-.027-6.42.196-7.77.223-1.349.345-2.516.272-2.594-.072-.077-.397.383-.72 1.023-.324.639-.819 2.407-1.1 3.928-.281 1.521-.654 2.853-.827 2.96-.174.108-.44-.676-.591-1.743-.15-1.066-.74-3.502-1.31-5.414-.571-1.912-1.683-4.71-2.472-6.22-.789-1.509-2.057-3.218-2.817-3.798-.761-.58-2.352-1.506-3.537-2.057-1.184-.552-2.568-1.005-3.074-1.007l-.92-.004v45.729l-1.611.273c-.886.149-2.865.881-4.396 1.625-1.675.814-3.593 2.186-4.814 3.444-1.116 1.15-2.174 2.091-2.351 2.091-.178 0-.328-11.456-.336-25.456-.01-20.779-.115-25.591-.567-26.188-.305-.402-1.096-.886-1.758-1.076-.662-.19-2.522-.477-4.135-.639-1.613-.162-2.932-.416-2.932-.565 0-.149 1.15-.603 2.556-1.01Zm111.895-.897c1.098-.598 2.894-1.999 3.99-3.112l1.991-2.024.119 3.289c.065 1.809.174 3.289.243 3.289.068 0 1.171-.36 2.452-.801 1.28-.44 4.546-1.947 7.256-3.348l4.928-2.547 2.992 3.203c2.833 3.033 3.064 3.189 4.36 2.944.753-.142 4-1.581 7.217-3.198l5.848-2.941 2.982 3.234 2.983 3.235 2.415-.749c1.328-.412 4.56-1.876 7.181-3.254l4.767-2.504 3.496 3.67 3.496 3.67.019 23.11.018 23.11-2.658.761c-1.461.419-3.497 1.293-4.522 1.944-1.026.651-2.77 2.029-3.877 3.064l-2.011 1.881-.111-25.595c-.11-25.421-.117-25.601-.974-26.458-.617-.617-1.577-.927-3.374-1.09l-2.511-.228v45.843l-1.592.269c-.876.148-2.736.81-4.132 1.47-1.397.661-3.717 2.234-5.155 3.498l-2.616 2.296v-50.762l-.924-1.076c-.757-.879-1.39-1.117-3.476-1.306l-2.552-.232v45.843l-1.592.269c-.876.148-2.727.806-4.114 1.461-1.386.656-3.585 2.207-4.885 3.448-1.3 1.24-2.486 2.255-2.634 2.255-.148 0-.27-11.309-.27-25.13 0-18.035-.132-25.422-.469-26.161-.267-.586-1.015-1.196-1.738-1.415-.698-.213-2.419-.503-3.824-.646l-2.556-.259.005 7.278.005 7.279 1.408.912c.949.615 1.55 1.416 1.842 2.454.238.848.706 1.899 1.04 2.335.334.437.607 1.111.607 1.498 0 .386-.566 1.179-1.258 1.762-.692.582-1.576 1.058-1.963 1.058-.388 0-.926.221-1.196.491-.27.27-.49 1.015-.49 1.656s.26 1.669.578 2.284c.318.615.71 1.848.871 2.74.161.892.898 2.634 1.638 3.871.739 1.237 1.467 2.855 1.618 3.595.171.838.087 1.571-.221 1.942-.272.328-1.106.597-1.852.597-.747 0-1.471-.184-1.61-.409-.139-.225-.426-.409-.638-.409-.211 0-.384.344-.384.765 0 .565-.507.902-1.943 1.294-1.068.29-2.867.93-3.998 1.421-1.131.491-3.206 1.958-4.613 3.26-1.407 1.303-2.598 2.297-2.647 2.21a3.049 3.049 0 0 1-.05-.091l-.057-.103c-.103-.189-.262-.483-.422-.782-.242-.45-1.07-1.139-1.841-1.532-.959-.49-2.367-.718-4.467-.723-1.687-.004-4.29-.267-5.784-.584-1.495-.316-3.519-.977-4.499-1.468-.979-.49-2.459-1.541-3.287-2.335l-1.505-1.444-.804 1.322c-.442.726-1.035 2.178-1.318 3.225-.283 1.047-.679 2.117-.88 2.378-.201.262-.954.446-1.675.409-1.092-.055-1.329-.246-1.434-1.151-.069-.596.448-2.528 1.149-4.293.7-1.765 1.386-3.469 1.524-3.788.15-.348.076-.471-.185-.309-.299.184-.331-.19-.105-1.194.221-.982.151-1.892-.215-2.767-.299-.717-.835-2.838-1.191-4.713-.356-1.876-.647-5.046-.647-7.045 0-2.234.163-3.636.423-3.636.281 0 .27-.286-.033-.853-.285-.533-.351-1.647-.173-2.965.156-1.161.718-3.492 1.249-5.178.531-1.687 1.685-4.157 2.563-5.488 1.563-2.37 1.584-2.451.998-3.852-.436-1.046-.485-1.677-.18-2.346.24-.528.945-1.031 1.666-1.189.815-.179 1.705-.047 2.558.378 1.219.608 1.475.597 3.786-.166 1.363-.45 3.766-1.002 5.341-1.226 1.574-.225 4.172-.412 5.772-.416 2.527-.007 3.293.184 5.825 1.45l2.915 1.458 1.998-1.087ZM96.434 168.71c-.357-.69-1.273-1.641-2.036-2.112-1.03-.637-2.058-.857-3.997-.856-2.106.002-2.82.18-3.701.921-.6.505-1.46 1.665-1.911 2.578-.451.913-1.103 2.753-1.448 4.089-.346 1.336-.844 4.638-1.107 7.337-.273 2.789-.386 7.643-.263 11.245.12 3.487.523 7.811.896 9.61.374 1.8 1.21 4.422 1.86 5.827.649 1.406 1.677 3.016 2.284 3.578.663.614 1.59 1.023 2.32 1.023.86 0 1.66-.447 2.74-1.533.888-.894 1.907-2.557 2.441-3.987.505-1.35 1.193-3.742 1.53-5.316.448-2.091.671-6.677.828-17.006.187-12.395.133-14.298-.436-15.398Zm214.433-1.739c0-.155-.469-.495-1.042-.756-.573-.261-2.122-.475-3.444-.475-1.975 0-2.623.185-3.634 1.036l-1.23 1.035 1.802 1.854 1.801 1.853 1.218-1.386c.669-.763 1.962-1.723 2.873-2.133.911-.411 1.656-.874 1.656-1.028Zm-18.675-.549c.15.15.395.15.545 0 .15-.15.027-.273-.272-.273-.3 0-.423.123-.273.273Zm24.398 4.868c-.002-.691-.192-1.939-.424-2.775-.232-.835-.58-1.616-.773-1.735-.193-.12-.462.073-.598.428-.136.354-.252 1.227-.257 1.94-.005.712-.382 2.118-.838 3.124-.456 1.006-1.051 1.969-1.32 2.141-.27.171-.631.314-.803.318-.171.003-.014-.684.349-1.528.364-.843.84-2.149 1.058-2.901.218-.752.309-1.454.202-1.56-.106-.107-1.085.262-2.176.819-1.091.558-2.386 1.395-2.877 1.86-.543.513-.975 1.531-1.1 2.592-.114.96-.185 2.482-.159 3.382.027.9-.139 2.801-.37 4.225l-.418 2.588 1.47-1.608c.809-.884 2.223-1.992 3.142-2.461.919-.469 2.329-1.51 3.132-2.313.804-.803 1.754-2.32 2.111-3.37.358-1.05.65-2.475.649-3.166Zm-15.947-1.364c-.562-.513-1.535-1.213-2.162-1.556-.627-.342-1.812-.675-2.634-.74l-1.494-.117 1.345 1.037c.74.571 2.126 2.058 3.079 3.306.953 1.247 2.231 3.126 2.841 4.176.609 1.049 1.27 2.475 1.469 3.169.268.933.228 1.261-.153 1.261-.284 0-1.213-1.372-2.064-3.049-.851-1.677-2.55-4.157-3.775-5.511s-2.79-2.862-3.476-3.351c-1.237-.88-1.245-.881-.793-.036.251.468.457 1.223.457 1.677 0 .453.196 1.742.437 2.863.385 1.796.878 2.477 4.129 5.707 2.754 2.735 3.632 3.859 3.455 4.422-.131.415.036 1.657.369 2.762.333 1.104.606 2.99.606 4.191v2.184l2.352-.02c1.293-.012 3.838-.344 5.654-.739 1.854-.404 3.738-.592 4.294-.43.545.16 2.513.712 4.373 1.227l3.382.938 1.934-1.867c1.064-1.027 2.283-2.051 2.71-2.276.666-.351.435-.537-1.622-1.306-1.319-.494-3.313-1.071-4.431-1.283-1.519-.288-2.634-.232-4.409.223-1.307.335-3.139.998-4.071 1.473-.932.476-2.587 1.492-3.677 2.258-1.09.766-2.168 1.393-2.395 1.393-.227 0-.413-.242-.413-.539 0-.297.414-.895.92-1.329.506-.434 2.392-1.552 4.191-2.485 1.8-.932 4.1-1.931 5.112-2.22 1.012-.289 1.963-.539 2.113-.554.15-.016.399-.155.553-.31.155-.154.768-.083 1.363.158.596.241 1.574.412 2.174.379.601-.033 1.381.23 1.735.584.354.354.841.521 1.083.372.242-.15.673.048.959.439.286.391.702.639.926.552.247-.096.279-.64.081-1.385-.239-.902-.758-1.414-1.961-1.935-.899-.39-2.24-.749-2.979-.798-.739-.05-1.804-.419-2.366-.822-.563-.402-2.08-.943-3.372-1.201-1.985-.396-2.624-.364-4.114.205-.97.371-2.792 1.655-4.051 2.854-1.258 1.2-2.875 3.222-3.593 4.495-.718 1.272-1.472 2.314-1.676 2.314-.203 0-.37-.288-.37-.64 0-.352.357-1.502.793-2.556.436-1.054.992-3.501 1.235-5.438.325-2.592.317-4.104-.028-5.725-.277-1.301-.992-2.872-1.745-3.836-.703-.898-1.737-2.052-2.3-2.565Zm-112.892 2.024c-.474-.604-1.26-1.322-1.747-1.595-.487-.273-1.385-.503-1.996-.511-.671-.009-1.675.481-2.536 1.237-.868.762-1.769 2.161-2.305 3.578-.485 1.28-1.162 3.799-1.506 5.599-.429 2.249-.64 6.083-.673 12.268-.039 7.303.092 9.651.698 12.472.41 1.912 1.289 4.617 1.953 6.011.664 1.394 1.687 2.912 2.274 3.374.587.461 1.519.839 2.073.839.553 0 1.498-.29 2.098-.645.6-.355 1.497-1.263 1.993-2.019.495-.756 1.262-2.447 1.703-3.758.442-1.31 1.023-4.036 1.292-6.057.322-2.413.409-6.551.255-12.057-.138-4.919-.485-9.567-.84-11.246-.334-1.575-.892-3.657-1.241-4.627-.349-.971-1.022-2.259-1.495-2.863Zm107.498 7.301c.07-.009.013-.2-.126-.425-.139-.225-.932-.408-1.762-.407-.83.001-2.108.366-2.839.812-.731.446-1.329.89-1.329.988 0 .097.598.021 1.329-.17a29.644 29.644 0 0 1 2.965-.565c.9-.12 1.693-.225 1.762-.233Zm1.329 1.62c.238 0 .32-.184.181-.409-.139-.225-.334-.409-.433-.409-.1 0-.181.184-.181.409 0 .225.195.409.433.409Zm-2.009.648c-1.506.158-2.105.093-1.918-.209.149-.241.122-.431-.06-.421-.182.01-1.067.279-1.967.598-.899.319-1.957.976-2.351 1.459-.393.483-.716 1.042-.716 1.242 0 .2.875.365 1.943.366 1.068.001 2.663.202 3.543.447.88.244 1.826.669 2.101.945.276.276 1.065.975 1.754 1.555.687.579 1.588 1.608 2.001 2.287.508.835.699 1.774.591 2.906-.088.92-.324 1.672-.525 1.672s-.366-.197-.366-.439c0-.241-.237-.379-.528-.306-.29.072-2.064 1.788-3.943 3.812s-3.665 4.273-3.971 4.996c-.305.724-.555 1.69-.555 2.147 0 .458.169.831.376.831.206 0 .666-.111 1.022-.248.356-.136.647-.429.647-.65 0-.221.414-.747.92-1.169.506-.423 1.147-.774 1.426-.782.278-.007 1.126-.69 1.885-1.518.855-.933 1.305-1.786 1.186-2.245-.107-.407-.386-.621-.62-.476-.249.154-.303.064-.129-.216.163-.263.451-.383.64-.266.19.117.887-.478 1.549-1.322.662-.844 1.421-1.951 1.687-2.459.266-.507.5-2.256.519-3.886.025-2.222-.209-3.576-.936-5.405-.637-1.601-1.322-2.618-1.993-2.958-.65-.329-1.82-.433-3.212-.288Zm3.277 10.393c0 .563.092.793.206.512a1.586 1.586 0 0 0 0-1.023c-.114-.281-.206-.051-.206.511Zm18.365 2.115c1.15-.557 1.215-.671.538-.937-.424-.166-2.013-.315-3.531-.331-1.586-.016-2.76.145-2.76.38 0 .225.322.417.716.427.393.01 1.393.26 2.222.556 1.288.46 1.696.446 2.815-.095Zm3.641.463c.106-.092-.078-.339-.409-.549-.331-.209-.694-.365-.806-.346-.113.019-.665.169-1.227.333-.92.268-.858.32.613.515.9.119 1.723.14 1.829.047Zm-7.061 4.536c-1.009-1.373-2.382-2.886-3.053-3.363-.67-.477-1.722-1.059-2.337-1.293-1.023-.389-.963-.251.697 1.595.999 1.111 2.106 2.816 2.459 3.789.352.973.889 2.595 1.191 3.606.447 1.493.933 2.087 2.59 3.169 1.122.732 2.155 1.332 2.295 1.332.139 0 .396-.966.57-2.147.174-1.181.317-2.607.317-3.169 0-.562-.438-1.932-.975-3.043-.698-1.447-1.498-2.338-2.815-3.137-1.013-.614-2.025-1.125-2.25-1.135-.225-.011-.041.297.409.683.45.386 1.331 1.491 1.959 2.456.627.964 1.316 2.215 1.53 2.778.316.831.281.964-.182.701-.314-.179-1.397-1.449-2.405-2.822Zm-6.447-1.988-1.295-1.336c-.712-.735-1.581-1.33-1.93-1.323-.349.007-.911.245-1.249.53-.337.283-1.332 1.281-2.21 2.216l-1.597 1.7 1.801-.893c1.217-.603 2.561-.893 4.141-.893l2.339-.001Zm18.258.496c.165-.165-.023-.658-.419-1.095-.395-.436-1.252-.98-1.905-1.208-.654-.227-1.188-.261-1.188-.075 0 .185.557.568 1.237.85.68.282 1.402.808 1.605 1.171.203.362.504.523.67.357Zm-.166 2.421c-1.053-1.087-2.926-2.49-4.163-3.116-1.238-.627-2.705-1.281-3.262-1.454-.969-.301-.954-.248.34 1.226.827.941 1.278 1.829 1.16 2.28-.106.406.073 1.118.399 1.583.327.467 1.044.844 1.605.844.557 0 1.513.308 2.123.684.611.376 1.679 1.273 2.373 1.994.694.721 1.676 1.532 2.182 1.803.505.271.983.429 1.062.35.078-.078-.319-1.059-.882-2.18-.563-1.121-1.885-2.927-2.937-4.014Zm-15.19 2.955c-.65-2.028-1.122-2.82-1.891-3.17-.564-.257-1.982-.454-3.153-.438-1.17.016-2.901.373-3.846.793l-1.719.764.814 2.938c.448 1.615 1.104 3.512 1.458 4.216.354.703 1.212 1.877 1.905 2.608.788.831 1.658 1.329 2.317 1.329.58 0 1.511-.313 2.067-.696.556-.384 1.235-.982 1.509-1.329.273-.348.796-1.247 1.16-1.999l.664-1.365 1.088.952c.809.709.755.587-.209-.474-.75-.824-1.664-2.568-2.164-4.129Z" clip-rule="evenodd"/>
  <path fill="#F4F6FF" d="m.177 79.849 15.487-66.772h44.64l-1.214 4.654H19.612L13.64 43.529h31.48l-1.113 4.755h-31.38l-6.175 26.91h41.199l-1.114 4.655H.177ZM69.29 43.558l7.07-30.48h6.175l12.978 30.48h-5.795l-6.88-16.115-3.036-8.903H79.7l-1.721 8.397-3.848 16.621H69.29Zm-8.417 36.291 7.332-31.613h4.845l-7.318 31.613h-4.86Zm30.842-31.613 13.495 31.613h6.073l7.333-31.613h-4.809l-4.144 17.753-1.619 8.397h-.101l-3.138-9.004-7.3-17.146h-5.79Zm27.986-4.678h-4.802l7.114-30.48h4.758l-7.07 30.48Zm22.575-3.671c1.147 1.012 2.564 1.517 4.251 1.517 1.957 0 3.577-.674 4.859-2.023 1.35-1.349 2.024-3.17 2.024-5.463 0-1.686-.573-3.035-1.72-4.047-1.08-1.079-2.464-1.618-4.151-1.618-1.889 0-3.509.674-4.858 2.023-1.35 1.349-2.025 3.17-2.025 5.463 0 1.686.54 3.069 1.62 4.148Zm-4.859 40.973c-1.687 0-3.104-.505-4.252-1.517-1.079-1.08-1.619-2.462-1.619-4.148 0-2.293.675-4.114 2.024-5.463 1.35-1.35 2.97-2.024 4.859-2.024 1.687 0 3.071.54 4.15 1.62 1.148 1.01 1.721 2.36 1.721 4.046 0 2.293-.675 4.114-2.024 5.463-1.283 1.349-2.902 2.023-4.859 2.023Zm123.626-37.302h19.963l.671-3.57h.203l.95 3.57h18.508l-8.728-30.48h-24.497l-7.07 30.48Zm-8.417 36.291 7.332-31.613h20.169l-1.284 6.826-5.77 24.787h-20.447Zm31.449-31.613.336 1.262 9.414 30.35h24.192l7.333-31.612h-20.086l-1.114 5.713h-.203l-1.414-5.713h-18.458Zm42.36-4.678h-20.258l1.111-5.694 5.769-24.787h20.448l-7.07 30.481Zm9.047 4.678-7.332 31.613h23.585l3.746-16.289 8.199-7.587 8.503 23.876h23.889l-11.675-31.613h-48.915Zm1.085-4.678h46.102l-.87-2.356 28.951-28.125h-25.408l-23.383 22.56 5.264-22.56h-23.586l-7.07 30.481Zm-172.595 4.678-7.333 31.613h54.865l4.049-17.3h-31.279l3.309-14.313h-23.611Zm1.085-4.678h23.608l7.048-30.48h-23.586l-7.07 30.48Zm61.193 4.678-7.333 31.613h23.586l7.332-31.613H226.25Zm1.084-4.678h23.586l7.07-30.48h-23.586l-7.07 30.48Zm404.03 43.407c-.439 0-.799-.14-1.079-.42-.279-.28-.419-.639-.419-1.078V46.515c0-.439.14-.799.419-1.078.28-.28.64-.42 1.079-.42h27.985c.44 0 .799.14 1.079.42.279.28.419.639.419 1.078v5.633c0 .44-.14.8-.419 1.079-.28.28-.639.42-1.079.42h-19.116v8.09h17.798c.439 0 .799.16 1.078.479.28.28.42.639.42 1.078v5.214c0 .4-.14.759-.42 1.079-.279.28-.639.419-1.078.419h-17.798v8.33h19.596c.439 0 .799.14 1.078.42.28.279.42.638.42 1.078v5.633c0 .44-.14.799-.42 1.078-.279.28-.639.42-1.078.42h-28.465Zm38.273 0c-.44 0-.799-.14-1.079-.42-.28-.28-.42-.639-.42-1.078V46.515c0-.439.14-.799.42-1.078.28-.28.639-.42 1.079-.42h6.352c.679 0 1.158.16 1.438.48.319.28.519.5.599.659l14.622 23.071V46.515c0-.439.14-.799.419-1.078.28-.28.64-.42 1.079-.42h7.191c.439 0 .799.14 1.079.42.279.28.419.639.419 1.078v38.952c0 .4-.14.759-.419 1.078-.28.28-.64.42-1.079.42h-6.412c-.639 0-1.119-.16-1.438-.48-.28-.32-.46-.539-.54-.659l-14.621-22.172v21.813c0 .44-.14.799-.42 1.078-.279.28-.639.42-1.078.42h-7.191Zm60.632 0c-.679 0-1.218-.2-1.618-.6-.399-.399-.639-.858-.719-1.378L721.4 46.695a.531.531 0 0 1-.06-.24v-.18c0-.319.12-.599.36-.838.279-.28.579-.42.899-.42h7.43c1.119 0 1.738.44 1.858 1.319l3.895 23.43 4.315-13.842c.12-.32.319-.66.599-1.02.28-.399.739-.598 1.378-.598h4.315c.679 0 1.158.2 1.438.599.28.36.46.699.539 1.019l4.315 13.782 3.895-23.37c.12-.88.739-1.319 1.858-1.319h7.431c.359 0 .659.14.898.42.24.24.36.52.36.839v.42l-6.532 38.291c-.08.52-.319.98-.719 1.379-.399.4-.939.599-1.618.599h-5.693c-.679 0-1.198-.18-1.558-.54-.359-.359-.599-.699-.719-1.018l-6.052-17.139-6.053 17.139c-.12.32-.359.659-.719 1.019-.32.36-.819.539-1.498.539h-5.693Zm43.87 0c-.44 0-.799-.14-1.079-.42-.279-.28-.419-.639-.419-1.078V57.302c0-.44.14-.8.419-1.079.28-.28.639-.42 1.079-.42h7.071c.4 0 .739.14 1.019.42.319.28.479.64.479 1.079v28.165c0 .44-.16.799-.479 1.078-.28.28-.619.42-1.019.42h-7.071Zm-.06-35.656c-.439 0-.799-.14-1.079-.42-.279-.279-.419-.638-.419-1.078v-5.333c0-.44.14-.799.419-1.079.28-.32.64-.48 1.079-.48h7.131c.44 0 .799.16 1.079.48.319.28.479.64.479 1.079v5.333c0 .44-.16.8-.479 1.079-.28.28-.639.42-1.079.42h-7.131Zm17.148 35.656c-.44 0-.799-.14-1.079-.42-.279-.28-.419-.639-.419-1.078v-39.55c0-.44.14-.8.419-1.08.28-.28.639-.419 1.079-.419h6.951c.4 0 .739.14 1.019.42.32.28.479.639.479 1.078v20.075l8.33-9.169c.24-.28.499-.519.779-.719.28-.2.679-.3 1.198-.3h8.03c.36 0 .66.14.899.42.28.24.42.54.42.9 0 .159-.04.339-.12.538-.08.2-.2.36-.36.48l-10.786 11.625 12.285 14.922c.319.32.479.639.479.959 0 .359-.14.679-.42.958-.239.24-.559.36-.958.36h-8.21c-.599 0-1.039-.1-1.318-.3-.28-.24-.54-.48-.779-.719l-9.469-11.386v10.907c0 .44-.159.799-.479 1.078-.28.28-.619.42-1.019.42h-6.951Zm34.995 0c-.439 0-.799-.14-1.078-.42-.28-.28-.42-.639-.42-1.078V57.302c0-.44.14-.8.42-1.079.279-.28.639-.42 1.078-.42h7.071c.4 0 .739.14 1.019.42.32.28.48.64.48 1.079v28.165c0 .44-.16.799-.48 1.078-.28.28-.619.42-1.019.42h-7.071Zm-.06-35.656c-.439 0-.799-.14-1.078-.42-.28-.279-.42-.638-.42-1.078v-5.333c0-.44.14-.799.42-1.079.279-.32.639-.48 1.078-.48h7.131c.44 0 .799.16 1.079.48.32.28.479.64.479 1.079v5.333c0 .44-.159.8-.479 1.079-.28.28-.639.42-1.079.42h-7.131ZM629.045 30.965a.863.863 0 0 1-.639-.249.865.865 0 0 1-.249-.639V6.995c0-.26.083-.474.249-.64a.863.863 0 0 1 .639-.248h16.584c.26 0 .473.083.639.248a.864.864 0 0 1 .248.64v3.338c0 .26-.082.473-.248.639a.866.866 0 0 1-.639.248h-11.328v4.795h10.546a.81.81 0 0 1 .64.284.868.868 0 0 1 .248.639v3.09c0 .236-.083.45-.248.639a.866.866 0 0 1-.64.248h-10.546v4.936h11.612c.26 0 .473.083.639.249a.864.864 0 0 1 .249.639v3.338c0 .26-.083.473-.249.64a.866.866 0 0 1-.639.248h-16.868Zm22.289 0a.866.866 0 0 1-.639-.249.864.864 0 0 1-.248-.639v-16.69c0-.26.082-.474.248-.64a.866.866 0 0 1 .639-.248h4.084c.261 0 .474.083.639.248a.864.864 0 0 1 .249.64v1.35c.615-.735 1.42-1.35 2.415-1.848.994-.497 2.166-.745 3.515-.745 1.373 0 2.581.308 3.623.923 1.065.616 1.893 1.527 2.485 2.735.616 1.183.924 2.64.924 4.367v9.908c0 .26-.095.473-.284.64a.823.823 0 0 1-.604.248h-4.475a.948.948 0 0 1-.639-.249.864.864 0 0 1-.248-.639v-9.695c0-1.112-.273-1.965-.817-2.556-.521-.616-1.302-.924-2.344-.924-.971 0-1.752.308-2.344.924-.568.591-.852 1.444-.852 2.556v9.695c0 .26-.095.473-.284.64a.823.823 0 0 1-.604.248h-4.439Zm29.496.355c-1.539 0-2.853-.166-3.942-.497-1.065-.355-1.941-.782-2.627-1.279-.663-.497-1.16-1.006-1.492-1.527-.331-.544-.509-1.006-.533-1.384a.72.72 0 0 1 .249-.64c.189-.19.391-.284.604-.284h4.048c.071 0 .13.012.178.036.047.023.118.07.213.142.307.165.615.378.923.639.308.237.663.45 1.065.64.403.189.888.283 1.456.283.663 0 1.219-.13 1.669-.39.45-.26.675-.652.675-1.172 0-.38-.107-.687-.32-.924-.213-.26-.651-.509-1.314-.745-.639-.237-1.609-.474-2.911-.71-1.232-.285-2.309-.652-3.232-1.101-.923-.474-1.634-1.078-2.131-1.811-.497-.758-.745-1.67-.745-2.735 0-.947.307-1.858.923-2.734.615-.876 1.515-1.586 2.699-2.13 1.183-.57 2.639-.853 4.368-.853 1.373 0 2.556.165 3.551.497 1.018.308 1.87.71 2.557 1.207.71.497 1.242 1.006 1.598 1.527.355.521.544.995.568 1.42a.819.819 0 0 1-.213.64.782.782 0 0 1-.568.249h-3.694c-.094 0-.189-.012-.284-.036a2.377 2.377 0 0 1-.248-.142 4.446 4.446 0 0 1-.853-.568 5.117 5.117 0 0 0-.994-.64c-.379-.189-.852-.283-1.42-.283-.64 0-1.137.142-1.492.426a1.346 1.346 0 0 0-.533 1.1c0 .308.095.592.285.853.213.26.627.497 1.242.71.64.213 1.622.45 2.948.71 1.633.26 2.936.687 3.906 1.279.971.568 1.657 1.243 2.06 2.024.402.757.604 1.562.604 2.415 0 1.136-.344 2.142-1.03 3.018-.663.876-1.658 1.563-2.983 2.06-1.326.473-2.936.71-4.83.71Zm20.552 0c-2.794 0-5.019-.758-6.676-2.273-1.658-1.515-2.522-3.764-2.593-6.747v-1.243c.071-1.87.486-3.468 1.243-4.794.782-1.35 1.847-2.367 3.196-3.054 1.373-.71 2.971-1.065 4.794-1.065 2.084 0 3.8.414 5.149 1.243a7.867 7.867 0 0 1 3.09 3.373c.687 1.42 1.03 3.042 1.03 4.865v.853c0 .26-.095.473-.284.639a.823.823 0 0 1-.604.248h-11.364v.249c.024.686.142 1.314.355 1.882.214.568.545 1.018.995 1.35.45.331.994.497 1.633.497.474 0 .864-.071 1.172-.213.332-.166.604-.344.817-.533a8.3 8.3 0 0 0 .497-.533c.213-.236.379-.378.497-.426.142-.07.355-.106.639-.106h4.404c.237 0 .426.07.568.213.166.118.237.296.213.532-.024.403-.225.888-.604 1.456-.378.569-.935 1.137-1.669 1.705-.71.544-1.609.994-2.698 1.35-1.089.354-2.356.532-3.8.532Zm-3.019-11.47h6.002v-.071c0-.758-.119-1.42-.355-1.989-.213-.568-.557-1.006-1.03-1.314-.45-.308-.994-.461-1.634-.461-.639 0-1.183.153-1.633.461-.426.308-.758.746-.995 1.314-.236.568-.355 1.231-.355 1.989v.07Zm16.469 11.115a.863.863 0 0 1-.639-.249.865.865 0 0 1-.249-.639v-16.69c0-.26.083-.474.249-.64a.863.863 0 0 1 .639-.248h3.871c.26 0 .473.083.639.248a.868.868 0 0 1 .248.64v1.207c.474-.64 1.137-1.195 1.989-1.669.852-.497 1.858-.758 3.018-.781 2.723-.047 4.593.982 5.611 3.09.545-.9 1.326-1.634 2.344-2.202a6.524 6.524 0 0 1 3.338-.888c1.231 0 2.332.284 3.303.852.994.545 1.787 1.397 2.379 2.557.592 1.136.888 2.616.888 4.439v10.085c0 .26-.095.473-.284.64a.823.823 0 0 1-.604.248h-4.119a.99.99 0 0 1-.675-.249.865.865 0 0 1-.249-.639V20.24c0-.828-.118-1.48-.355-1.953-.237-.497-.556-.852-.959-1.065-.402-.213-.864-.32-1.385-.32-.426 0-.852.107-1.278.32-.403.213-.734.568-.994 1.065-.237.474-.355 1.125-.355 1.953v9.837c0 .26-.083.473-.249.64a.866.866 0 0 1-.639.248h-4.12a.866.866 0 0 1-.639-.249.864.864 0 0 1-.248-.639V20.24c0-.828-.131-1.48-.391-1.953-.26-.497-.592-.852-.994-1.065a2.844 2.844 0 0 0-1.35-.32c-.426 0-.852.107-1.278.32-.403.213-.734.568-.994 1.065-.237.474-.356 1.113-.356 1.918v9.872c0 .26-.094.473-.284.64a.863.863 0 0 1-.639.248h-4.19Zm42.899.355c-1.326 0-2.439-.225-3.338-.675-.876-.45-1.598-1.018-2.166-1.704v1.136c0 .26-.095.473-.284.64a.823.823 0 0 1-.604.248h-4.013a.866.866 0 0 1-.639-.249.865.865 0 0 1-.249-.639V6.64c0-.26.083-.474.249-.64a.866.866 0 0 1 .639-.248h4.332c.261 0 .474.083.64.248a.868.868 0 0 1 .248.64v7.599c.568-.616 1.279-1.113 2.131-1.492.876-.402 1.894-.603 3.054-.603 1.184 0 2.225.201 3.125.604a6.172 6.172 0 0 1 2.344 1.668c.639.734 1.136 1.61 1.491 2.628.355 1.018.557 2.167.604 3.445.024.45.035.864.035 1.243 0 .355-.011.77-.035 1.243-.047 1.325-.261 2.51-.639 3.55-.355 1.019-.853 1.895-1.492 2.629a6.405 6.405 0 0 1-2.308 1.633c-.9.355-1.941.533-3.125.533Zm-1.918-4.759c.805 0 1.433-.165 1.882-.497.45-.331.77-.781.959-1.35a6.628 6.628 0 0 0 .391-1.881c.047-.734.047-1.468 0-2.202a6.63 6.63 0 0 0-.391-1.882 2.675 2.675 0 0 0-.959-1.35c-.449-.33-1.077-.497-1.882-.497-.734 0-1.337.166-1.811.497a2.87 2.87 0 0 0-1.065 1.243 4.145 4.145 0 0 0-.391 1.634 25.752 25.752 0 0 0 0 2.663c.024.64.142 1.231.355 1.776.213.544.557.994 1.03 1.35.474.33 1.101.496 1.882.496Zm13.916 4.404a.863.863 0 0 1-.639-.249.865.865 0 0 1-.249-.639V6.64c0-.26.083-.474.249-.64a.863.863 0 0 1 .639-.248h4.19c.261 0 .474.083.639.248a.864.864 0 0 1 .249.64v23.437c0 .26-.083.473-.249.64a.863.863 0 0 1-.639.248h-4.19Zm17.796.355c-2.794 0-5.019-.758-6.676-2.273-1.658-1.515-2.522-3.764-2.593-6.747v-1.243c.071-1.87.486-3.468 1.243-4.794.781-1.35 1.847-2.367 3.196-3.054 1.373-.71 2.971-1.065 4.794-1.065 2.084 0 3.8.414 5.149 1.243a7.873 7.873 0 0 1 3.09 3.373c.686 1.42 1.03 3.042 1.03 4.865v.853c0 .26-.095.473-.284.639a.823.823 0 0 1-.604.248h-11.364v.249c.024.686.142 1.314.355 1.882.213.568.545 1.018.995 1.35.449.331.994.497 1.633.497.474 0 .864-.071 1.172-.213.332-.166.604-.344.817-.533a8.3 8.3 0 0 0 .497-.533c.213-.236.379-.378.497-.426.142-.07.355-.106.639-.106h4.404c.237 0 .426.07.568.213.166.118.237.296.213.532-.024.403-.225.888-.604 1.456-.378.569-.935 1.137-1.669 1.705-.71.544-1.61.994-2.699 1.35-1.089.354-2.355.532-3.799.532Zm-3.019-11.47h6.002v-.071c0-.758-.119-1.42-.355-1.989-.214-.568-.557-1.006-1.03-1.314-.45-.308-.995-.461-1.634-.461-.639 0-1.184.153-1.633.461-.426.308-.758.746-.995 1.314-.236.568-.355 1.231-.355 1.989v.07Zm32.8 11.47c-2.367 0-4.332-.332-5.895-.994-1.562-.687-2.746-1.575-3.551-2.664-.805-1.089-1.231-2.249-1.278-3.48a.68.68 0 0 1 .213-.497.78.78 0 0 1 .568-.249h4.474c.332 0 .58.06.746.178.189.118.355.272.497.462.19.355.45.698.781 1.03.356.33.805.603 1.35.816.568.19 1.266.284 2.095.284 1.373 0 2.403-.213 3.09-.639.71-.426 1.065-1.006 1.065-1.74 0-.52-.19-.947-.568-1.278-.379-.355-.995-.663-1.847-.924-.829-.284-1.941-.568-3.338-.852-1.799-.379-3.338-.864-4.616-1.456-1.255-.615-2.214-1.409-2.877-2.38-.663-.994-.994-2.225-.994-3.692 0-1.444.402-2.735 1.207-3.871.829-1.136 1.977-2.024 3.445-2.663 1.468-.64 3.208-.96 5.22-.96 1.633 0 3.066.214 4.297.64 1.255.426 2.308.994 3.16 1.704.853.71 1.492 1.468 1.918 2.273.45.781.687 1.55.71 2.309a.805.805 0 0 1-.213.532.722.722 0 0 1-.533.213h-4.687c-.26 0-.485-.047-.675-.142a1.31 1.31 0 0 1-.497-.461c-.142-.521-.521-.971-1.136-1.35-.592-.402-1.373-.604-2.344-.604-1.042 0-1.858.19-2.45.569-.569.355-.853.911-.853 1.669 0 .473.154.887.462 1.242.331.356.864.663 1.598.924.758.26 1.787.533 3.09.817 2.154.402 3.894.911 5.22 1.527 1.325.591 2.296 1.373 2.912 2.343.615.947.923 2.143.923 3.587 0 1.61-.462 3.007-1.385 4.19-.9 1.16-2.154 2.048-3.764 2.664-1.61.615-3.457.923-5.54.923Zm23.299-.355c-1.515 0-2.829-.237-3.941-.71a5.473 5.473 0 0 1-2.522-2.273c-.592-1.042-.887-2.38-.887-4.013v-6.818h-2.77a.99.99 0 0 1-.675-.249.864.864 0 0 1-.249-.639v-2.876c0-.26.083-.474.249-.64a.99.99 0 0 1 .675-.248h2.77v-5.86c0-.26.082-.473.248-.639a.946.946 0 0 1 .639-.248h4.12c.26 0 .473.083.639.248a.864.864 0 0 1 .248.64v5.859h4.439c.261 0 .474.083.64.248a.868.868 0 0 1 .248.64v2.876a.87.87 0 0 1-.248.64.866.866 0 0 1-.64.248h-4.439v6.32c0 .806.154 1.445.462 1.919.308.473.829.71 1.563.71h2.734c.26 0 .473.083.639.248a.864.864 0 0 1 .249.64v3.09c0 .26-.083.473-.249.638a.866.866 0 0 1-.639.249h-3.303Zm12.671.355c-1.279 0-2.427-.237-3.445-.71-.994-.497-1.787-1.16-2.379-1.989a4.709 4.709 0 0 1-.888-2.805c0-1.681.687-3.007 2.06-3.978 1.373-.994 3.196-1.669 5.468-2.024l4.439-.674v-.498c0-.852-.177-1.503-.532-1.953-.355-.45-1.006-.674-1.953-.674-.663 0-1.208.13-1.634.39a2.79 2.79 0 0 0-.959 1.066 1.02 1.02 0 0 1-.888.461h-3.977c-.26 0-.461-.07-.603-.213a.714.714 0 0 1-.178-.568c0-.426.154-.912.462-1.456.331-.568.828-1.125 1.491-1.67.663-.544 1.515-.993 2.557-1.348 1.042-.356 2.296-.533 3.764-.533 1.539 0 2.853.177 3.942.533 1.089.355 1.965.852 2.628 1.491a5.947 5.947 0 0 1 1.527 2.273c.331.852.497 1.799.497 2.84v10.796c0 .26-.095.473-.284.64a.823.823 0 0 1-.604.248h-4.119a.863.863 0 0 1-.639-.249.865.865 0 0 1-.249-.639v-1.243c-.308.45-.722.864-1.243 1.243a6.084 6.084 0 0 1-1.846.888c-.687.237-1.492.355-2.415.355Zm1.669-4.048c.686 0 1.302-.142 1.846-.426.569-.308 1.007-.77 1.314-1.385.332-.64.497-1.433.497-2.38v-.497l-3.018.533c-1.113.19-1.929.485-2.45.888-.497.378-.746.828-.746 1.349 0 .402.118.746.355 1.03.237.284.545.509.923.675.379.142.805.213 1.279.213Zm14.625 3.693a.863.863 0 0 1-.639-.249.865.865 0 0 1-.249-.639v-16.69c0-.237.083-.438.249-.604a.808.808 0 0 1 .639-.284h4.084c.26 0 .473.095.639.284a.82.82 0 0 1 .248.604v1.42a6.692 6.692 0 0 1 2.273-1.704c.9-.403 1.906-.604 3.019-.604h1.562c.237 0 .438.083.604.248a.812.812 0 0 1 .284.64v3.657c0 .237-.095.45-.284.64a.823.823 0 0 1-.604.248h-3.444c-.971 0-1.729.272-2.273.817-.521.52-.781 1.267-.781 2.237v9.091c0 .26-.095.473-.284.64a.867.867 0 0 1-.64.248h-4.403Zm22.837.355c-1.538 0-2.852-.166-3.941-.497-1.066-.355-1.942-.782-2.628-1.279-.663-.497-1.16-1.006-1.492-1.527-.331-.544-.509-1.006-.532-1.384a.717.717 0 0 1 .248-.64c.19-.19.391-.284.604-.284h4.048c.071 0 .13.012.178.036.047.023.118.07.213.142.308.165.615.378.923.639.308.237.663.45 1.065.64.403.189.888.283 1.456.283.663 0 1.22-.13 1.669-.39.45-.26.675-.652.675-1.172 0-.38-.106-.687-.319-.924-.214-.26-.651-.509-1.314-.745-.64-.237-1.61-.474-2.912-.71-1.231-.285-2.309-.652-3.232-1.101-.923-.474-1.633-1.078-2.131-1.811-.497-.758-.745-1.67-.745-2.735 0-.947.307-1.858.923-2.734.616-.876 1.515-1.586 2.699-2.13 1.184-.57 2.64-.853 4.368-.853 1.373 0 2.557.165 3.551.497 1.018.308 1.87.71 2.557 1.207.71.497 1.243 1.006 1.598 1.527.355.521.544.995.568 1.42a.812.812 0 0 1-.213.64.782.782 0 0 1-.568.249h-3.693a1.16 1.16 0 0 1-.285-.036 2.377 2.377 0 0 1-.248-.142 4.44 4.44 0 0 1-.852-.568 5.157 5.157 0 0 0-.995-.64c-.379-.189-.852-.283-1.42-.283-.639 0-1.137.142-1.492.426a1.345 1.345 0 0 0-.532 1.1c0 .308.094.592.284.853.213.26.627.497 1.243.71.639.213 1.621.45 2.947.71 1.634.26 2.936.687 3.906 1.279.971.568 1.658 1.243 2.06 2.024.402.757.604 1.562.604 2.415 0 1.136-.344 2.142-1.03 3.018-.663.876-1.657 1.563-2.983 2.06-1.326.473-2.936.71-4.83.71ZM556.908 43.507c-5.681-3.55-12.782-9.764-19.528-16.332-7.278-7.279-14.024-15.09-17.93-21.303-1.598-2.486-5.326-2.486-6.923 0-7.634 11.894-25.741 30.002-37.636 37.635-2.485 1.598-2.485 5.326 0 6.924 11.895 7.633 30.002 25.74 37.636 37.635 1.597 2.485 5.325 2.485 6.923 0 3.906-6.213 10.652-14.025 17.93-21.303 6.746-6.569 13.847-12.782 19.528-16.332 2.663-1.776 2.663-5.326 0-6.924Zm-26.629 16.51c-4.438-3.906-8.699-7.279-12.427-9.586-2.485-1.598-2.485-5.326 0-6.924 3.728-2.308 7.989-5.68 12.427-9.586 4.793 4.793 9.942 9.409 14.735 13.137-4.793 3.55-9.942 8.166-14.735 12.959Z"/>
  <path fill="#F4F6FF" d="M558.861 17.943c7.633 9.764 19.173 21.303 28.936 28.937-9.763 7.634-21.303 19.173-28.936 28.937-7.634-9.764-19.173-21.303-28.937-28.937 9.764-7.634 21.303-19.173 28.937-28.937Zm0-14.024c-1.243 0-2.663.71-3.551 1.953-7.456 11.894-25.563 30.001-37.457 37.635-2.486 1.598-2.486 5.326 0 6.924 11.894 7.633 30.001 25.74 37.635 37.635.887 1.242 2.13 1.953 3.55 1.953 1.243 0 2.663-.71 3.551-1.953 7.633-11.894 25.741-30.002 37.635-37.636 2.485-1.597 2.485-5.325 0-6.923-12.072-7.634-30.357-25.741-37.813-37.635-.887-1.243-2.13-1.953-3.55-1.953Zm197.925 219.134c-.68 0-1.219-.2-1.618-.6-.4-.399-.64-.858-.72-1.378l-6.531-38.292a.533.533 0 0 1-.06-.24v-.179c0-.32.12-.6.359-.839.28-.28.58-.42.899-.42h7.431c1.118 0 1.738.44 1.858 1.319l3.895 23.43 4.314-13.842c.12-.32.32-.66.599-1.019.28-.4.74-.599 1.379-.599h4.314c.68 0 1.159.199 1.439.599.279.359.459.699.539 1.019l4.315 13.782 3.895-23.37c.119-.879.739-1.319 1.857-1.319h7.431c.36 0 .659.14.899.42.24.239.359.519.359.839v.419l-6.531 38.292c-.08.52-.32.979-.719 1.378-.4.4-.939.6-1.618.6h-5.693c-.679 0-1.199-.18-1.558-.54-.36-.359-.6-.699-.719-1.018l-6.053-17.139-6.052 17.139c-.12.319-.36.659-.719 1.018-.32.36-.819.54-1.499.54h-5.692Zm43.869 0c-.439 0-.799-.14-1.078-.42-.28-.279-.42-.639-.42-1.078V193.39c0-.44.14-.799.42-1.079.279-.279.639-.419 1.078-.419h7.072c.399 0 .739.14 1.018.419.32.28.48.639.48 1.079v28.165c0 .439-.16.799-.48 1.078-.279.28-.619.42-1.018.42h-7.072Zm-.06-35.656c-.439 0-.799-.14-1.078-.419-.28-.28-.42-.639-.42-1.079v-5.333c0-.44.14-.799.42-1.079a1.368 1.368 0 0 1 1.078-.479h7.132c.439 0 .799.16 1.078.479.32.28.48.639.48 1.079v5.333c0 .44-.16.799-.48 1.079-.279.279-.639.419-1.078.419h-7.132Zm17.148 35.656c-.439 0-.799-.14-1.078-.42-.28-.279-.42-.639-.42-1.078v-39.551c0-.439.14-.799.42-1.079.279-.279.639-.419 1.078-.419h6.952c.399 0 .739.14 1.018.419.32.28.48.64.48 1.079v20.075l8.329-9.169c.24-.279.5-.519.779-.719.28-.199.68-.299 1.199-.299h8.03c.359 0 .659.14.899.419.279.24.419.54.419.899 0 .16-.04.34-.12.539-.08.2-.199.36-.359.48l-10.787 11.625 12.285 14.922c.32.319.479.639.479.958 0 .36-.139.68-.419.959-.24.24-.559.36-.959.36h-8.21c-.599 0-1.038-.1-1.318-.3-.28-.24-.539-.479-.779-.719l-9.468-11.386v10.907c0 .439-.16.799-.48 1.078-.279.28-.619.42-1.018.42h-6.952Zm34.996 0c-.44 0-.799-.14-1.079-.42-.28-.279-.419-.639-.419-1.078V193.39c0-.44.139-.799.419-1.079.28-.279.639-.419 1.079-.419h7.071c.399 0 .739.14 1.019.419.319.28.479.639.479 1.079v28.165c0 .439-.16.799-.479 1.078-.28.28-.62.42-1.019.42h-7.071Zm-.06-35.656c-.44 0-.799-.14-1.079-.419-.28-.28-.419-.639-.419-1.079v-5.333c0-.44.139-.799.419-1.079a1.37 1.37 0 0 1 1.079-.479h7.131c.439 0 .799.16 1.079.479.319.28.479.639.479 1.079v5.333c0 .44-.16.799-.479 1.079-.28.279-.64.419-1.079.419h-7.131Zm-215.582 14.924c0 1.099.549 1.648 1.593 1.648h9.118c1.099 0 1.648-.549 1.648-1.648v-9.612c0-1.044-.549-1.593-1.593-1.593h-9.118c-1.099 0-1.648.549-1.648 1.593v9.612Zm1.593 7.581c-.989 0-1.538.439-1.593 1.373-.055 1.099-.605 1.648-1.648 1.648h-3.516c-1.098 0-1.648-.549-1.648-1.593v-24.719c0-1.043.55-1.592 1.593-1.592h15.985c1.044 0 1.593-.55 1.593-1.593v-5.439c0-1.098.549-1.647 1.648-1.647h4.065c1.098 0 1.648.549 1.648 1.593v5.438c0 1.098.549 1.648 1.593 1.648h15.984c1.044 0 1.593.549 1.593 1.592v24.719c0 1.044-.549 1.593-1.648 1.593h-3.515c-1.044 0-1.593-.439-1.648-1.373-.055-1.099-.604-1.648-1.593-1.648h-9.119c-1.098 0-1.647.549-1.647 1.648v12.963c0 1.099-.55 1.648-1.648 1.648h-4.065c-1.099 0-1.648-.549-1.648-1.703V211.55c0-1.099-.549-1.648-1.648-1.648h-9.118Zm28.893-5.933c1.044 0 1.593-.549 1.593-1.648v-9.612c0-1.044-.549-1.593-1.593-1.593h-9.119c-1.098 0-1.647.549-1.647 1.648v9.612c0 1.044.549 1.593 1.647 1.593h9.119Zm46.965 5.768c-.824.879-.714 1.593.275 2.142 3.955 2.252 9.228 4.395 15.765 6.317 1.043.33 1.428.989 1.043 2.033l-.988 2.911c-.385 1.044-1.099 1.428-2.143 1.153-7.855-2.252-14.227-4.888-19.06-7.909-.934-.605-1.813-.605-2.747 0-4.834 3.021-11.206 5.657-19.061 7.909-1.043.275-1.757-.054-2.142-1.098l-.989-2.911c-.384-1.044-.055-1.758.989-2.033 6.537-1.922 11.81-4.065 15.765-6.372.989-.604 1.099-1.318.33-2.197-3.516-3.9-6.482-8.899-8.844-15.106-.385-1.043-.055-1.757 1.043-2.032l3.516-.934c1.044-.275 1.758.055 2.142 1.099 2.088 5.383 4.559 9.667 7.361 12.798.714.824 1.483.824 2.197 0 2.911-3.46 5.493-8.184 7.69-14.226.385-1.154 0-1.758-1.263-1.758h-29.552c-1.099 0-1.648-.55-1.648-1.648v-2.966c0-1.044.549-1.593 1.648-1.593h16.863c1.099 0 1.648-.55 1.648-1.648v-4.065c0-1.099.549-1.648 1.648-1.648h4.065c1.098 0 1.648.549 1.648 1.648v4.065c0 1.098.549 1.648 1.647 1.648h16.864c1.099 0 1.648.549 1.648 1.593v2.966c0 1.098-.549 1.648-1.593 1.648h-3.68c-1.099 0-1.813.549-2.198 1.593-2.691 7.91-5.987 14.117-9.887 18.621Zm-85.503-43.684a.862.862 0 0 1-.639-.249.865.865 0 0 1-.249-.639v-23.082c0-.261.083-.474.249-.64a.865.865 0 0 1 .639-.248h16.584c.26 0 .473.083.639.248a.865.865 0 0 1 .248.64v3.338c0 .26-.082.473-.248.639a.864.864 0 0 1-.639.248h-11.328v4.794h10.546a.81.81 0 0 1 .64.285.865.865 0 0 1 .248.639v3.089c0 .237-.083.45-.248.639a.866.866 0 0 1-.64.249h-10.546v4.936h11.612c.26 0 .473.083.639.249a.862.862 0 0 1 .249.639v3.338c0 .26-.083.473-.249.639a.865.865 0 0 1-.639.249h-16.868Zm22.289 0a.865.865 0 0 1-.639-.249.864.864 0 0 1-.248-.639v-16.69c0-.261.082-.474.248-.64a.868.868 0 0 1 .639-.248h4.084c.261 0 .474.083.639.248a.866.866 0 0 1 .249.64v1.349c.615-.734 1.42-1.349 2.415-1.847.994-.497 2.166-.745 3.515-.745 1.373 0 2.581.307 3.623.923 1.065.616 1.893 1.527 2.485 2.734.616 1.184.924 2.64.924 4.368v9.908c0 .26-.095.473-.284.639a.822.822 0 0 1-.604.249h-4.475a.947.947 0 0 1-.639-.249.864.864 0 0 1-.248-.639v-9.695c0-1.112-.273-1.965-.817-2.556-.521-.616-1.302-.924-2.344-.924-.971 0-1.752.308-2.344.924-.568.591-.852 1.444-.852 2.556v9.695c0 .26-.095.473-.284.639a.822.822 0 0 1-.604.249h-4.439Zm29.496.355c-1.539 0-2.853-.166-3.942-.497-1.065-.355-1.941-.782-2.627-1.279-.663-.497-1.16-1.006-1.492-1.527-.331-.544-.509-1.006-.533-1.385a.72.72 0 0 1 .249-.639c.189-.189.391-.284.604-.284h4.048c.071 0 .13.012.178.036.047.023.118.071.213.142.307.165.615.378.923.639.308.237.663.45 1.065.639.403.189.888.284 1.456.284.663 0 1.219-.13 1.669-.391.45-.26.675-.651.675-1.171 0-.379-.107-.687-.32-.924-.213-.26-.651-.509-1.314-.745-.639-.237-1.609-.474-2.911-.711-1.232-.284-2.309-.651-3.232-1.101-.923-.473-1.634-1.077-2.131-1.811-.497-.757-.745-1.669-.745-2.734 0-.947.307-1.858.923-2.734.615-.876 1.515-1.587 2.699-2.131 1.183-.568 2.639-.852 4.368-.852 1.373 0 2.556.165 3.551.497 1.018.308 1.87.71 2.557 1.207.71.497 1.242 1.006 1.598 1.527.355.521.544.995.568 1.421a.82.82 0 0 1-.213.639.78.78 0 0 1-.568.248h-3.694c-.094 0-.189-.011-.284-.035a2.378 2.378 0 0 1-.248-.142 4.483 4.483 0 0 1-.853-.568 5.084 5.084 0 0 0-.994-.639c-.379-.19-.852-.285-1.42-.285-.64 0-1.137.142-1.492.427a1.346 1.346 0 0 0-.533 1.1c0 .308.095.592.285.853.213.26.627.497 1.242.71.64.213 1.622.45 2.948.71 1.633.261 2.936.687 3.906 1.279.971.568 1.657 1.242 2.06 2.024.402.757.604 1.562.604 2.414 0 1.137-.344 2.143-1.03 3.019-.663.876-1.658 1.562-2.983 2.06-1.326.473-2.936.71-4.83.71Zm20.552 0c-2.794 0-5.019-.758-6.676-2.273-1.658-1.515-2.522-3.764-2.593-6.747v-1.243c.071-1.87.486-3.468 1.243-4.794.782-1.349 1.847-2.367 3.196-3.054 1.373-.71 2.971-1.065 4.794-1.065 2.084 0 3.8.414 5.149 1.243a7.865 7.865 0 0 1 3.09 3.373c.687 1.421 1.03 3.042 1.03 4.865v.853c0 .26-.095.473-.284.639a.825.825 0 0 1-.604.248h-11.364v.249c.024.686.142 1.314.355 1.882.214.568.545 1.018.995 1.349.45.332.994.498 1.633.498.474 0 .864-.071 1.172-.213.332-.166.604-.344.817-.533.213-.213.379-.391.497-.533.213-.237.379-.379.497-.426.142-.071.355-.107.639-.107h4.404c.237 0 .426.072.568.214.166.118.237.295.213.532-.024.403-.225.888-.604 1.456-.378.568-.935 1.137-1.669 1.705-.71.544-1.609.994-2.698 1.349s-2.356.533-3.8.533Zm-3.019-11.47h6.002v-.071c0-.758-.119-1.421-.355-1.989-.213-.568-.557-1.006-1.03-1.314-.45-.308-.994-.462-1.634-.462-.639 0-1.183.154-1.633.462-.426.308-.758.746-.995 1.314-.236.568-.355 1.231-.355 1.989v.071Zm16.469 11.115a.862.862 0 0 1-.639-.249.865.865 0 0 1-.249-.639v-16.69c0-.261.083-.474.249-.64a.865.865 0 0 1 .639-.248h3.871c.26 0 .473.083.639.248a.869.869 0 0 1 .248.64v1.207c.474-.639 1.137-1.196 1.989-1.669.852-.497 1.858-.758 3.018-.781 2.723-.048 4.593.982 5.611 3.089.545-.899 1.326-1.633 2.344-2.202a6.532 6.532 0 0 1 3.338-.887c1.231 0 2.332.284 3.303.852.994.544 1.787 1.397 2.379 2.557.592 1.136.888 2.616.888 4.439v10.085c0 .26-.095.473-.284.639a.822.822 0 0 1-.604.249h-4.119a.989.989 0 0 1-.675-.249.865.865 0 0 1-.249-.639v-9.837c0-.828-.118-1.479-.355-1.953-.237-.497-.556-.852-.959-1.065-.402-.213-.864-.32-1.385-.32-.426 0-.852.107-1.278.32-.403.213-.734.568-.994 1.065-.237.474-.355 1.125-.355 1.953v9.837c0 .26-.083.473-.249.639a.865.865 0 0 1-.639.249h-4.12a.865.865 0 0 1-.639-.249.864.864 0 0 1-.248-.639v-9.837c0-.828-.131-1.479-.391-1.953-.26-.497-.592-.852-.994-1.065a2.844 2.844 0 0 0-1.35-.32c-.426 0-.852.107-1.278.32-.403.213-.734.568-.994 1.065-.237.474-.356 1.113-.356 1.918v9.872a.81.81 0 0 1-.284.639.862.862 0 0 1-.639.249h-4.19Zm42.899.355c-1.326 0-2.439-.225-3.338-.675-.876-.45-1.598-1.018-2.166-1.704v1.136c0 .26-.095.473-.284.639a.822.822 0 0 1-.604.249h-4.013a.865.865 0 0 1-.639-.249.865.865 0 0 1-.249-.639v-23.438c0-.26.083-.473.249-.639a.868.868 0 0 1 .639-.248h4.332c.261 0 .474.083.64.248a.868.868 0 0 1 .248.639v7.6c.568-.616 1.279-1.113 2.131-1.492.876-.402 1.894-.603 3.054-.603 1.184 0 2.225.201 3.125.603a6.184 6.184 0 0 1 2.344 1.669c.639.734 1.136 1.61 1.491 2.628.355 1.018.557 2.166.604 3.445.024.45.035.864.035 1.243 0 .355-.011.769-.035 1.243-.047 1.325-.261 2.509-.639 3.551-.355 1.018-.853 1.894-1.492 2.628a6.408 6.408 0 0 1-2.308 1.633c-.9.355-1.941.533-3.125.533Zm-1.918-4.759c.805 0 1.433-.165 1.882-.497.45-.331.77-.781.959-1.349a6.63 6.63 0 0 0 .391-1.882c.047-.734.047-1.468 0-2.202a6.624 6.624 0 0 0-.391-1.882 2.68 2.68 0 0 0-.959-1.35c-.449-.331-1.077-.497-1.882-.497-.734 0-1.337.166-1.811.497a2.87 2.87 0 0 0-1.065 1.243 4.146 4.146 0 0 0-.391 1.634 25.765 25.765 0 0 0 0 2.663c.024.639.142 1.231.355 1.776.213.544.557.994 1.03 1.349.474.332 1.101.497 1.882.497Zm13.916 4.404a.862.862 0 0 1-.639-.249.865.865 0 0 1-.249-.639v-23.438c0-.26.083-.473.249-.639a.865.865 0 0 1 .639-.248h4.19c.261 0 .474.083.639.248a.865.865 0 0 1 .249.639v23.438c0 .26-.083.473-.249.639a.862.862 0 0 1-.639.249h-4.19Zm17.796.355c-2.794 0-5.019-.758-6.676-2.273-1.658-1.515-2.522-3.764-2.593-6.747v-1.243c.071-1.87.486-3.468 1.243-4.794.781-1.349 1.847-2.367 3.196-3.054 1.373-.71 2.971-1.065 4.794-1.065 2.084 0 3.8.414 5.149 1.243a7.87 7.87 0 0 1 3.09 3.373c.686 1.421 1.03 3.042 1.03 4.865v.853c0 .26-.095.473-.284.639a.825.825 0 0 1-.604.248h-11.364v.249c.024.686.142 1.314.355 1.882.213.568.545 1.018.995 1.349.449.332.994.498 1.633.498.474 0 .864-.071 1.172-.213.332-.166.604-.344.817-.533.213-.213.379-.391.497-.533.213-.237.379-.379.497-.426.142-.071.355-.107.639-.107h4.404c.237 0 .426.072.568.214.166.118.237.295.213.532-.024.403-.225.888-.604 1.456-.378.568-.935 1.137-1.669 1.705-.71.544-1.61.994-2.699 1.349-1.089.355-2.355.533-3.799.533Zm-3.019-11.47h6.002v-.071c0-.758-.119-1.421-.355-1.989-.214-.568-.557-1.006-1.03-1.314-.45-.308-.995-.462-1.634-.462-.639 0-1.184.154-1.633.462-.426.308-.758.746-.995 1.314-.236.568-.355 1.231-.355 1.989v.071Zm32.8 11.47c-2.367 0-4.332-.332-5.895-.994-1.562-.687-2.746-1.575-3.551-2.664-.805-1.089-1.231-2.249-1.278-3.48 0-.189.071-.355.213-.497a.78.78 0 0 1 .568-.249h4.474c.332 0 .58.06.746.178.189.118.355.272.497.462.19.355.45.698.781 1.029.356.332.805.604 1.35.817.568.19 1.266.284 2.095.284 1.373 0 2.403-.213 3.09-.639.71-.426 1.065-1.006 1.065-1.74 0-.521-.19-.947-.568-1.278-.379-.356-.995-.663-1.847-.924-.829-.284-1.941-.568-3.338-.852-1.799-.379-3.338-.864-4.616-1.456-1.255-.616-2.214-1.409-2.877-2.379-.663-.995-.994-2.226-.994-3.693 0-1.445.402-2.735 1.207-3.871.829-1.137 1.977-2.024 3.445-2.664 1.468-.639 3.208-.958 5.22-.958 1.633 0 3.066.213 4.297.639 1.255.426 2.308.994 3.16 1.704.853.711 1.492 1.468 1.918 2.273.45.781.687 1.551.71 2.308 0 .19-.071.367-.213.533a.722.722 0 0 1-.533.213h-4.687c-.26 0-.485-.047-.675-.142a1.315 1.315 0 0 1-.497-.462c-.142-.52-.521-.97-1.136-1.349-.592-.402-1.373-.604-2.344-.604-1.042 0-1.858.19-2.45.568-.569.356-.853.912-.853 1.67 0 .473.154.887.462 1.242.331.356.864.663 1.598.924.758.26 1.787.532 3.09.816 2.154.403 3.894.912 5.22 1.527 1.325.592 2.296 1.374 2.912 2.344.615.947.923 2.143.923 3.587 0 1.61-.462 3.006-1.385 4.19-.9 1.16-2.154 2.048-3.764 2.664-1.61.615-3.457.923-5.54.923Zm23.299-.355c-1.515 0-2.829-.237-3.941-.71a5.479 5.479 0 0 1-2.522-2.273c-.592-1.042-.887-2.379-.887-4.013v-6.818h-2.77a.989.989 0 0 1-.675-.249.864.864 0 0 1-.249-.639v-2.876c0-.261.083-.474.249-.64a.993.993 0 0 1 .675-.248h2.77v-5.86c0-.26.082-.473.248-.639a.949.949 0 0 1 .639-.248h4.12c.26 0 .473.083.639.248a.864.864 0 0 1 .248.639v5.86h4.439c.261 0 .474.083.64.248a.869.869 0 0 1 .248.64v2.876c0 .26-.083.474-.248.639a.866.866 0 0 1-.64.249h-4.439v6.321c0 .805.154 1.444.462 1.917.308.474.829.711 1.563.711h2.734c.26 0 .473.083.639.248a.865.865 0 0 1 .249.639v3.09c0 .26-.083.473-.249.639a.865.865 0 0 1-.639.249h-3.303Zm12.671.355c-1.279 0-2.427-.237-3.445-.71-.994-.498-1.787-1.16-2.379-1.989a4.71 4.71 0 0 1-.888-2.805c0-1.681.687-3.007 2.06-3.978 1.373-.994 3.196-1.669 5.468-2.024l4.439-.675v-.497c0-.852-.177-1.503-.532-1.953-.355-.45-1.006-.675-1.953-.675-.663 0-1.208.131-1.634.391-.402.26-.722.616-.959 1.065a1.02 1.02 0 0 1-.888.462h-3.977c-.26 0-.461-.071-.603-.213a.714.714 0 0 1-.178-.568c0-.426.154-.912.462-1.456.331-.568.828-1.125 1.491-1.669.663-.545 1.515-.995 2.557-1.35 1.042-.355 2.296-.532 3.764-.532 1.539 0 2.853.177 3.942.532 1.089.355 1.965.853 2.628 1.492a5.947 5.947 0 0 1 1.527 2.273c.331.852.497 1.799.497 2.84v10.796c0 .26-.095.473-.284.639a.822.822 0 0 1-.604.249h-4.119a.862.862 0 0 1-.639-.249.865.865 0 0 1-.249-.639v-1.243c-.308.45-.722.864-1.243 1.243a6.077 6.077 0 0 1-1.846.888c-.687.236-1.492.355-2.415.355Zm1.669-4.048c.686 0 1.302-.142 1.846-.427.569-.307 1.007-.769 1.314-1.385.332-.639.497-1.432.497-2.379v-.497l-3.018.533c-1.113.189-1.929.485-2.45.888-.497.378-.746.828-.746 1.349 0 .402.118.746.355 1.03.237.284.545.509.923.674a3.6 3.6 0 0 0 1.279.214Zm14.625 3.693a.862.862 0 0 1-.639-.249.865.865 0 0 1-.249-.639v-16.69c0-.237.083-.438.249-.604a.81.81 0 0 1 .639-.284h4.084c.26 0 .473.095.639.284a.821.821 0 0 1 .248.604v1.42a6.682 6.682 0 0 1 2.273-1.704c.9-.403 1.906-.604 3.019-.604h1.562c.237 0 .438.083.604.248a.813.813 0 0 1 .284.64v3.657c0 .237-.095.45-.284.639a.822.822 0 0 1-.604.249h-3.444c-.971 0-1.729.272-2.273.817-.521.521-.781 1.266-.781 2.237v9.091c0 .26-.095.473-.284.639a.866.866 0 0 1-.64.249h-4.403Zm22.837.355c-1.538 0-2.852-.166-3.941-.497-1.066-.355-1.942-.782-2.628-1.279-.663-.497-1.16-1.006-1.492-1.527-.331-.544-.509-1.006-.532-1.385a.717.717 0 0 1 .248-.639c.19-.189.391-.284.604-.284h4.048c.071 0 .13.012.178.036.047.023.118.071.213.142.308.165.615.378.923.639.308.237.663.45 1.065.639.403.189.888.284 1.456.284.663 0 1.22-.13 1.669-.391.45-.26.675-.651.675-1.171 0-.379-.106-.687-.319-.924-.214-.26-.651-.509-1.314-.745-.64-.237-1.61-.474-2.912-.711-1.231-.284-2.309-.651-3.232-1.101-.923-.473-1.633-1.077-2.131-1.811-.497-.757-.745-1.669-.745-2.734 0-.947.307-1.858.923-2.734.616-.876 1.515-1.587 2.699-2.131 1.184-.568 2.64-.852 4.368-.852 1.373 0 2.557.165 3.551.497 1.018.308 1.87.71 2.557 1.207.71.497 1.243 1.006 1.598 1.527.355.521.544.995.568 1.421a.813.813 0 0 1-.213.639.78.78 0 0 1-.568.248h-3.693c-.095 0-.19-.011-.285-.035a2.378 2.378 0 0 1-.248-.142 4.477 4.477 0 0 1-.852-.568 5.123 5.123 0 0 0-.995-.639c-.379-.19-.852-.285-1.42-.285-.639 0-1.137.142-1.492.427a1.345 1.345 0 0 0-.532 1.1c0 .308.094.592.284.853.213.26.627.497 1.243.71.639.213 1.621.45 2.947.71 1.634.261 2.936.687 3.906 1.279.971.568 1.658 1.242 2.06 2.024.402.757.604 1.562.604 2.414 0 1.137-.344 2.143-1.03 3.019-.663.876-1.657 1.562-2.983 2.06-1.326.473-2.936.71-4.83.71Zm-335.499 12.187c-5.681-3.55-12.782-9.764-19.528-16.332-7.278-7.279-14.024-15.09-17.93-21.303-1.598-2.486-5.326-2.486-6.923 0-7.634 11.894-25.741 30.001-37.636 37.635-2.485 1.598-2.485 5.326 0 6.923 11.895 7.634 30.002 25.742 37.636 37.636 1.597 2.485 5.325 2.485 6.923 0 3.906-6.214 10.652-14.025 17.93-21.303 6.746-6.569 13.847-12.782 19.528-16.333 2.663-1.775 2.663-5.325 0-6.923Zm-26.629 16.51c-4.438-3.906-8.699-7.279-12.427-9.587-2.485-1.597-2.485-5.325 0-6.923 3.728-2.308 7.989-5.681 12.427-9.586 4.793 4.793 9.942 9.408 14.735 13.137-4.793 3.55-9.942 8.166-14.735 12.959Z"/>
  <path fill="#F4F6FF" d="M558.861 153.031c7.633 9.764 19.173 21.303 28.936 28.937-9.763 7.633-21.303 19.173-28.936 28.936-7.634-9.763-19.173-21.303-28.937-28.936 9.764-7.634 21.303-19.173 28.937-28.937Zm0-14.024c-1.243 0-2.663.71-3.551 1.953-7.456 11.894-25.563 30.001-37.457 37.635-2.486 1.598-2.486 5.326 0 6.923 11.894 7.634 30.001 25.742 37.635 37.636.887 1.242 2.13 1.952 3.55 1.952 1.243 0 2.663-.71 3.551-1.952 7.633-11.894 25.741-30.002 37.635-37.636 2.485-1.597 2.485-5.325 0-6.923-12.072-7.634-30.357-25.741-37.813-37.635-.887-1.243-2.13-1.953-3.55-1.953Z"/>
</svg>
