<svg xmlns="http://www.w3.org/2000/svg" width="898" height="239" fill="currentColor" viewBox="0 0 898 239">
  <path d="M288.745 191.402c-.114.281-.207.051-.207-.511s.093-.792.207-.511c.113.281.113.741 0 1.022Zm-1.293-11.961c.139.225.057.409-.181.409s-.433-.184-.433-.409c0-.225.081-.409.18-.409.1 0 .294.184.434.409Z"/>
  <path fill-rule="evenodd" d="M175.3 129.828c1.406-.403 4.764-1.899 7.463-3.324 2.699-1.424 5.184-2.602 5.521-2.618.337-.016 1.349.91 2.249 2.057.9 1.146 2.418 2.742 3.374 3.546l1.738 1.461v80.725l-1.661.281c-.914.154-2.892.901-4.396 1.66-1.505.76-3.733 2.306-4.952 3.436-1.218 1.131-2.255 2.056-2.303 2.056-.049 0-.179-.35-.291-.776-.111-.427-.697-1.1-1.3-1.496-.751-.492-2.475-.831-5.467-1.075-2.404-.197-5.429-.625-6.722-.95-1.293-.327-3.087-.969-3.986-1.428-.9-.458-2.645-1.859-3.879-3.113-1.233-1.254-2.799-3.413-3.479-4.798-.68-1.384-1.508-3.806-1.84-5.38-.366-1.733-.607-5.137-.611-8.624-.005-4.377.183-6.506.784-8.856.435-1.701 1.282-4.062 1.882-5.245.6-1.184 2.038-3.154 3.195-4.378 1.158-1.224 2.977-2.667 4.044-3.208 1.067-.541 3.092-1.246 4.499-1.567 1.408-.322 4.399-.716 6.646-.877 3.825-.272 4.16-.369 5.214-1.498l1.128-1.207v-15.068c0-10.464-.144-15.383-.469-16.098-.266-.582-1.021-1.2-1.738-1.422-.698-.216-2.603-.516-4.234-.667-1.631-.151-2.965-.396-2.965-.544 0-.149 1.151-.601 2.556-1.005ZM.172 127.097v-2.863h56.88l-.144 35.271c-.14 34.186-.171 35.387-1.01 39.061-.477 2.085-1.185 4.753-1.574 5.929-.543 1.645-1.391 2.826-3.667 5.108-1.871 1.874-3.772 3.339-5.164 3.976-1.212.554-3.486 1.194-5.053 1.42-1.567.227-6.848.416-11.735.42-8.452.008-9.016.058-11.581 1.023-1.482.558-3.28 1.414-3.996 1.903-.716.489-2.175 1.727-3.243 2.753l-1.943 1.864v-46.733c0-34.421-.124-46.968-.47-47.626-.259-.491-.673-1.028-.92-1.194-.248-.165-1.785-.303-3.415-.306l-2.965-.006Zm24.945 85.041v-42.52c0-23.387-.143-42.521-.317-42.521-.175 0-.712.276-1.194.613-.481.337-1.258 1.232-1.727 1.99-.846 1.371-.85 1.586-.85 39.881v38.503l1.037 1.568c.57.863 1.491 1.775 2.045 2.027l1.006.459Zm18.538-82.063c-.376-.791-1.25-1.785-1.943-2.207-1.081-.66-2.111-.769-7.291-.77l-6.032-.001v85.131l4.543-.139 4.542-.138 1.8-2.044c.991-1.125 2.351-3.149 3.022-4.499.922-1.852 1.32-3.406 1.624-6.338.228-2.193.407-17.754.41-35.721.007-28.9-.055-31.968-.675-33.274Zm60.081 32.768c1.631-.552 5.173-2.173 7.872-3.604l4.907-2.601 3.559 3.734 3.558 3.733.02 21.685c.017 18.6.107 21.81.633 22.562.338.482 1.145.993 1.794 1.135.869.191 2.638-.295 6.737-1.853 5.312-2.018 5.568-2.168 5.793-3.395.13-.707.18-9.422.112-19.369-.12-17.656-.143-18.104-.969-18.93-.654-.654-1.746-.948-4.815-1.297-2.182-.248-3.887-.532-3.786-.632.099-.1 1.622-.682 3.383-1.294s5.309-2.256 7.886-3.655l4.685-2.542 1.027 1.339c.565.736 2.105 2.474 3.424 3.861l2.397 2.522-.174 18.947c-.16 17.565-.238 19.237-1.059 22.914-.486 2.181-1.455 5.586-2.153 7.565-.697 1.98-1.884 4.888-2.636 6.462-.753 1.574-2.156 4.059-3.119 5.521-.962 1.462-3.132 4.107-4.822 5.879-1.69 1.771-4.226 4.044-5.636 5.05-1.57 1.121-2.812 1.734-3.207 1.583-.557-.214-.506-.483.372-1.984.558-.955 1.932-3.576 3.052-5.826 1.12-2.249 2.335-5.009 2.699-6.134.363-1.124 1.024-3.793 1.468-5.929.444-2.137.932-4.943 1.083-6.237.178-1.514.127-2.351-.144-2.351-.231 0-2.599.752-5.263 1.67-2.664.919-6.871 2.59-9.349 3.715-2.478 1.125-4.822 2.142-5.209 2.26-.465.141-1.09-.254-1.836-1.16-.621-.755-2.092-2.395-3.268-3.644l-2.138-2.272-.117-21.466c-.104-19.357-.184-21.569-.808-22.521-.427-.652-1.211-1.146-2.045-1.288-.744-.128-2.595-.356-4.113-.507l-2.76-.274v44.163l-1.942.483c-1.069.264-2.915.923-4.102 1.462-1.188.54-3.26 2.03-4.604 3.312-1.344 1.282-2.51 2.256-2.59 2.164-.08-.092-.37-.597-.643-1.122-.274-.525-1.12-1.215-1.883-1.534-.761-.318-2.725-.582-4.363-.585-1.638-.004-4.245-.276-5.794-.604-1.548-.328-3.642-.997-4.653-1.486-1.011-.49-2.79-1.842-3.953-3.005-1.163-1.163-2.591-2.929-3.173-3.925-.582-.996-1.444-3.064-1.916-4.597-.472-1.533-1.05-4.816-1.284-7.297-.287-3.048-.293-5.795-.018-8.475.223-2.181.774-5.154 1.223-6.607.449-1.453 1.478-3.746 2.288-5.096.808-1.349 2.241-3.244 3.184-4.21.942-.966 2.633-2.203 3.757-2.748 1.125-.545 3.149-1.275 4.498-1.621 1.35-.347 4.22-.747 6.378-.888 2.159-.141 4.593-.132 5.41.021.816.153 2.297.899 3.29 1.657l1.806 1.379 2.001-.927c1.1-.51 3.145-1.986 4.542-3.28l2.541-2.352v5.348l2.965-1.002Zm94.874 1.74c1.406-.407 4.764-1.897 7.463-3.312 2.699-1.414 5.149-2.597 5.445-2.629.295-.031 1.03.541 1.632 1.272.603.731 2.012 2.31 3.131 3.509 1.759 1.883 2.194 2.148 3.19 1.949.634-.127 2.572-.794 4.306-1.483 1.733-.689 4.74-2.164 6.68-3.279 1.941-1.114 3.628-2.025 3.749-2.025.122 0 1.968 1.912 4.105 4.25l3.883 4.25 1.087-1.134c.598-.624 1.961-1.61 3.03-2.192 1.069-.582 3.034-1.365 4.367-1.742 1.889-.532 4.83-.725 13.362-.874 10.454-.183 10.939-.158 10.935.568-.003.417-.619 2.783-1.369 5.257-.75 2.474-1.944 5.881-2.651 7.57-.769 1.834-2.603 4.825-4.555 7.424-1.798 2.393-4.942 6.026-6.988 8.072-2.046 2.046-3.977 3.719-4.292 3.719-.361 0 .186-1.16 1.488-3.154 1.132-1.735 2.691-4.487 3.463-6.114.773-1.628 1.867-4.553 2.431-6.501.565-1.948 1.027-4.497 1.027-5.665 0-1.471-.33-2.784-1.072-4.275-.702-1.406-1.618-2.495-2.651-3.147-1.017-.642-2.18-.996-3.275-.996-1.409 0-1.927.242-3.039 1.421-.783.831-1.691 2.49-2.182 3.988-.462 1.411-1.044 3.761-1.293 5.223-.249 1.462-.554 6.247-.678 10.633-.137 4.837-.042 9.653.241 12.243.257 2.347.677 4.971.935 5.83.257.859 1.102 2.303 1.877 3.209.776.906 2.172 2.044 3.104 2.531 1.173.612 2.407.88 4.01.869 1.655-.011 2.951-.326 4.543-1.105 1.225-.599 3.164-2.08 4.309-3.291 1.799-1.902 2.234-2.708 3.198-5.928.613-2.049 1.266-3.726 1.451-3.726.185 0 .336 3.773.336 8.383v8.384l-9.303-.006c-6.893-.005-9.992-.168-11.962-.631-1.462-.344-4.004-1.289-5.648-2.1-1.645-.812-3.794-2.256-4.776-3.211-.983-.955-2.271-2.693-2.864-3.863s-1.449-3.535-1.903-5.257c-.527-2.003-.899-5.044-1.033-8.446-.115-2.924-.027-6.421.196-7.77.222-1.35.345-2.517.272-2.594-.072-.077-.397.383-.72 1.022-.324.64-.819 2.407-1.1 3.928-.281 1.521-.654 2.854-.828 2.961-.173.107-.439-.677-.59-1.743-.15-1.066-.74-3.503-1.31-5.414-.571-1.912-1.683-4.711-2.472-6.22-.789-1.509-2.057-3.219-2.817-3.799-.761-.579-2.352-1.505-3.537-2.057-1.184-.551-2.568-1.004-3.074-1.006l-.92-.004v45.729l-1.611.272c-.886.15-2.865.881-4.396 1.626-1.675.813-3.593 2.185-4.814 3.444-1.116 1.15-2.174 2.091-2.351 2.091-.178 0-.328-11.456-.336-25.457-.01-20.778-.115-25.59-.567-26.187-.305-.402-1.096-.887-1.758-1.076-.662-.19-2.522-.478-4.135-.64-1.613-.162-2.932-.416-2.932-.565 0-.149 1.15-.603 2.556-1.009Zm111.895-.898c1.098-.598 2.894-1.998 3.99-3.112l1.991-2.024.119 3.29c.065 1.808.174 3.289.243 3.289.068 0 1.171-.36 2.452-.801 1.28-.441 4.546-1.948 7.256-3.348l4.928-2.548 2.992 3.203c2.833 3.033 3.064 3.189 4.36 2.945.753-.142 4-1.581 7.217-3.199l5.848-2.94 2.982 3.234 2.983 3.234 2.415-.749c1.328-.411 4.56-1.875 7.181-3.253l4.767-2.504 3.496 3.669 3.496 3.67.019 23.11.018 23.11-2.658.761c-1.461.419-3.497 1.294-4.522 1.945-1.026.65-2.771 2.029-3.877 3.063l-2.011 1.881-.111-25.595c-.111-25.42-.117-25.6-.974-26.457-.617-.617-1.577-.928-3.374-1.09l-2.511-.228v45.843l-1.592.269c-.876.148-2.736.81-4.132 1.47-1.397.66-3.717 2.234-5.155 3.497l-2.616 2.296v-50.762l-.924-1.075c-.757-.879-1.39-1.117-3.476-1.307l-2.552-.231v45.843l-1.592.269c-.876.148-2.727.805-4.114 1.461-1.386.656-3.585 2.207-4.885 3.447-1.3 1.241-2.486 2.256-2.634 2.256-.148 0-.27-11.309-.27-25.131 0-18.034-.132-25.421-.469-26.16-.267-.587-1.016-1.196-1.738-1.416-.698-.212-2.419-.503-3.825-.646l-2.555-.259.004 7.279.006 7.279 1.408.912c.949.615 1.55 1.415 1.842 2.454.238.848.706 1.899 1.04 2.335.334.437.607 1.11.607 1.497s-.567 1.18-1.258 1.762c-.692.583-1.576 1.059-1.963 1.059-.388 0-.926.221-1.196.491-.27.27-.49 1.015-.49 1.656s.26 1.668.578 2.283c.318.615.71 1.849.871 2.741.161.892.898 2.633 1.638 3.87.739 1.237 1.467 2.855 1.618 3.595.171.838.087 1.571-.221 1.943-.272.328-1.106.596-1.852.596-.747 0-1.471-.184-1.61-.409-.139-.224-.426-.408-.638-.408-.211 0-.384.344-.384.764 0 .566-.507.903-1.943 1.294-1.068.291-2.867.93-3.998 1.422-1.131.49-3.207 1.958-4.613 3.26-1.407 1.302-2.598 2.296-2.647 2.21l-.05-.091-.057-.104-.423-.781c-.241-.45-1.069-1.14-1.84-1.533-.959-.49-2.367-.718-4.467-.723-1.687-.004-4.29-.267-5.784-.583-1.495-.317-3.519-.977-4.499-1.468-.98-.49-2.459-1.541-3.287-2.335l-1.506-1.444-.803 1.321c-.442.727-1.035 2.178-1.318 3.225-.283 1.047-.679 2.118-.88 2.379-.201.261-.955.445-1.675.409-1.092-.055-1.33-.246-1.434-1.151-.069-.597.448-2.529 1.148-4.294a279.33 279.33 0 0 1 1.525-3.787c.15-.348.076-.471-.185-.31-.299.185-.332-.19-.105-1.194.221-.981.151-1.892-.215-2.767-.299-.716-.836-2.838-1.191-4.713-.356-1.875-.647-5.045-.647-7.045 0-2.233.163-3.635.423-3.635.281 0 .27-.287-.034-.854-.285-.533-.35-1.646-.172-2.964.156-1.162.718-3.492 1.249-5.179.531-1.687 1.685-4.156 2.563-5.487 1.563-2.37 1.584-2.451.998-3.852-.437-1.046-.485-1.677-.18-2.346.24-.528.945-1.032 1.666-1.19.815-.179 1.705-.047 2.558.378 1.219.609 1.475.597 3.786-.166 1.363-.449 3.766-1.002 5.341-1.226 1.574-.224 4.172-.411 5.772-.416 2.527-.006 3.293.184 5.825 1.451l2.915 1.458 1.998-1.088Zm-223.378 4.004c-.357-.691-1.273-1.641-2.036-2.113-1.03-.637-2.058-.857-3.997-.855-2.106.002-2.82.179-3.701.92-.6.505-1.46 1.665-1.912 2.578-.45.914-1.102 2.754-1.447 4.09-.346 1.336-.844 4.637-1.108 7.336-.272 2.789-.385 7.644-.262 11.246.12 3.486.523 7.811.896 9.61.374 1.799 1.21 4.421 1.86 5.827.649 1.405 1.677 3.015 2.284 3.578.663.614 1.59 1.023 2.32 1.023.86 0 1.66-.448 2.74-1.534.888-.894 1.907-2.557 2.441-3.987.505-1.349 1.193-3.742 1.53-5.316.448-2.09.671-6.677.827-17.005.188-12.396.134-14.298-.435-15.398Zm214.433-1.74c0-.155-.469-.494-1.042-.755-.573-.262-2.122-.475-3.444-.475-1.975 0-2.623.184-3.634 1.035l-1.23 1.035 1.802 1.854 1.801 1.854 1.217-1.387c.67-.762 1.963-1.722 2.874-2.133.911-.411 1.656-.873 1.656-1.028Zm-18.675-.548c.15.149.395.149.545 0 .15-.151.027-.273-.272-.273-.3 0-.423.122-.273.273Zm24.398 4.868c-.002-.691-.192-1.94-.425-2.775-.231-.835-.579-1.616-.772-1.736-.193-.119-.463.074-.598.428-.136.354-.252 1.227-.257 1.94-.005.713-.382 2.119-.838 3.124-.456 1.006-1.051 1.97-1.32 2.141-.27.172-.631.315-.803.318-.172.004-.015-.683.349-1.527.364-.843.84-2.149 1.058-2.901.218-.752.309-1.455.202-1.561-.106-.106-1.085.263-2.176.82-1.091.557-2.386 1.394-2.877 1.859-.543.514-.975 1.531-1.1 2.592a27.93 27.93 0 0 0-.159 3.383c.027.899-.139 2.8-.37 4.224l-.418 2.589 1.47-1.608c.809-.885 2.223-1.992 3.142-2.461.919-.469 2.329-1.51 3.132-2.313.804-.804 1.754-2.32 2.111-3.37.358-1.051.65-2.475.649-3.166Zm-15.947-1.365c-.562-.513-1.535-1.213-2.162-1.555-.627-.343-1.812-.675-2.634-.74l-1.494-.118 1.345 1.038c.74.571 2.126 2.058 3.079 3.305.953 1.247 2.231 3.127 2.841 4.176.609 1.05 1.27 2.475 1.469 3.169.268.934.228 1.262-.154 1.262-.283 0-1.212-1.373-2.063-3.05-.851-1.677-2.55-4.157-3.775-5.511-1.226-1.354-2.79-2.861-3.476-3.351-1.237-.88-1.245-.88-.793-.036.251.469.456 1.224.456 1.677 0 .454.197 1.742.438 2.864.385 1.796.878 2.476 4.129 5.706 2.754 2.736 3.632 3.859 3.455 4.422-.131.415.035 1.658.369 2.762.333 1.104.606 2.99.606 4.192v2.184l2.352-.021c1.293-.011 3.837-.344 5.654-.739 1.854-.404 3.738-.592 4.294-.429.545.159 2.513.711 4.373 1.226l3.382.938 1.934-1.867c1.064-1.026 2.283-2.05 2.71-2.275.666-.351.435-.537-1.622-1.307-1.319-.493-3.313-1.071-4.431-1.283-1.519-.288-2.634-.231-4.409.224-1.307.334-3.139.997-4.071 1.473-.932.476-2.587 1.491-3.677 2.258-1.09.766-2.168 1.393-2.395 1.393-.227 0-.413-.243-.413-.54 0-.296.414-.895.92-1.329.506-.434 2.392-1.552 4.191-2.484 1.8-.933 4.1-1.932 5.112-2.221 1.012-.289 1.963-.538 2.113-.554.15-.016.399-.155.553-.309.154-.155.768-.083 1.363.158.596.241 1.574.411 2.174.378.601-.032 1.381.231 1.735.584.354.354.841.522 1.083.373.242-.15.673.048.959.438.286.391.702.64.926.553.247-.097.279-.641.081-1.386-.239-.902-.758-1.414-1.961-1.934-.9-.39-2.24-.749-2.979-.799-.739-.049-1.804-.419-2.366-.822-.563-.402-2.08-.942-3.373-1.2-1.985-.396-2.623-.364-4.113.205-.97.37-2.792 1.654-4.051 2.854-1.258 1.199-2.875 3.222-3.593 4.494-.718 1.273-1.473 2.314-1.676 2.314-.203 0-.37-.288-.37-.64 0-.352.357-1.502.793-2.556.436-1.054.992-3.501 1.235-5.437.325-2.592.317-4.105-.028-5.726-.277-1.3-.992-2.872-1.746-3.835-.702-.898-1.736-2.052-2.299-2.566Zm-112.892 2.025c-.474-.604-1.26-1.322-1.747-1.595-.487-.273-1.385-.503-1.996-.511-.671-.009-1.675.481-2.536 1.237-.868.762-1.769 2.161-2.305 3.578-.485 1.28-1.162 3.799-1.506 5.598-.429 2.249-.64 6.083-.673 12.268-.039 7.303.092 9.651.698 12.473.41 1.912 1.289 4.616 1.953 6.011.664 1.394 1.687 2.912 2.274 3.373.586.462 1.519.839 2.073.839.553 0 1.497-.29 2.098-.644.6-.355 1.497-1.264 1.993-2.02.495-.756 1.262-2.447 1.703-3.757.442-1.311 1.023-4.036 1.292-6.057.321-2.414.409-6.552.255-12.058-.138-4.918-.485-9.566-.841-11.246-.333-1.574-.891-3.656-1.24-4.627-.349-.97-1.022-2.258-1.495-2.862Zm107.498 7.3c.07-.008.013-.199-.126-.424-.139-.225-.932-.408-1.762-.407-.831 0-2.108.366-2.839.811-.731.446-1.329.891-1.329.988 0 .098.598.022 1.329-.17a29.93 29.93 0 0 1 2.965-.565l1.762-.233Zm1.329 1.621c.238 0 .32-.184.181-.409-.14-.225-.334-.409-.434-.409-.099 0-.18.184-.18.409 0 .225.195.409.433.409Zm-2.009.648c-1.506.158-2.105.092-1.918-.21.149-.241.122-.43-.06-.42-.182.009-1.067.278-1.967.597-.899.32-1.958.976-2.351 1.459-.393.483-.716 1.043-.716 1.242 0 .2.875.365 1.943.366 1.068.002 2.662.202 3.543.447.88.244 1.826.67 2.101.946.276.276 1.065.975 1.754 1.554.687.579 1.588 1.608 2.001 2.287.508.835.699 1.775.591 2.906-.088.92-.324 1.673-.525 1.673s-.366-.198-.366-.439c0-.242-.237-.38-.528-.307-.29.073-2.065 1.788-3.943 3.813-1.879 2.024-3.666 4.272-3.971 4.996-.305.724-.555 1.69-.555 2.147 0 .457.169.831.376.831.206 0 .666-.112 1.022-.248.356-.137.647-.429.647-.651 0-.22.414-.747.92-1.169.506-.422 1.147-.773 1.426-.781.278-.008 1.126-.691 1.885-1.519.855-.933 1.305-1.786 1.186-2.244-.107-.407-.386-.621-.62-.477-.249.154-.303.065-.129-.216.163-.263.451-.382.64-.265.19.117.887-.478 1.549-1.322.662-.845 1.421-1.952 1.687-2.459.266-.508.5-2.257.519-3.887.025-2.222-.209-3.575-.936-5.405-.637-1.601-1.323-2.618-1.993-2.957-.65-.329-1.82-.434-3.212-.288Zm3.276 10.393c0 .562.093.792.207.511a1.583 1.583 0 0 0 0-1.022c-.114-.281-.207-.051-.207.511Zm18.366 2.114c1.15-.557 1.215-.67.538-.936-.424-.166-2.013-.316-3.531-.332-1.586-.016-2.76.146-2.76.381 0 .225.322.417.716.427.393.009 1.393.26 2.222.556 1.288.46 1.696.446 2.815-.096Zm3.641.464c.106-.093-.078-.34-.409-.549-.331-.21-.694-.365-.806-.346-.113.019-.665.169-1.227.333-.92.268-.858.319.613.514.9.119 1.723.141 1.829.048Zm-7.061 4.536c-1.009-1.373-2.383-2.886-3.053-3.364-.67-.477-1.722-1.059-2.337-1.293-1.023-.389-.963-.251.697 1.595.999 1.112 2.106 2.817 2.458 3.789.353.973.89 2.596 1.192 3.606.447 1.493.933 2.087 2.59 3.17 1.122.732 2.155 1.332 2.294 1.332.14 0 .397-.966.571-2.147.174-1.181.317-2.607.317-3.17 0-.562-.439-1.931-.975-3.043-.699-1.446-1.498-2.337-2.816-3.137-1.012-.614-2.024-1.125-2.249-1.135-.225-.01-.041.298.409.684.45.386 1.331 1.491 1.959 2.455.627.965 1.316 2.215 1.53 2.779.316.831.281.964-.182.701-.314-.18-1.397-1.449-2.405-2.822Zm-6.447-1.989-1.295-1.335c-.712-.735-1.581-1.331-1.93-1.323-.35.007-.911.245-1.249.529-.337.284-1.332 1.281-2.211 2.216l-1.596 1.7 1.801-.893c1.217-.602 2.561-.892 4.141-.893l2.339-.001Zm18.257.497c.166-.166-.022-.658-.418-1.095-.395-.437-1.252-.98-1.906-1.208-.653-.228-1.187-.262-1.187-.076s.557.569 1.237.85c.68.282 1.402.809 1.605 1.171.202.362.504.523.669.358Zm-.166 2.42c-1.052-1.087-2.926-2.489-4.163-3.116-1.237-.627-2.704-1.28-3.261-1.454-.969-.301-.954-.248.34 1.227.826.94 1.278 1.828 1.16 2.279-.106.407.073 1.119.398 1.583.328.467 1.045.844 1.606.844.557 0 1.513.308 2.123.684.611.376 1.678 1.274 2.373 1.995.694.721 1.676 1.532 2.182 1.803.505.27.983.428 1.062.35.078-.078-.319-1.059-.882-2.18-.563-1.121-1.885-2.928-2.938-4.015Zm-15.189 2.955c-.65-2.027-1.122-2.819-1.891-3.169-.564-.257-1.982-.454-3.153-.438-1.17.015-2.901.372-3.846.793l-1.719.764.814 2.937c.448 1.615 1.104 3.513 1.458 4.217.354.703 1.212 1.877 1.905 2.608.788.83 1.657 1.329 2.317 1.329.58 0 1.511-.314 2.066-.697.557-.383 1.236-.981 1.509-1.329.274-.348.797-1.247 1.161-1.998l.664-1.366 1.088.953c.809.709.755.587-.209-.474-.75-.825-1.664-2.569-2.164-4.13Z" clip-rule="evenodd"/>
  <path d="M.172 77.827 15.66 11.056H60.3l-1.214 4.653H19.608l-5.973 25.798h31.481l-1.113 4.756h-31.38l-6.175 26.91h41.2l-1.114 4.654H.172Zm69.113-36.29 7.07-30.481h6.175l12.978 30.48-5.795.001-6.879-16.115-3.037-8.903h-.1l-1.722 8.397-3.847 16.621h-4.843Zm-8.417 36.29 7.333-31.613h4.844l-7.318 31.613h-4.859ZM91.71 46.214l13.495 31.613h6.073l7.333-31.613h-4.809l-4.143 17.753-1.62 8.397h-.101L104.8 63.36l-7.3-17.146h-5.79Zm27.986-4.677h-4.802l7.114-30.481h4.758l-7.07 30.48Zm22.575-3.672c1.147 1.012 2.564 1.518 4.251 1.518 1.958 0 3.577-.675 4.859-2.023 1.35-1.35 2.025-3.17 2.025-5.463 0-1.687-.574-3.036-1.721-4.047-1.08-1.08-2.463-1.619-4.15-1.619-1.89 0-3.509.674-4.859 2.023-1.35 1.35-2.025 3.17-2.025 5.463 0 1.687.54 3.07 1.62 4.148Zm-4.859 40.974c-1.687 0-3.104-.506-4.251-1.518-1.08-1.079-1.62-2.461-1.62-4.147 0-2.294.675-4.115 2.025-5.464 1.349-1.349 2.969-2.023 4.858-2.023 1.688 0 3.071.54 4.151 1.619 1.147 1.011 1.721 2.36 1.721 4.046 0 2.294-.675 4.115-2.025 5.463-1.282 1.35-2.902 2.024-4.859 2.024Zm123.627-37.302h19.963l.671-3.57h.202l.95 3.57h18.508l-8.728-30.481h-24.496l-7.07 30.48Zm-8.418 36.29 7.333-31.613h20.168l-1.283 6.827-5.77 24.786h-20.448Zm31.449-31.613.336 1.263 9.414 30.35h24.193l7.332-31.613H305.26l-1.115 5.714h-.203l-1.413-5.714H284.07Zm42.36-4.677h-20.258l1.111-5.695 5.77-24.786H333.5l-7.07 30.48Zm9.047 4.677-7.332 31.613h23.586l3.745-16.288 8.199-7.588 8.503 23.876h23.889l-11.675-31.613h-48.915Zm1.085-4.677h46.103l-.87-2.356 28.95-28.125h-25.408l-23.383 22.56 5.264-22.56h-23.586l-7.07 30.48Zm-172.595 4.677-7.332 31.613h54.864l4.049-17.3h-31.279l3.31-14.313h-23.612Zm1.085-4.677h23.608l7.048-30.481h-23.586l-7.07 30.48Zm61.193 4.677-7.333 31.613h23.586l7.332-31.613h-23.585Zm1.085-4.677h23.585l7.07-30.481H234.4l-7.07 30.48ZM626.6 86.443c-.439 0-.799-.14-1.078-.42-.28-.279-.42-.638-.42-1.078V45.994c0-.44.14-.8.42-1.079.279-.28.639-.42 1.078-.42h27.985c.44 0 .799.14 1.079.42.28.28.42.64.42 1.079v5.633c0 .44-.14.799-.42 1.078-.28.28-.639.42-1.079.42h-19.116v8.09h17.798c.44 0 .799.16 1.079.48.279.279.419.639.419 1.078v5.213c0 .4-.14.76-.419 1.08-.28.279-.639.419-1.079.419h-17.798v8.33h19.596c.439 0 .799.139 1.079.419.279.28.419.639.419 1.078v5.633c0 .44-.14.8-.419 1.079-.28.28-.64.42-1.079.42H626.6Zm38.273 0c-.44 0-.799-.14-1.079-.42-.279-.279-.419-.638-.419-1.078V45.994c0-.44.14-.8.419-1.079.28-.28.639-.42 1.079-.42h6.352c.679 0 1.159.16 1.438.48.32.28.52.5.599.66l14.622 23.07v-22.71c0-.44.14-.8.42-1.079.279-.28.639-.42 1.078-.42h7.191c.44 0 .799.14 1.079.42.28.28.419.64.419 1.079v38.951c0 .4-.139.76-.419 1.079-.28.28-.639.42-1.079.42h-6.412c-.639 0-1.118-.16-1.438-.48-.28-.32-.459-.54-.539-.66l-14.622-22.172v21.813c0 .44-.14.8-.419 1.079-.28.28-.64.42-1.079.42h-7.191Zm60.632 0c-.679 0-1.218-.2-1.618-.599-.399-.4-.639-.859-.719-1.378l-6.531-38.292a.531.531 0 0 1-.06-.24v-.18c0-.32.119-.599.359-.839.28-.28.579-.42.899-.42h7.431c1.118 0 1.738.44 1.857 1.32l3.896 23.43 4.314-13.843c.12-.32.32-.659.599-1.019.28-.4.739-.599 1.379-.599h4.314c.679 0 1.159.2 1.438.6.28.359.46.699.54 1.018l4.314 13.783 3.896-23.37c.119-.88.739-1.32 1.857-1.32h7.431c.359 0 .659.14.899.42.239.24.359.52.359.84v.419l-6.531 38.292c-.08.52-.32.979-.72 1.378-.399.4-.938.6-1.618.6h-5.692c-.68 0-1.199-.18-1.559-.54-.359-.36-.599-.7-.719-1.019l-6.052-17.138-6.052 17.138c-.12.32-.36.66-.72 1.019-.319.36-.819.54-1.498.54h-5.693Zm43.87 0c-.439 0-.799-.14-1.078-.42-.28-.279-.42-.638-.42-1.078V56.78c0-.439.14-.799.42-1.078.279-.28.639-.42 1.078-.42h7.071c.4 0 .739.14 1.019.42.32.28.48.639.48 1.078v28.165c0 .44-.16.8-.48 1.079-.28.28-.619.42-1.019.42h-7.071Zm-.06-35.655c-.439 0-.799-.14-1.078-.42-.28-.28-.42-.639-.42-1.078v-5.334c0-.439.14-.799.42-1.078.279-.32.639-.48 1.078-.48h7.131c.44 0 .799.16 1.079.48.32.28.479.639.479 1.078v5.334c0 .44-.159.799-.479 1.078-.28.28-.639.42-1.079.42h-7.131Zm17.148 35.655c-.439 0-.799-.14-1.078-.42-.28-.279-.42-.638-.42-1.078v-39.55c0-.44.14-.8.42-1.079.279-.28.639-.42 1.078-.42h6.952c.399 0 .739.14 1.018.42.32.28.48.64.48 1.079V65.47l8.329-9.169c.24-.28.5-.52.779-.72.28-.199.679-.299 1.199-.299h8.03c.359 0 .659.14.899.42.279.24.419.54.419.899 0 .16-.04.34-.12.539-.08.2-.199.36-.359.48l-10.787 11.625 12.285 14.921c.319.32.479.64.479.959 0 .36-.14.68-.419.959-.24.24-.56.36-.959.36h-8.21c-.599 0-1.038-.1-1.318-.3-.28-.24-.539-.48-.779-.72l-9.468-11.385v10.906c0 .44-.16.8-.48 1.079-.279.28-.619.42-1.018.42h-6.952Zm34.996 0c-.44 0-.799-.14-1.079-.42-.28-.279-.42-.638-.42-1.078V56.78c0-.439.14-.799.42-1.078.28-.28.639-.42 1.079-.42h7.071c.399 0 .739.14 1.018.42.32.28.48.639.48 1.078v28.165c0 .44-.16.8-.48 1.079-.279.28-.619.42-1.018.42h-7.071Zm-.06-35.655c-.44 0-.799-.14-1.079-.42-.28-.28-.419-.639-.419-1.078v-5.334c0-.439.139-.799.419-1.078.28-.32.639-.48 1.079-.48h7.131c.439 0 .799.16 1.078.48.32.28.48.639.48 1.078v5.334c0 .44-.16.799-.48 1.078-.279.28-.639.42-1.078.42h-7.131ZM624.281 30.443a.866.866 0 0 1-.639-.248.864.864 0 0 1-.249-.64V6.474c0-.26.083-.473.249-.639a.866.866 0 0 1 .639-.249h16.584c.26 0 .473.083.639.249a.864.864 0 0 1 .249.64V9.81c0 .26-.083.474-.249.64a.866.866 0 0 1-.639.248h-11.328v4.794h10.547c.26 0 .473.095.639.284a.864.864 0 0 1 .249.64v3.089c0 .237-.083.45-.249.64a.866.866 0 0 1-.639.248h-10.547v4.936h11.612c.261 0 .474.083.639.248a.864.864 0 0 1 .249.64v3.338c0 .26-.083.473-.249.639a.863.863 0 0 1-.639.248h-16.868Zm22.29 0a.867.867 0 0 1-.64-.248.868.868 0 0 1-.248-.64v-16.69c0-.26.083-.473.248-.639a.867.867 0 0 1 .64-.249h4.083c.261 0 .474.083.64.249a.868.868 0 0 1 .248.64v1.349c.616-.734 1.421-1.35 2.415-1.847.994-.497 2.166-.746 3.516-.746 1.373 0 2.58.308 3.622.924 1.065.615 1.894 1.527 2.486 2.734.615 1.184.923 2.64.923 4.368v9.908c0 .26-.095.473-.284.639a.823.823 0 0 1-.604.248h-4.474a.944.944 0 0 1-.639-.248.864.864 0 0 1-.249-.64v-9.694c0-1.113-.272-1.965-.817-2.557-.521-.615-1.302-.923-2.344-.923-.97 0-1.751.308-2.343.923-.569.592-.853 1.444-.853 2.557v9.695a.81.81 0 0 1-.284.639.82.82 0 0 1-.603.248h-4.439Zm29.495.355c-1.538 0-2.852-.165-3.941-.497-1.066-.355-1.942-.78-2.628-1.278-.663-.497-1.16-1.006-1.492-1.527-.331-.545-.509-1.006-.532-1.385a.717.717 0 0 1 .248-.64c.19-.189.391-.283.604-.283h4.048c.071 0 .131.012.178.035.047.024.118.071.213.142.308.166.615.379.923.64.308.236.663.45 1.066.639.402.189.887.284 1.456.284.662 0 1.219-.13 1.669-.39.449-.261.674-.652.674-1.173 0-.379-.106-.686-.319-.923-.213-.26-.651-.51-1.314-.746-.639-.237-1.61-.473-2.912-.71-1.231-.284-2.308-.651-3.232-1.1-.923-.474-1.633-1.078-2.13-1.812-.498-.758-.746-1.669-.746-2.734 0-.947.308-1.859.923-2.735.616-.876 1.515-1.586 2.699-2.13 1.184-.569 2.64-.853 4.368-.853 1.373 0 2.557.166 3.551.498 1.018.307 1.87.71 2.557 1.207.71.497 1.243 1.006 1.598 1.527.355.52.544.994.568 1.42a.811.811 0 0 1-.213.64.782.782 0 0 1-.568.248h-3.693a1.16 1.16 0 0 1-.284-.035 2.299 2.299 0 0 1-.249-.142 4.445 4.445 0 0 1-.852-.569 5.117 5.117 0 0 0-.995-.639c-.378-.19-.852-.284-1.42-.284-.639 0-1.136.142-1.492.426a1.345 1.345 0 0 0-.532 1.101c0 .308.094.592.284.852.213.26.627.497 1.243.71.639.214 1.621.45 2.947.71 1.634.261 2.936.687 3.906 1.28.971.567 1.658 1.242 2.06 2.023a5.07 5.07 0 0 1 .604 2.415c0 1.136-.343 2.143-1.03 3.019-.663.875-1.657 1.562-2.983 2.06-1.326.473-2.936.71-4.83.71Zm20.552 0c-2.793 0-5.019-.757-6.676-2.272-1.657-1.515-2.521-3.764-2.592-6.747v-1.243c.071-1.87.485-3.469 1.243-4.794.781-1.35 1.846-2.368 3.196-3.054 1.373-.71 2.971-1.066 4.794-1.066 2.083 0 3.799.415 5.149 1.243 1.373.829 2.403 1.953 3.089 3.374.687 1.42 1.03 3.042 1.03 4.865v.852c0 .26-.095.474-.284.64a.822.822 0 0 1-.604.248H693.6v.249a5.9 5.9 0 0 0 .355 1.882c.213.568.544 1.018.994 1.349.45.331.994.497 1.634.497.473 0 .864-.07 1.172-.213.331-.166.603-.343.816-.532.213-.214.379-.391.497-.533.214-.237.379-.379.498-.426.142-.071.355-.107.639-.107h4.403c.237 0 .426.071.568.213.166.119.237.296.213.533-.023.402-.224.888-.603 1.456s-.935 1.136-1.669 1.704c-.71.545-1.61.995-2.699 1.35-1.089.355-2.356.533-3.8.533Zm-3.018-11.47h6.001v-.07c0-.758-.118-1.421-.355-1.99-.213-.568-.556-1.006-1.03-1.313-.45-.308-.994-.462-1.633-.462-.64 0-1.184.154-1.634.462-.426.307-.757.745-.994 1.314-.237.568-.355 1.23-.355 1.988v.071Zm16.468 11.115a.866.866 0 0 1-.639-.248.864.864 0 0 1-.249-.64v-16.69c0-.26.083-.473.249-.639a.866.866 0 0 1 .639-.249h3.871c.26 0 .473.083.639.249a.864.864 0 0 1 .249.64v1.207c.473-.64 1.136-1.196 1.988-1.67.853-.497 1.859-.757 3.019-.78 2.722-.048 4.593.982 5.611 3.089.544-.9 1.325-1.634 2.343-2.202a6.524 6.524 0 0 1 3.338-.888c1.231 0 2.332.284 3.303.853.994.544 1.787 1.396 2.379 2.556.592 1.137.888 2.616.888 4.44v10.085c0 .26-.095.473-.284.639a.823.823 0 0 1-.604.248h-4.119a.992.992 0 0 1-.675-.248.864.864 0 0 1-.248-.64V19.72c0-.829-.119-1.48-.356-1.953-.236-.497-.556-.852-.958-1.066-.403-.213-.864-.32-1.385-.32a2.84 2.84 0 0 0-1.279.32c-.402.213-.734.569-.994 1.066-.237.473-.355 1.124-.355 1.953v9.837c0 .26-.083.473-.249.639a.864.864 0 0 1-.639.248h-4.119a.863.863 0 0 1-.639-.248.864.864 0 0 1-.249-.64V19.72c0-.829-.13-1.48-.391-1.953-.26-.497-.592-.852-.994-1.066a2.837 2.837 0 0 0-1.349-.32c-.427 0-.853.107-1.279.32-.402.213-.734.569-.994 1.066-.237.473-.355 1.113-.355 1.917v9.873c0 .26-.095.473-.284.639a.867.867 0 0 1-.64.248h-4.19Zm42.899.355c-1.326 0-2.438-.224-3.338-.674-.876-.45-1.598-1.018-2.166-1.705v1.137c0 .26-.095.473-.284.639a.823.823 0 0 1-.604.248h-4.013a.866.866 0 0 1-.639-.248.864.864 0 0 1-.248-.64V6.119c0-.26.082-.473.248-.64a.866.866 0 0 1 .639-.248h4.333c.26 0 .473.083.639.249a.864.864 0 0 1 .249.64v7.598c.568-.615 1.278-1.112 2.13-1.491.876-.402 1.894-.604 3.054-.604 1.184 0 2.226.202 3.125.604a6.157 6.157 0 0 1 2.344 1.669c.639.734 1.136 1.61 1.491 2.628.356 1.018.557 2.166.604 3.445.024.45.036.864.036 1.242 0 .355-.012.77-.036 1.243-.047 1.326-.26 2.51-.639 3.551-.355 1.018-.852 1.894-1.491 2.628a6.417 6.417 0 0 1-2.309 1.634c-.899.355-1.941.533-3.125.533Zm-1.917-4.758c.805 0 1.432-.166 1.882-.497.45-.332.769-.781.959-1.35a6.63 6.63 0 0 0 .39-1.882 16.85 16.85 0 0 0 0-2.201 6.63 6.63 0 0 0-.39-1.883c-.19-.568-.509-1.018-.959-1.349-.45-.331-1.077-.497-1.882-.497-.734 0-1.338.166-1.811.497a2.865 2.865 0 0 0-1.066 1.243 4.127 4.127 0 0 0-.39 1.633 24.672 24.672 0 0 0 0 2.664 5.37 5.37 0 0 0 .355 1.775 3.04 3.04 0 0 0 1.03 1.35c.473.331 1.1.497 1.882.497Zm13.915 4.403a.866.866 0 0 1-.639-.248.864.864 0 0 1-.249-.64V6.119c0-.26.083-.473.249-.64a.866.866 0 0 1 .639-.248h4.19c.261 0 .474.083.64.249a.868.868 0 0 1 .248.64v23.437c0 .26-.083.473-.248.639a.867.867 0 0 1-.64.248h-4.19Zm17.796.355c-2.794 0-5.019-.757-6.676-2.272-1.657-1.515-2.521-3.764-2.592-6.747v-1.243c.071-1.87.485-3.469 1.242-4.794.782-1.35 1.847-2.368 3.196-3.054 1.374-.71 2.972-1.066 4.795-1.066 2.083 0 3.799.415 5.149 1.243 1.373.829 2.403 1.953 3.089 3.374.687 1.42 1.03 3.042 1.03 4.865v.852c0 .26-.095.474-.284.64a.822.822 0 0 1-.604.248h-11.363v.249a5.9 5.9 0 0 0 .355 1.882c.213.568.544 1.018.994 1.349.45.331.994.497 1.634.497.473 0 .864-.07 1.171-.213.332-.166.604-.343.817-.532.213-.214.379-.391.497-.533.213-.237.379-.379.497-.426.143-.071.356-.107.64-.107h4.403c.237 0 .426.071.568.213.166.119.237.296.213.533-.023.402-.225.888-.603 1.456-.379.568-.935 1.136-1.669 1.704-.711.545-1.61.995-2.699 1.35-1.089.355-2.356.533-3.8.533Zm-3.018-11.47h6.001v-.07c0-.758-.118-1.421-.355-1.99-.213-.568-.556-1.006-1.03-1.313-.45-.308-.994-.462-1.633-.462-.64 0-1.184.154-1.634.462-.426.307-.758.745-.994 1.314-.237.568-.355 1.23-.355 1.988v.071Zm32.799 11.47c-2.367 0-4.332-.331-5.895-.994-1.562-.686-2.746-1.574-3.551-2.663-.805-1.09-1.231-2.25-1.278-3.48 0-.19.071-.355.213-.498a.782.782 0 0 1 .568-.248h4.475c.331 0 .58.06.745.178.19.118.355.272.497.461.19.355.45.699.782 1.03.355.331.805.604 1.349.817.568.19 1.267.284 2.095.284 1.373 0 2.403-.213 3.09-.64.71-.426 1.065-1.006 1.065-1.74 0-.52-.189-.946-.568-1.278-.379-.355-.994-.663-1.847-.923-.828-.284-1.941-.568-3.338-.852-1.799-.38-3.338-.864-4.616-1.456-1.255-.616-2.214-1.409-2.877-2.38-.662-.994-.994-2.225-.994-3.693 0-1.444.403-2.734 1.207-3.87.829-1.137 1.977-2.025 3.445-2.664 1.468-.64 3.208-.959 5.22-.959 1.634 0 3.066.213 4.297.64 1.255.426 2.308.994 3.161 1.704.852.71 1.491 1.468 1.917 2.273.45.781.687 1.55.711 2.308 0 .19-.072.367-.214.533a.721.721 0 0 1-.532.213h-4.688a1.49 1.49 0 0 1-.674-.142 1.306 1.306 0 0 1-.498-.462c-.142-.52-.52-.97-1.136-1.35-.592-.402-1.373-.603-2.344-.603-1.041 0-1.858.19-2.45.568-.568.355-.852.912-.852 1.67 0 .473.154.887.461 1.242.332.355.864.663 1.598.923.758.26 1.788.533 3.09.817 2.154.402 3.894.912 5.22 1.527 1.326.592 2.296 1.373 2.912 2.344.616.947.923 2.142.923 3.587 0 1.61-.461 3.006-1.385 4.19-.899 1.16-2.154 2.048-3.764 2.663-1.61.616-3.456.924-5.54.924Zm23.3-.355c-1.515 0-2.829-.236-3.942-.71a5.466 5.466 0 0 1-2.521-2.273c-.592-1.041-.888-2.379-.888-4.012v-6.819h-2.77a.993.993 0 0 1-.675-.248.867.867 0 0 1-.248-.64v-2.876c0-.26.083-.473.248-.639a.994.994 0 0 1 .675-.249h2.77V6.118c0-.26.083-.473.248-.64a.948.948 0 0 1 .64-.248h4.119c.26 0 .473.083.639.249a.864.864 0 0 1 .249.64v5.858h4.439c.26 0 .473.083.639.249a.864.864 0 0 1 .248.64v2.876c0 .26-.082.473-.248.639a.866.866 0 0 1-.639.248h-4.439v6.322c0 .804.154 1.444.461 1.917.308.474.829.71 1.563.71h2.734c.261 0 .474.083.639.249a.864.864 0 0 1 .249.64v3.089c0 .26-.083.473-.249.639a.863.863 0 0 1-.639.248h-3.302Zm12.67.355c-1.278 0-2.427-.236-3.445-.71-.994-.497-1.787-1.16-2.379-1.988a4.709 4.709 0 0 1-.888-2.806c0-1.68.687-3.006 2.06-3.977 1.373-.994 3.196-1.67 5.469-2.024l4.439-.675v-.497c0-.852-.178-1.503-.533-1.953-.355-.45-1.006-.675-1.953-.675-.663 0-1.207.13-1.634.39a2.787 2.787 0 0 0-.958 1.066 1.02 1.02 0 0 1-.888.462h-3.977c-.261 0-.462-.071-.604-.213a.72.72 0 0 1-.178-.569c0-.426.154-.911.462-1.456.331-.568.829-1.124 1.491-1.669.663-.544 1.516-.994 2.557-1.349 1.042-.355 2.297-.533 3.764-.533 1.539 0 2.853.178 3.942.533 1.089.355 1.965.852 2.628 1.492a5.926 5.926 0 0 1 1.527 2.272c.331.852.497 1.8.497 2.841v10.796a.81.81 0 0 1-.284.639.823.823 0 0 1-.604.248h-4.119a.866.866 0 0 1-.639-.248.864.864 0 0 1-.249-.64v-1.242c-.307.45-.722.864-1.243 1.243a6.088 6.088 0 0 1-1.846.887c-.687.237-1.492.355-2.415.355Zm1.669-4.048c.687 0 1.302-.142 1.847-.426.568-.308 1.006-.77 1.314-1.385.331-.64.497-1.432.497-2.38v-.496l-3.019.532c-1.112.19-1.929.486-2.45.888-.497.379-.746.829-.746 1.35 0 .402.119.745.355 1.03.237.284.545.508.924.674.378.142.805.213 1.278.213Zm14.625 3.693a.866.866 0 0 1-.639-.248.864.864 0 0 1-.249-.64v-16.69c0-.236.083-.438.249-.604a.811.811 0 0 1 .639-.284h4.084a.81.81 0 0 1 .639.284.821.821 0 0 1 .249.604v1.42a6.682 6.682 0 0 1 2.273-1.704c.899-.402 1.905-.604 3.018-.604h1.563c.236 0 .437.083.603.249a.81.81 0 0 1 .284.64v3.657a.88.88 0 0 1-.284.64.822.822 0 0 1-.603.248h-3.445c-.971 0-1.728.272-2.273.816-.521.521-.781 1.267-.781 2.238v9.09a.813.813 0 0 1-.284.64.866.866 0 0 1-.639.248h-4.404Zm22.838.355c-1.539 0-2.853-.165-3.942-.497-1.065-.355-1.941-.78-2.628-1.278-.663-.497-1.16-1.006-1.491-1.527-.332-.545-.509-1.006-.533-1.385a.717.717 0 0 1 .248-.64c.19-.189.391-.283.604-.283h4.048c.072 0 .131.012.178.035.047.024.118.071.213.142.308.166.616.379.923.64.308.236.663.45 1.066.639.402.189.888.284 1.456.284.663 0 1.219-.13 1.669-.39.45-.261.674-.652.674-1.173 0-.379-.106-.686-.319-.923-.213-.26-.651-.51-1.314-.746-.639-.237-1.61-.473-2.912-.71-1.231-.284-2.308-.651-3.232-1.1-.923-.474-1.633-1.078-2.13-1.812-.497-.758-.746-1.669-.746-2.734 0-.947.308-1.859.923-2.735.616-.876 1.516-1.586 2.699-2.13 1.184-.569 2.64-.853 4.368-.853 1.373 0 2.557.166 3.551.498 1.018.307 1.871.71 2.557 1.207.71.497 1.243 1.006 1.598 1.527.355.52.545.994.568 1.42a.811.811 0 0 1-.213.64.782.782 0 0 1-.568.248h-3.693a1.16 1.16 0 0 1-.284-.035 2.299 2.299 0 0 1-.249-.142 4.445 4.445 0 0 1-.852-.569 5.139 5.139 0 0 0-.994-.639c-.379-.19-.853-.284-1.421-.284-.639 0-1.136.142-1.491.426a1.346 1.346 0 0 0-.533 1.101c0 .308.095.592.284.852.213.26.627.497 1.243.71.639.214 1.622.45 2.947.71 1.634.261 2.936.687 3.907 1.28.97.567 1.657 1.242 2.059 2.023a5.07 5.07 0 0 1 .604 2.415c0 1.136-.343 2.143-1.03 3.019-.663.875-1.657 1.562-2.983 2.06-1.326.473-2.935.71-4.829.71Zm-335.5 12.188c-5.681-3.55-12.782-9.764-19.528-16.333-7.278-7.278-14.024-15.09-17.93-21.303-1.597-2.485-5.325-2.485-6.923 0-7.634 11.895-25.741 30.002-37.635 37.636-2.486 1.597-2.486 5.325 0 6.923 11.894 7.634 30.001 25.741 37.635 37.635 1.598 2.486 5.326 2.486 6.923 0 3.906-6.213 10.652-14.024 17.93-21.303 6.746-6.568 13.847-12.781 19.528-16.332 2.663-1.775 2.663-5.326 0-6.923Zm-26.629 16.51c-4.438-3.906-8.698-7.28-12.426-9.587-2.486-1.598-2.486-5.326 0-6.923 3.728-2.308 7.988-5.681 12.426-9.587 4.794 4.794 9.942 9.41 14.735 13.137-4.793 3.55-9.941 8.166-14.735 12.96Z"/>
  <path d="M554.097 17.422c7.634 9.764 19.173 21.303 28.937 28.936-9.764 7.634-21.303 19.173-28.937 28.937-7.633-9.764-19.173-21.303-28.936-28.937 9.763-7.633 21.303-19.172 28.936-28.936Zm0-14.025c-1.243 0-2.663.71-3.55 1.953-7.456 11.894-25.564 30.002-37.458 37.636-2.486 1.597-2.486 5.325 0 6.923 11.894 7.634 30.002 25.741 37.635 37.635.888 1.243 2.13 1.953 3.551 1.953 1.242 0 2.662-.71 3.55-1.953 7.634-11.894 25.741-30.001 37.635-37.635 2.486-1.598 2.486-5.326 0-6.923-12.071-7.634-30.356-25.742-37.812-37.636-.888-1.242-2.131-1.953-3.551-1.953Zm197.925 219.134c-.679 0-1.219-.199-1.618-.599a2.437 2.437 0 0 1-.719-1.378l-6.532-38.292a.533.533 0 0 1-.06-.24v-.18c0-.319.12-.599.36-.839.279-.279.579-.419.898-.419h7.431c1.119 0 1.738.439 1.858 1.318l3.895 23.431 4.315-13.843c.119-.32.319-.659.599-1.019.279-.399.739-.599 1.378-.599h4.315c.679 0 1.158.2 1.438.599.28.36.459.699.539 1.019l4.315 13.783 3.895-23.371c.12-.879.739-1.318 1.858-1.318h7.43c.36 0 .66.14.899.419.24.24.36.52.36.839v.42l-6.532 38.292c-.08.519-.32.979-.719 1.378-.4.4-.939.599-1.618.599h-5.693c-.679 0-1.199-.18-1.558-.539-.36-.36-.599-.699-.719-1.019l-6.053-17.138-6.052 17.138c-.12.32-.36.659-.719 1.019-.32.359-.819.539-1.498.539h-5.693Zm43.87 0c-.44 0-.799-.14-1.079-.419-.28-.28-.419-.639-.419-1.079v-28.165c0-.439.139-.799.419-1.078.28-.28.639-.42 1.079-.42h7.071c.399 0 .739.14 1.019.42.319.279.479.639.479 1.078v28.165c0 .44-.16.799-.479 1.079-.28.279-.62.419-1.019.419h-7.071Zm-.06-35.655c-.44 0-.799-.14-1.079-.42-.28-.279-.419-.639-.419-1.078v-5.334c0-.439.139-.799.419-1.078.28-.32.639-.48 1.079-.48h7.131c.439 0 .799.16 1.079.48.319.279.479.639.479 1.078v5.334c0 .439-.16.799-.479 1.078-.28.28-.64.42-1.079.42h-7.131Zm17.148 35.655c-.44 0-.799-.14-1.079-.419-.28-.28-.419-.639-.419-1.079v-39.55c0-.44.139-.799.419-1.079.28-.28.639-.42 1.079-.42h6.951c.4 0 .739.14 1.019.42.319.28.479.639.479 1.079v20.074l8.33-9.168a4.34 4.34 0 0 1 .779-.719c.279-.2.679-.3 1.198-.3h8.03c.36 0 .659.14.899.42.28.239.42.539.42.899 0 .159-.04.339-.12.539-.08.2-.2.359-.36.479l-10.786 11.626 12.284 14.921c.32.32.48.639.48.959 0 .359-.14.679-.42.959-.239.239-.559.359-.959.359h-8.209c-.6 0-1.039-.1-1.319-.299-.279-.24-.539-.48-.779-.719l-9.468-11.386v10.906c0 .44-.16.799-.479 1.079a1.39 1.39 0 0 1-1.019.419h-6.951Zm34.995 0c-.439 0-.799-.14-1.079-.419-.279-.28-.419-.639-.419-1.079v-28.165c0-.439.14-.799.419-1.078.28-.28.64-.42 1.079-.42h7.071c.4 0 .739.14 1.019.42.32.279.479.639.479 1.078v28.165c0 .44-.159.799-.479 1.079a1.39 1.39 0 0 1-1.019.419h-7.071Zm-.06-35.655c-.439 0-.799-.14-1.079-.42-.279-.279-.419-.639-.419-1.078v-5.334c0-.439.14-.799.419-1.078.28-.32.64-.48 1.079-.48h7.131c.44 0 .799.16 1.079.48.319.279.479.639.479 1.078v5.334c0 .439-.16.799-.479 1.078-.28.28-.639.42-1.079.42h-7.131ZM632.333 201.8c0 1.099.549 1.648 1.593 1.648h9.118c1.099 0 1.648-.549 1.648-1.648v-9.613c0-1.043-.549-1.593-1.593-1.593h-9.118c-1.099 0-1.648.55-1.648 1.593v9.613Zm1.593 7.58c-.989 0-1.538.44-1.593 1.374-.055 1.098-.604 1.647-1.648 1.647h-3.515c-1.099 0-1.648-.549-1.648-1.592V186.09c0-1.044.549-1.593 1.593-1.593h15.984c1.044 0 1.593-.549 1.593-1.593v-5.438c0-1.099.55-1.648 1.648-1.648h4.065c1.099 0 1.648.549 1.648 1.593v5.438c0 1.099.549 1.648 1.593 1.648h15.985c1.043 0 1.592.549 1.592 1.593v24.719c0 1.043-.549 1.592-1.647 1.592h-3.516c-1.044 0-1.593-.439-1.648-1.373-.055-1.098-.604-1.648-1.593-1.648h-9.118c-1.099 0-1.648.55-1.648 1.648v12.964c0 1.098-.549 1.648-1.648 1.648h-4.065c-1.098 0-1.648-.55-1.648-1.703v-12.909c0-1.098-.549-1.648-1.648-1.648h-9.118Zm28.893-5.932c1.044 0 1.593-.549 1.593-1.648v-9.613c0-1.043-.549-1.593-1.593-1.593h-9.118c-1.099 0-1.648.55-1.648 1.648v9.613c0 1.044.549 1.593 1.648 1.593h9.118Zm46.965 5.768c-.824.878-.714 1.593.275 2.142 3.955 2.252 9.228 4.394 15.765 6.317 1.044.329 1.428.989 1.044 2.032l-.989 2.911c-.385 1.044-1.099 1.429-2.142 1.154-7.855-2.252-14.227-4.889-19.061-7.91-.934-.604-1.813-.604-2.747 0-4.833 3.021-11.205 5.658-19.06 7.91-1.044.275-1.758-.055-2.143-1.099l-.988-2.911c-.385-1.044-.055-1.758.988-2.032 6.537-1.923 11.81-4.065 15.765-6.372.989-.604 1.099-1.319.33-2.197-3.516-3.9-6.482-8.899-8.844-15.106-.384-1.044-.055-1.758 1.044-2.033l3.515-.933c1.044-.275 1.758.055 2.143 1.098 2.087 5.383 4.559 9.668 7.36 12.799.714.824 1.483.824 2.197 0 2.912-3.461 5.493-8.185 7.691-14.227.384-1.153 0-1.758-1.264-1.758h-29.552c-1.099 0-1.648-.549-1.648-1.648v-2.966c0-1.043.549-1.593 1.648-1.593h16.863c1.099 0 1.648-.549 1.648-1.648v-4.065c0-1.098.55-1.647 1.648-1.647h4.065c1.099 0 1.648.549 1.648 1.647v4.065c0 1.099.549 1.648 1.648 1.648h16.863c1.099 0 1.648.55 1.648 1.593v2.966c0 1.099-.549 1.648-1.593 1.648h-3.68c-1.099 0-1.813.55-2.197 1.593-2.692 7.91-5.988 14.117-9.888 18.622Zm-85.503-43.685a.868.868 0 0 1-.639-.248.866.866 0 0 1-.249-.64v-23.082c0-.26.083-.473.249-.639a.865.865 0 0 1 .639-.249h16.584c.26 0 .473.083.639.249a.865.865 0 0 1 .249.639v3.338a.862.862 0 0 1-.249.639.865.865 0 0 1-.639.249h-11.328v4.794h10.547c.26 0 .473.095.639.284a.865.865 0 0 1 .249.639v3.09c0 .236-.083.45-.249.639a.865.865 0 0 1-.639.249h-10.547v4.936h11.612c.261 0 .474.082.639.248a.865.865 0 0 1 .249.639v3.338a.866.866 0 0 1-.249.64.865.865 0 0 1-.639.248h-16.868Zm22.29 0a.869.869 0 0 1-.64-.248.869.869 0 0 1-.248-.64v-16.69c0-.26.083-.473.248-.639a.866.866 0 0 1 .64-.249h4.083c.261 0 .474.083.64.249a.868.868 0 0 1 .248.639v1.35c.616-.734 1.421-1.35 2.415-1.847.994-.497 2.166-.746 3.516-.746 1.373 0 2.58.308 3.622.924 1.065.615 1.894 1.526 2.486 2.734.615 1.184.923 2.64.923 4.368v9.907a.813.813 0 0 1-.284.64.825.825 0 0 1-.604.248h-4.474a.947.947 0 0 1-.639-.248.866.866 0 0 1-.249-.64v-9.694c0-1.113-.272-1.965-.817-2.557-.521-.615-1.302-.923-2.344-.923-.97 0-1.751.308-2.343.923-.569.592-.853 1.444-.853 2.557v9.694a.81.81 0 0 1-.284.64.823.823 0 0 1-.603.248h-4.439Zm29.495.355c-1.538 0-2.852-.165-3.941-.497-1.066-.355-1.942-.781-2.628-1.278-.663-.497-1.16-1.006-1.492-1.527-.331-.545-.509-1.006-.532-1.385a.715.715 0 0 1 .248-.639c.19-.19.391-.284.604-.284h4.048c.071 0 .131.011.178.035.047.024.118.071.213.142.308.166.615.379.923.639.308.237.663.45 1.066.64.402.189.887.284 1.456.284.662 0 1.219-.131 1.669-.391.449-.26.674-.651.674-1.172 0-.379-.106-.686-.319-.923-.213-.261-.651-.509-1.314-.746-.639-.237-1.61-.473-2.912-.71-1.231-.284-2.308-.651-3.232-1.101-.923-.473-1.633-1.077-2.13-1.811-.498-.758-.746-1.669-.746-2.734 0-.947.308-1.859.923-2.735.616-.876 1.515-1.586 2.699-2.131 1.184-.568 2.64-.852 4.368-.852 1.373 0 2.557.166 3.551.497 1.018.308 1.87.711 2.557 1.208.71.497 1.243 1.006 1.598 1.527.355.521.544.994.568 1.42a.81.81 0 0 1-.213.639.782.782 0 0 1-.568.249h-3.693c-.095 0-.19-.012-.284-.036a2.143 2.143 0 0 1-.249-.142 4.43 4.43 0 0 1-.852-.568 5.14 5.14 0 0 0-.995-.639c-.378-.189-.852-.284-1.42-.284-.639 0-1.136.142-1.492.426a1.345 1.345 0 0 0-.532 1.101c0 .308.094.592.284.852.213.261.627.497 1.243.71.639.214 1.621.45 2.947.711 1.634.26 2.936.686 3.906 1.278.971.568 1.658 1.243 2.06 2.024a5.07 5.07 0 0 1 .604 2.415c0 1.136-.343 2.143-1.03 3.018-.663.876-1.657 1.563-2.983 2.06-1.326.474-2.936.71-4.83.71Zm20.552 0c-2.793 0-5.019-.757-6.676-2.272-1.657-1.516-2.521-3.765-2.592-6.748v-1.242c.071-1.871.485-3.469 1.243-4.794.781-1.35 1.846-2.368 3.196-3.054 1.373-.711 2.971-1.066 4.794-1.066 2.083 0 3.799.415 5.149 1.243 1.373.829 2.403 1.953 3.089 3.374.687 1.42 1.03 3.042 1.03 4.865v.852a.81.81 0 0 1-.284.639.822.822 0 0 1-.604.249H693.6v.248a5.89 5.89 0 0 0 .355 1.882c.213.569.544 1.018.994 1.35.45.331.994.497 1.634.497.473 0 .864-.071 1.172-.213.331-.166.603-.343.816-.533.213-.213.379-.39.497-.532.214-.237.379-.379.498-.426.142-.071.355-.107.639-.107h4.403c.237 0 .426.071.568.213.166.118.237.296.213.533-.023.402-.224.888-.603 1.456s-.935 1.136-1.669 1.704c-.71.545-1.61.995-2.699 1.35-1.089.355-2.356.532-3.8.532Zm-3.018-11.47h6.001v-.071c0-.757-.118-1.42-.355-1.988-.213-.569-.556-1.007-1.03-1.314-.45-.308-.994-.462-1.633-.462-.64 0-1.184.154-1.634.462-.426.307-.757.745-.994 1.314-.237.568-.355 1.231-.355 1.988v.071Zm16.468 11.115a.868.868 0 0 1-.639-.248.866.866 0 0 1-.249-.64v-16.69c0-.26.083-.473.249-.639a.865.865 0 0 1 .639-.249h3.871c.26 0 .473.083.639.249a.865.865 0 0 1 .249.639v1.207c.473-.639 1.136-1.195 1.988-1.669.853-.497 1.859-.757 3.019-.781 2.722-.047 4.593.983 5.611 3.09.544-.9 1.325-1.634 2.343-2.202a6.523 6.523 0 0 1 3.338-.888c1.231 0 2.332.284 3.303.852.994.545 1.787 1.397 2.379 2.557.592 1.137.888 2.616.888 4.439v10.085a.813.813 0 0 1-.284.64.825.825 0 0 1-.604.248h-4.119a.995.995 0 0 1-.675-.248.865.865 0 0 1-.248-.64v-9.836c0-.829-.119-1.48-.356-1.953-.236-.497-.556-.853-.958-1.066-.403-.213-.864-.319-1.385-.319-.426 0-.853.106-1.279.319-.402.213-.734.569-.994 1.066-.237.473-.355 1.124-.355 1.953v9.836a.866.866 0 0 1-.249.64.867.867 0 0 1-.639.248h-4.119a.865.865 0 0 1-.639-.248.866.866 0 0 1-.249-.64v-9.836c0-.829-.13-1.48-.391-1.953-.26-.497-.592-.853-.994-1.066a2.837 2.837 0 0 0-1.349-.319c-.427 0-.853.106-1.279.319-.402.213-.734.569-.994 1.066-.237.473-.355 1.112-.355 1.917v9.872a.813.813 0 0 1-.284.64.869.869 0 0 1-.64.248h-4.19Zm42.899.355c-1.326 0-2.438-.225-3.338-.674-.876-.45-1.598-1.018-2.166-1.705v1.136a.813.813 0 0 1-.284.64.825.825 0 0 1-.604.248h-4.013a.868.868 0 0 1-.639-.248.865.865 0 0 1-.248-.64v-23.437c0-.26.082-.474.248-.639a.865.865 0 0 1 .639-.249h4.333c.26 0 .473.083.639.249a.864.864 0 0 1 .249.639v7.599c.568-.615 1.278-1.112 2.13-1.491.876-.403 1.894-.604 3.054-.604 1.184 0 2.226.201 3.125.604a6.158 6.158 0 0 1 2.344 1.669c.639.734 1.136 1.61 1.491 2.628.356 1.018.557 2.166.604 3.444.024.45.036.864.036 1.243 0 .355-.012.77-.036 1.243-.047 1.326-.26 2.51-.639 3.551-.355 1.018-.852 1.894-1.491 2.628a6.423 6.423 0 0 1-2.309 1.634c-.899.355-1.941.532-3.125.532Zm-1.917-4.758c.805 0 1.432-.166 1.882-.497.45-.332.769-.782.959-1.35a6.624 6.624 0 0 0 .39-1.882c.048-.734.048-1.468 0-2.202a6.638 6.638 0 0 0-.39-1.882c-.19-.568-.509-1.018-.959-1.349-.45-.332-1.077-.497-1.882-.497-.734 0-1.338.165-1.811.497a2.865 2.865 0 0 0-1.066 1.243 4.123 4.123 0 0 0-.39 1.633 24.683 24.683 0 0 0 0 2.664c.023.639.142 1.231.355 1.775.213.545.556.995 1.03 1.35.473.331 1.1.497 1.882.497Zm13.915 4.403a.868.868 0 0 1-.639-.248.866.866 0 0 1-.249-.64v-23.437c0-.26.083-.474.249-.639a.865.865 0 0 1 .639-.249h4.19c.261 0 .474.083.64.249a.867.867 0 0 1 .248.639v23.437a.869.869 0 0 1-.248.64.869.869 0 0 1-.64.248h-4.19Zm17.796.355c-2.794 0-5.019-.757-6.676-2.272-1.657-1.516-2.521-3.765-2.592-6.748v-1.242c.071-1.871.485-3.469 1.242-4.794.782-1.35 1.847-2.368 3.196-3.054 1.374-.711 2.972-1.066 4.795-1.066 2.083 0 3.799.415 5.149 1.243 1.373.829 2.403 1.953 3.089 3.374.687 1.42 1.03 3.042 1.03 4.865v.852a.81.81 0 0 1-.284.639.822.822 0 0 1-.604.249h-11.363v.248a5.89 5.89 0 0 0 .355 1.882c.213.569.544 1.018.994 1.35.45.331.994.497 1.634.497.473 0 .864-.071 1.171-.213.332-.166.604-.343.817-.533.213-.213.379-.39.497-.532.213-.237.379-.379.497-.426.143-.071.356-.107.64-.107h4.403c.237 0 .426.071.568.213.166.118.237.296.213.533-.023.402-.225.888-.603 1.456-.379.568-.935 1.136-1.669 1.704-.711.545-1.61.995-2.699 1.35-1.089.355-2.356.532-3.8.532Zm-3.018-11.47h6.001v-.071c0-.757-.118-1.42-.355-1.988-.213-.569-.556-1.007-1.03-1.314-.45-.308-.994-.462-1.633-.462-.64 0-1.184.154-1.634.462-.426.307-.758.745-.994 1.314-.237.568-.355 1.231-.355 1.988v.071Zm32.799 11.47c-2.367 0-4.332-.331-5.895-.994-1.562-.687-2.746-1.574-3.551-2.663-.805-1.089-1.231-2.249-1.278-3.48 0-.19.071-.356.213-.498a.784.784 0 0 1 .568-.248h4.475c.331 0 .58.059.745.177.19.119.355.273.497.462.19.355.45.698.782 1.03.355.331.805.604 1.349.817.568.189 1.267.284 2.095.284 1.373 0 2.403-.213 3.09-.639.71-.427 1.065-1.007 1.065-1.741 0-.52-.189-.947-.568-1.278-.379-.355-.994-.663-1.847-.923-.828-.284-1.941-.568-3.338-.853-1.799-.378-3.338-.864-4.616-1.455-1.255-.616-2.214-1.409-2.877-2.38-.662-.994-.994-2.225-.994-3.693 0-1.444.403-2.734 1.207-3.871.829-1.136 1.977-2.024 3.445-2.663 1.468-.639 3.208-.959 5.22-.959 1.634 0 3.066.213 4.297.639 1.255.427 2.308.995 3.161 1.705.852.71 1.491 1.468 1.917 2.273.45.781.687 1.55.711 2.308a.809.809 0 0 1-.214.533.721.721 0 0 1-.532.213h-4.688c-.26 0-.485-.048-.674-.142a1.31 1.31 0 0 1-.498-.462c-.142-.521-.52-.971-1.136-1.35-.592-.402-1.373-.603-2.344-.603-1.041 0-1.858.189-2.45.568-.568.355-.852.911-.852 1.669 0 .474.154.888.461 1.243.332.355.864.663 1.598.923.758.261 1.788.533 3.09.817 2.154.402 3.894.911 5.22 1.527 1.326.592 2.296 1.373 2.912 2.344.616.947.923 2.142.923 3.586 0 1.61-.461 3.007-1.385 4.191-.899 1.16-2.154 2.048-3.764 2.663-1.61.616-3.456.923-5.54.923Zm23.3-.355c-1.515 0-2.829-.236-3.942-.71a5.466 5.466 0 0 1-2.521-2.273c-.592-1.041-.888-2.379-.888-4.012v-6.819h-2.77a.996.996 0 0 1-.675-.248.868.868 0 0 1-.248-.639v-2.877c0-.26.083-.473.248-.639a.992.992 0 0 1 .675-.249h2.77v-5.859c0-.26.083-.474.248-.639a.947.947 0 0 1 .64-.249h4.119c.26 0 .473.083.639.249a.864.864 0 0 1 .249.639v5.859h4.439c.26 0 .473.083.639.249a.864.864 0 0 1 .248.639v2.877c0 .26-.082.473-.248.639a.868.868 0 0 1-.639.248h-4.439v6.321c0 .805.154 1.444.461 1.918.308.473.829.71 1.563.71h2.734c.261 0 .474.083.639.249a.864.864 0 0 1 .249.639v3.089a.866.866 0 0 1-.249.64.865.865 0 0 1-.639.248h-3.302Zm12.67.355c-1.278 0-2.427-.236-3.445-.71-.994-.497-1.787-1.16-2.379-1.989a4.705 4.705 0 0 1-.888-2.805c0-1.681.687-3.007 2.06-3.977 1.373-.994 3.196-1.669 5.469-2.024l4.439-.675v-.497c0-.852-.178-1.504-.533-1.953-.355-.45-1.006-.675-1.953-.675-.663 0-1.207.13-1.634.391-.402.26-.722.615-.958 1.065a1.02 1.02 0 0 1-.888.462h-3.977c-.261 0-.462-.071-.604-.214a.72.72 0 0 1-.178-.568c0-.426.154-.911.462-1.456.331-.568.829-1.124 1.491-1.669.663-.544 1.516-.994 2.557-1.349 1.042-.355 2.297-.533 3.764-.533 1.539 0 2.853.178 3.942.533 1.089.355 1.965.852 2.628 1.491a5.932 5.932 0 0 1 1.527 2.273c.331.852.497 1.799.497 2.841v10.795a.81.81 0 0 1-.284.64.825.825 0 0 1-.604.248h-4.119a.868.868 0 0 1-.639-.248.866.866 0 0 1-.249-.64v-1.242c-.307.449-.722.864-1.243 1.242-.52.379-1.136.675-1.846.888-.687.237-1.492.355-2.415.355Zm1.669-4.048c.687 0 1.302-.142 1.847-.426.568-.308 1.006-.769 1.314-1.385.331-.639.497-1.432.497-2.379v-.497l-3.019.532c-1.112.19-1.929.486-2.45.888-.497.379-.746.829-.746 1.349 0 .403.119.746.355 1.03.237.284.545.509.924.675.378.142.805.213 1.278.213Zm14.625 3.693a.868.868 0 0 1-.639-.248.866.866 0 0 1-.249-.64v-16.69c0-.237.083-.438.249-.604a.812.812 0 0 1 .639-.284h4.084a.81.81 0 0 1 .639.284.822.822 0 0 1 .249.604v1.421a6.676 6.676 0 0 1 2.273-1.705c.899-.402 1.905-.604 3.018-.604h1.563c.236 0 .437.083.603.249a.81.81 0 0 1 .284.639v3.658a.88.88 0 0 1-.284.639.821.821 0 0 1-.603.249h-3.445c-.971 0-1.728.272-2.273.816-.521.521-.781 1.267-.781 2.238v9.09a.813.813 0 0 1-.284.64.868.868 0 0 1-.639.248h-4.404Zm22.838.355c-1.539 0-2.853-.165-3.942-.497-1.065-.355-1.941-.781-2.628-1.278-.663-.497-1.16-1.006-1.491-1.527-.332-.545-.509-1.006-.533-1.385a.715.715 0 0 1 .248-.639c.19-.19.391-.284.604-.284h4.048a.39.39 0 0 1 .178.035c.047.024.118.071.213.142.308.166.616.379.923.639.308.237.663.45 1.066.64.402.189.888.284 1.456.284.663 0 1.219-.131 1.669-.391.45-.26.674-.651.674-1.172 0-.379-.106-.686-.319-.923-.213-.261-.651-.509-1.314-.746-.639-.237-1.61-.473-2.912-.71-1.231-.284-2.308-.651-3.232-1.101-.923-.473-1.633-1.077-2.13-1.811-.497-.758-.746-1.669-.746-2.734 0-.947.308-1.859.923-2.735.616-.876 1.516-1.586 2.699-2.131 1.184-.568 2.64-.852 4.368-.852 1.373 0 2.557.166 3.551.497 1.018.308 1.871.711 2.557 1.208.71.497 1.243 1.006 1.598 1.527.355.521.545.994.568 1.42a.81.81 0 0 1-.213.639.782.782 0 0 1-.568.249h-3.693c-.095 0-.19-.012-.284-.036a2.143 2.143 0 0 1-.249-.142 4.43 4.43 0 0 1-.852-.568 5.162 5.162 0 0 0-.994-.639c-.379-.189-.853-.284-1.421-.284-.639 0-1.136.142-1.491.426a1.346 1.346 0 0 0-.533 1.101c0 .308.095.592.284.852.213.261.627.497 1.243.71.639.214 1.622.45 2.947.711 1.634.26 2.936.686 3.907 1.278.97.568 1.657 1.243 2.059 2.024a5.07 5.07 0 0 1 .604 2.415c0 1.136-.343 2.143-1.03 3.018-.663.876-1.657 1.563-2.983 2.06-1.326.474-2.935.71-4.829.71Zm-335.5 12.188c-5.681-3.551-12.782-9.764-19.528-16.333-7.278-7.278-14.024-15.089-17.93-21.303-1.597-2.485-5.325-2.485-6.923 0-7.634 11.894-25.741 30.002-37.635 37.636-2.486 1.597-2.486 5.325 0 6.923 11.894 7.634 30.001 25.741 37.635 37.635 1.598 2.486 5.326 2.486 6.923 0 3.906-6.213 10.652-14.024 17.93-21.303 6.746-6.568 13.847-12.781 19.528-16.332 2.663-1.775 2.663-5.326 0-6.923Zm-26.629 16.509c-4.438-3.905-8.698-7.278-12.426-9.586-2.486-1.598-2.486-5.326 0-6.923 3.728-2.308 7.988-5.681 12.426-9.587 4.794 4.793 9.942 9.409 14.735 13.137-4.793 3.551-9.941 8.166-14.735 12.959Z"/>
  <path d="M554.097 152.51c7.634 9.764 19.173 21.303 28.937 28.936-9.764 7.634-21.303 19.173-28.937 28.937-7.633-9.764-19.173-21.303-28.936-28.937 9.763-7.633 21.303-19.172 28.936-28.936Zm0-14.025c-1.243 0-2.663.71-3.55 1.953-7.456 11.894-25.564 30.002-37.458 37.635-2.486 1.598-2.486 5.326 0 6.924 11.894 7.633 30.002 25.741 37.635 37.635.888 1.243 2.13 1.953 3.551 1.953 1.242 0 2.662-.71 3.55-1.953 7.634-11.894 25.741-30.002 37.635-37.635 2.486-1.598 2.486-5.326 0-6.924-12.071-7.633-30.356-25.741-37.812-37.635-.888-1.243-2.131-1.953-3.551-1.953Z"/>
</svg>
