<svg xmlns="http://www.w3.org/2000/svg" width="903" height="239" fill="none" viewBox="0 0 903 239">
  <path fill="#081754" d="M298.052 191.847c-.114.282-.206.052-.206-.511 0-.562.092-.792.206-.511.113.281.113.741 0 1.022Zm-1.293-11.961c.139.225.057.409-.181.409s-.433-.184-.433-.409c0-.225.081-.409.181-.409.099 0 .294.184.433.409Z"/>
  <path fill="#081754" fill-rule="evenodd" d="M184.607 130.274c1.406-.404 4.764-1.9 7.463-3.324 2.699-1.425 5.184-2.603 5.521-2.619.337-.015 1.349.91 2.249 2.057.9 1.146 2.418 2.743 3.374 3.546l1.738 1.462v80.724l-1.661.281c-.914.154-2.892.902-4.396 1.661-1.505.759-3.733 2.305-4.952 3.436-1.218 1.13-2.255 2.055-2.303 2.055-.049 0-.179-.349-.291-.776-.111-.427-.696-1.1-1.3-1.495-.75-.492-2.475-.832-5.467-1.076-2.404-.196-5.429-.624-6.722-.95-1.293-.326-3.087-.968-3.986-1.427-.899-.459-2.645-1.86-3.879-3.114-1.233-1.253-2.799-3.412-3.479-4.797-.68-1.385-1.508-3.806-1.84-5.381-.366-1.732-.607-5.137-.611-8.624-.005-4.377.183-6.506.784-8.855.435-1.702 1.282-4.062 1.882-5.246.6-1.184 2.038-3.154 3.195-4.377 1.158-1.224 2.977-2.668 4.044-3.209 1.067-.54 3.092-1.246 4.499-1.567 1.408-.322 4.399-.716 6.647-.876 3.824-.273 4.159-.369 5.213-1.499l1.128-1.207v-15.068c0-10.464-.144-15.382-.469-16.098-.266-.582-1.02-1.2-1.738-1.422-.698-.216-2.603-.516-4.234-.667-1.631-.15-2.965-.395-2.965-.544 0-.149 1.151-.601 2.556-1.004ZM9.479 127.542v-2.863h56.88l-.144 35.271c-.14 34.187-.171 35.388-1.01 39.061-.477 2.085-1.185 4.753-1.574 5.93-.543 1.645-1.391 2.826-3.667 5.107-1.87 1.875-3.772 3.339-5.164 3.976-1.212.555-3.485 1.194-5.053 1.42-1.567.227-6.848.416-11.735.42-8.452.008-9.016.058-11.581 1.023-1.482.558-3.28 1.415-3.996 1.903-.716.489-2.175 1.728-3.243 2.753l-1.943 1.864v-46.732c0-34.422-.124-46.969-.47-47.627-.259-.491-.673-1.028-.92-1.193-.248-.166-1.784-.303-3.415-.307l-2.965-.006Zm24.946 85.041v-42.52c0-23.387-.144-42.521-.318-42.521-.175 0-.712.276-1.194.613-.481.337-1.258 1.233-1.726 1.991-.847 1.37-.852 1.585-.852 39.88v38.503l1.038 1.569c.57.862 1.491 1.775 2.045 2.027l1.007.458Zm18.537-82.063c-.376-.791-1.25-1.784-1.943-2.207-1.081-.66-2.111-.768-7.291-.77l-6.032-.001v85.131l4.543-.138 4.542-.138 1.801-2.045c.99-1.125 2.35-3.149 3.021-4.498.922-1.853 1.32-3.406 1.624-6.339.228-2.193.407-17.753.41-35.72.007-28.9-.055-31.968-.675-33.275Zm60.081 32.768c1.631-.551 5.173-2.173 7.872-3.603l4.907-2.601 3.559 3.733 3.558 3.734.02 21.685c.017 18.599.107 21.809.634 22.561.337.482 1.144.993 1.793 1.136.869.191 2.638-.296 6.737-1.853 5.313-2.019 5.568-2.168 5.793-3.396.13-.706.18-9.422.112-19.369-.12-17.656-.143-18.104-.969-18.93-.654-.654-1.746-.948-4.815-1.296-2.182-.248-3.887-.533-3.786-.633.099-.099 1.622-.682 3.383-1.294s5.309-2.256 7.886-3.655l4.685-2.542 1.027 1.339c.565.737 2.105 2.474 3.424 3.861l2.397 2.522-.174 18.948c-.16 17.564-.238 19.237-1.058 22.913-.487 2.182-1.456 5.586-2.154 7.566-.697 1.979-1.883 4.887-2.636 6.461-.753 1.575-2.156 4.059-3.119 5.521-.962 1.462-3.132 4.107-4.822 5.879-1.69 1.771-4.226 4.044-5.636 5.05-1.57 1.122-2.812 1.734-3.207 1.583-.557-.214-.506-.483.372-1.983.558-.955 1.932-3.577 3.052-5.826 1.121-2.249 2.335-5.01 2.699-6.134.363-1.125 1.024-3.793 1.468-5.93.444-2.137.932-4.943 1.083-6.236.178-1.515.127-2.352-.144-2.352-.231 0-2.599.752-5.263 1.67-2.664.919-6.871 2.591-9.349 3.715-2.477 1.125-4.822 2.142-5.209 2.26-.465.142-1.09-.253-1.836-1.159-.621-.756-2.092-2.396-3.268-3.645l-2.138-2.272-.117-21.465c-.104-19.358-.184-21.569-.808-22.522-.427-.651-1.211-1.145-2.045-1.288-.744-.128-2.595-.356-4.113-.507l-2.76-.274v44.164l-1.942.482c-1.069.265-2.915.923-4.102 1.463-1.188.539-3.26 2.03-4.604 3.312-1.344 1.282-2.51 2.255-2.59 2.163-.08-.092-.37-.597-.643-1.122-.274-.525-1.12-1.215-1.883-1.533-.761-.319-2.725-.582-4.363-.586-1.638-.004-4.245-.276-5.793-.604-1.549-.328-3.643-.997-4.654-1.486-1.011-.49-2.79-1.842-3.953-3.005-1.163-1.163-2.59-2.929-3.173-3.925-.582-.995-1.444-3.064-1.916-4.597-.472-1.533-1.05-4.816-1.284-7.296-.287-3.048-.293-5.796-.018-8.476.224-2.181.774-5.154 1.223-6.607.449-1.453 1.478-3.746 2.288-5.095.808-1.35 2.241-3.244 3.183-4.211.943-.966 2.634-2.203 3.758-2.748 1.125-.545 3.15-1.275 4.499-1.621 1.35-.347 4.219-.746 6.377-.888 2.159-.141 4.593-.132 5.41.022.816.153 2.297.898 3.29 1.657l1.806 1.378 2.001-.927c1.101-.51 3.145-1.986 4.542-3.28l2.541-2.352v5.348l2.965-1.002Zm94.874 1.74c1.406-.407 4.764-1.897 7.463-3.312 2.699-1.414 5.149-2.597 5.445-2.629.295-.031 1.03.541 1.632 1.272.603.731 2.012 2.31 3.132 3.509 1.758 1.883 2.193 2.149 3.189 1.949.635-.127 2.572-.794 4.306-1.483 1.733-.689 4.74-2.164 6.68-3.278 1.941-1.114 3.628-2.026 3.749-2.026.122 0 1.968 1.913 4.105 4.25l3.883 4.251 1.087-1.135c.598-.624 1.962-1.61 3.031-2.192 1.068-.582 3.033-1.365 4.366-1.741 1.889-.533 4.83-.726 13.362-.875 10.454-.183 10.939-.157 10.935.568-.003.418-.618 2.783-1.369 5.257-.75 2.474-1.944 5.881-2.651 7.57-.769 1.834-2.603 4.825-4.555 7.424-1.797 2.394-4.942 6.026-6.988 8.072-2.046 2.046-3.977 3.72-4.292 3.72-.361 0 .187-1.161 1.488-3.155 1.133-1.735 2.691-4.486 3.464-6.114.772-1.627 1.866-4.553 2.43-6.501.565-1.948 1.027-4.497 1.027-5.665 0-1.471-.33-2.784-1.072-4.274-.701-1.407-1.618-2.496-2.65-3.148-1.018-.642-2.181-.996-3.276-.996-1.408 0-1.927.243-3.039 1.422-.783.83-1.69 2.489-2.182 3.987-.462 1.411-1.044 3.762-1.293 5.224-.249 1.462-.554 6.246-.678 10.632-.137 4.837-.042 9.653.241 12.243.257 2.348.677 4.971.935 5.831.257.858 1.102 2.302 1.877 3.208.776.906 2.172 2.045 3.104 2.531 1.173.613 2.407.88 4.01.869 1.655-.01 2.951-.326 4.543-1.105 1.225-.599 3.164-2.08 4.309-3.291 1.8-1.902 2.234-2.707 3.198-5.927.613-2.05 1.266-3.727 1.451-3.727.185 0 .336 3.773.336 8.384v8.383l-9.303-.006c-6.893-.005-9.992-.168-11.962-.631-1.462-.343-4.004-1.288-5.648-2.1-1.645-.811-3.794-2.256-4.776-3.211-.983-.955-2.271-2.692-2.864-3.862s-1.449-3.536-1.902-5.258c-.528-2.003-.9-5.044-1.034-8.446-.115-2.924-.027-6.42.196-7.77.223-1.349.345-2.516.272-2.594-.072-.077-.397.383-.72 1.023-.324.639-.819 2.407-1.1 3.927-.281 1.522-.654 2.854-.827 2.961-.174.108-.44-.677-.591-1.743-.15-1.066-.74-3.502-1.31-5.414-.571-1.912-1.683-4.711-2.472-6.22-.789-1.509-2.057-3.218-2.817-3.798-.761-.58-2.352-1.506-3.537-2.058-1.184-.551-2.568-1.004-3.074-1.006l-.92-.004v45.729l-1.611.272c-.886.15-2.865.882-4.396 1.626-1.675.814-3.593 2.186-4.814 3.444-1.116 1.15-2.174 2.091-2.351 2.091-.178 0-.328-11.456-.336-25.457-.01-20.778-.115-25.59-.567-26.187-.305-.402-1.096-.886-1.758-1.076-.662-.19-2.522-.478-4.135-.64-1.613-.162-2.932-.415-2.932-.564 0-.149 1.15-.604 2.556-1.01Zm111.895-.897c1.098-.599 2.894-1.999 3.99-3.112l1.991-2.024.119 3.289c.065 1.809.174 3.289.243 3.289.068 0 1.171-.36 2.452-.801 1.28-.44 4.546-1.947 7.256-3.348l4.928-2.547 2.992 3.203c2.833 3.033 3.064 3.188 4.36 2.944.753-.142 4-1.581 7.217-3.198l5.848-2.941 2.982 3.234 2.983 3.235 2.415-.749c1.328-.412 4.56-1.876 7.181-3.254l4.767-2.504 3.496 3.67 3.496 3.67.019 23.109.018 23.111-2.658.761c-1.461.419-3.497 1.293-4.522 1.944-1.026.651-2.77 2.029-3.877 3.064l-2.011 1.881-.111-25.595c-.11-25.421-.117-25.601-.974-26.458-.617-.617-1.577-.927-3.374-1.09l-2.511-.228v45.843l-1.592.269c-.876.148-2.736.81-4.132 1.47-1.397.661-3.717 2.234-5.155 3.498l-2.616 2.296v-50.763l-.924-1.075c-.757-.879-1.39-1.117-3.476-1.306l-2.552-.232v45.843l-1.592.269c-.876.148-2.727.806-4.114 1.461-1.386.656-3.585 2.207-4.885 3.448-1.3 1.24-2.486 2.255-2.634 2.255-.148 0-.27-11.309-.27-25.131 0-18.034-.132-25.421-.469-26.16-.267-.586-1.015-1.196-1.738-1.416-.698-.212-2.419-.503-3.824-.645l-2.556-.26.005 7.279.005 7.279 1.408.912c.949.615 1.55 1.416 1.842 2.454.238.848.706 1.899 1.04 2.335.334.437.607 1.111.607 1.497 0 .387-.566 1.18-1.258 1.763-.692.582-1.576 1.058-1.963 1.058-.388 0-.926.221-1.196.491-.27.27-.49 1.015-.49 1.656s.26 1.669.578 2.284c.318.615.71 1.848.871 2.74.161.892.898 2.634 1.638 3.871.739 1.237 1.467 2.854 1.618 3.595.171.838.087 1.571-.221 1.942-.272.328-1.106.597-1.852.597-.747 0-1.471-.184-1.61-.409-.139-.225-.426-.409-.638-.409-.211 0-.384.344-.384.765 0 .565-.507.902-1.943 1.293-1.068.291-2.867.931-3.998 1.422-1.131.491-3.206 1.958-4.613 3.26-1.407 1.302-2.598 2.297-2.647 2.21a3.049 3.049 0 0 1-.05-.091l-.057-.103c-.103-.19-.262-.483-.422-.782-.242-.45-1.07-1.14-1.841-1.533-.959-.489-2.367-.717-4.467-.723-1.687-.004-4.29-.266-5.784-.583-1.495-.317-3.519-.977-4.499-1.468-.979-.49-2.459-1.541-3.287-2.335l-1.505-1.444-.804 1.321c-.442.727-1.035 2.178-1.318 3.225-.283 1.048-.679 2.118-.88 2.379-.201.261-.954.445-1.675.409-1.092-.055-1.329-.246-1.434-1.151-.069-.596.448-2.529 1.149-4.294.7-1.764 1.386-3.469 1.524-3.787.15-.348.076-.471-.185-.309-.299.184-.331-.19-.105-1.194.221-.982.151-1.893-.215-2.767-.299-.717-.835-2.838-1.191-4.714-.356-1.875-.647-5.045-.647-7.044 0-2.234.163-3.636.423-3.636.281 0 .27-.287-.033-.853-.285-.534-.351-1.647-.173-2.965.156-1.162.718-3.492 1.249-5.179.531-1.686 1.685-4.156 2.563-5.487 1.563-2.37 1.584-2.451.998-3.852-.436-1.046-.485-1.677-.18-2.346.24-.528.945-1.031 1.666-1.19.815-.178 1.705-.047 2.558.379 1.219.608 1.475.597 3.786-.166 1.363-.45 3.766-1.002 5.341-1.226 1.574-.225 4.172-.412 5.772-.416 2.527-.007 3.293.183 5.825 1.45l2.915 1.458 1.998-1.087Zm-223.378 4.003c-.357-.69-1.273-1.641-2.036-2.112-1.03-.637-2.058-.857-3.997-.856-2.106.002-2.82.179-3.701.92-.6.505-1.46 1.666-1.911 2.579-.451.913-1.103 2.753-1.448 4.089-.346 1.336-.844 4.637-1.107 7.336-.273 2.789-.386 7.644-.263 11.246.12 3.486.523 7.811.896 9.61.374 1.8 1.21 4.422 1.86 5.827.649 1.405 1.677 3.015 2.284 3.578.663.614 1.59 1.023 2.32 1.023.86 0 1.66-.448 2.74-1.533.888-.894 1.907-2.557 2.441-3.987.505-1.35 1.193-3.742 1.53-5.317.448-2.09.671-6.676.828-17.005.187-12.395.133-14.298-.436-15.398Zm214.433-1.739c0-.155-.469-.495-1.042-.756-.573-.261-2.122-.475-3.444-.475-1.975 0-2.623.185-3.634 1.036l-1.23 1.035 1.802 1.853 1.801 1.854 1.218-1.386c.669-.763 1.962-1.723 2.873-2.134.911-.41 1.656-.873 1.656-1.027Zm-18.675-.549c.15.15.395.15.545 0 .15-.15.027-.273-.272-.273-.3 0-.423.123-.273.273Zm24.398 4.868c-.002-.691-.192-1.939-.424-2.775-.232-.835-.58-1.616-.773-1.735-.193-.12-.462.073-.598.427-.136.355-.252 1.228-.257 1.94-.005.713-.382 2.119-.838 3.125-.456 1.006-1.051 1.969-1.32 2.141-.27.171-.631.314-.803.318-.171.003-.014-.684.349-1.528.364-.843.84-2.149 1.058-2.901.218-.752.309-1.454.202-1.561-.106-.106-1.085.263-2.176.82-1.091.558-2.386 1.394-2.877 1.859-.543.514-.975 1.532-1.1 2.593-.114.96-.185 2.482-.159 3.382.027.9-.139 2.801-.37 4.225l-.418 2.588 1.47-1.608c.809-.885 2.223-1.992 3.142-2.461.919-.469 2.329-1.51 3.132-2.313.804-.804 1.754-2.32 2.111-3.37.358-1.05.65-2.475.649-3.166Zm-15.947-1.364c-.562-.514-1.535-1.214-2.162-1.556-.627-.342-1.812-.675-2.634-.74l-1.494-.117 1.345 1.037c.74.571 2.126 2.058 3.079 3.305.953 1.248 2.231 3.127 2.841 4.177.609 1.049 1.27 2.475 1.469 3.169.268.933.228 1.261-.153 1.261-.284 0-1.213-1.372-2.064-3.049-.851-1.678-2.55-4.157-3.775-5.511s-2.79-2.862-3.476-3.351c-1.237-.881-1.245-.881-.793-.037.251.469.457 1.224.457 1.677 0 .454.196 1.743.437 2.864.385 1.796.878 2.477 4.129 5.707 2.754 2.735 3.632 3.859 3.455 4.421-.131.416.036 1.658.369 2.762.333 1.105.606 2.991.606 4.192v2.184l2.352-.02c1.293-.012 3.838-.345 5.654-.74 1.854-.403 3.738-.591 4.294-.429.545.159 2.513.712 4.373 1.227l3.382.937 1.934-1.866c1.064-1.027 2.283-2.051 2.71-2.276.666-.351.435-.537-1.622-1.307-1.319-.493-3.313-1.07-4.431-1.282-1.519-.288-2.634-.232-4.409.223-1.307.335-3.139.998-4.071 1.473-.932.476-2.587 1.492-3.677 2.258-1.09.766-2.168 1.393-2.395 1.393-.227 0-.413-.243-.413-.54 0-.296.414-.894.92-1.329.506-.434 2.392-1.552 4.191-2.484 1.8-.932 4.1-1.931 5.112-2.22 1.012-.29 1.963-.539 2.113-.555.15-.016.399-.155.553-.309.155-.154.768-.083 1.363.158.596.241 1.574.412 2.174.379.601-.033 1.381.23 1.735.584.354.353.841.521 1.083.372.242-.15.673.048.959.439.286.391.702.639.926.552.247-.096.279-.641.081-1.385-.239-.902-.758-1.414-1.961-1.935-.899-.39-2.24-.749-2.979-.798-.739-.05-1.804-.419-2.366-.822-.563-.403-2.08-.943-3.372-1.201-1.985-.396-2.624-.364-4.114.205-.97.371-2.792 1.655-4.051 2.854-1.258 1.199-2.875 3.222-3.593 4.495-.718 1.272-1.472 2.313-1.676 2.313-.203 0-.37-.287-.37-.64 0-.351.357-1.502.793-2.555.436-1.054.992-3.501 1.235-5.438.325-2.592.317-4.104-.028-5.725-.277-1.301-.992-2.872-1.745-3.836-.703-.898-1.737-2.052-2.3-2.565Zm-112.892 2.024c-.474-.604-1.26-1.322-1.747-1.595-.487-.273-1.385-.503-1.996-.511-.671-.009-1.675.481-2.536 1.237-.868.762-1.769 2.161-2.305 3.578-.485 1.28-1.162 3.799-1.506 5.598-.429 2.25-.64 6.083-.673 12.269-.039 7.302.092 9.651.698 12.472.41 1.912 1.289 4.617 1.953 6.011.664 1.394 1.687 2.912 2.274 3.374.587.461 1.519.839 2.073.839.553 0 1.498-.291 2.098-.645.6-.355 1.497-1.263 1.993-2.02.495-.755 1.262-2.446 1.703-3.757.442-1.31 1.023-4.036 1.292-6.057.322-2.413.409-6.552.255-12.058-.138-4.918-.485-9.566-.84-11.245-.334-1.575-.892-3.657-1.241-4.628-.349-.97-1.022-2.258-1.495-2.862Zm107.498 7.301c.07-.009.013-.2-.126-.425-.139-.225-.932-.408-1.762-.407-.83.001-2.108.366-2.839.812-.731.445-1.329.89-1.329.988 0 .097.598.021 1.329-.17a29.644 29.644 0 0 1 2.965-.565c.9-.12 1.693-.225 1.762-.233Zm1.329 1.62c.238 0 .32-.184.181-.409-.139-.225-.334-.409-.433-.409-.1 0-.181.184-.181.409 0 .225.195.409.433.409Zm-2.009.648c-1.506.158-2.105.092-1.918-.209.149-.242.122-.431-.06-.421-.182.01-1.067.279-1.967.598-.899.319-1.957.975-2.351 1.458-.393.484-.716 1.043-.716 1.243 0 .2.875.365 1.943.366 1.068.001 2.663.202 3.543.446.88.244 1.826.67 2.101.946.276.276 1.065.975 1.754 1.555.687.579 1.588 1.608 2.001 2.286.508.835.699 1.775.591 2.907-.088.919-.324 1.672-.525 1.672s-.366-.198-.366-.439c0-.242-.237-.379-.528-.307-.29.073-2.064 1.789-3.943 3.813s-3.665 4.272-3.971 4.996c-.305.724-.555 1.69-.555 2.147 0 .457.169.831.376.831.206 0 .666-.111 1.022-.248s.647-.429.647-.65c0-.221.414-.747.92-1.169.506-.423 1.147-.774 1.426-.782.278-.007 1.126-.691 1.885-1.518.855-.933 1.305-1.787 1.186-2.245-.107-.407-.386-.621-.62-.476-.249.153-.303.064-.129-.216.163-.264.451-.383.64-.266.19.117.887-.478 1.549-1.322.662-.845 1.421-1.951 1.687-2.459.266-.507.5-2.256.519-3.887.025-2.221-.209-3.575-.936-5.404-.637-1.601-1.322-2.619-1.993-2.958-.65-.329-1.82-.434-3.212-.288Zm3.277 10.393c0 .563.092.793.206.511a1.583 1.583 0 0 0 0-1.022c-.114-.281-.206-.051-.206.511Zm18.365 2.114c1.15-.557 1.215-.67.538-.936-.424-.166-2.013-.315-3.531-.331-1.586-.017-2.76.145-2.76.38 0 .225.322.417.716.427.393.01 1.393.26 2.222.556 1.288.46 1.696.446 2.815-.096Zm3.641.464c.106-.093-.078-.34-.409-.549-.331-.209-.694-.365-.806-.346-.113.019-.665.169-1.227.333-.92.268-.858.32.613.514.9.119 1.723.141 1.829.048Zm-7.061 4.536c-1.009-1.373-2.382-2.886-3.053-3.363-.67-.478-1.722-1.06-2.337-1.293-1.023-.389-.963-.252.697 1.594.999 1.112 2.106 2.817 2.459 3.79.352.972.889 2.595 1.191 3.606.447 1.493.933 2.086 2.59 3.169 1.122.732 2.155 1.332 2.295 1.332.139 0 .396-.966.57-2.147.174-1.181.317-2.607.317-3.169 0-.563-.438-1.932-.975-3.043-.698-1.447-1.498-2.338-2.815-3.137-1.013-.614-2.025-1.125-2.25-1.135-.225-.011-.041.297.409.683.45.386 1.331 1.491 1.959 2.456.627.964 1.316 2.214 1.53 2.778.316.831.281.964-.182.701-.314-.179-1.397-1.449-2.405-2.822Zm-6.447-1.989-1.295-1.335c-.712-.735-1.581-1.33-1.93-1.323-.349.007-.911.245-1.249.53-.337.283-1.332 1.281-2.21 2.216l-1.597 1.7 1.801-.893c1.217-.603 2.561-.893 4.141-.893l2.339-.002Zm18.258.497c.165-.165-.023-.658-.419-1.095-.395-.437-1.252-.98-1.905-1.208-.654-.228-1.188-.262-1.188-.075 0 .185.557.568 1.237.85.68.281 1.402.808 1.605 1.17.203.363.504.524.67.358Zm-.166 2.42c-1.053-1.087-2.926-2.489-4.163-3.115-1.238-.627-2.705-1.281-3.262-1.454-.969-.301-.954-.248.34 1.226.827.94 1.278 1.829 1.16 2.279-.106.407.073 1.119.399 1.583.327.467 1.044.845 1.605.845.557 0 1.513.307 2.123.684.611.376 1.679 1.273 2.373 1.994.694.721 1.676 1.532 2.182 1.803.505.271.983.429 1.062.35.078-.078-.319-1.059-.882-2.18-.563-1.121-1.885-2.927-2.937-4.015Zm-15.19 2.955c-.65-2.027-1.122-2.819-1.891-3.169-.564-.257-1.982-.454-3.153-.438-1.17.016-2.901.373-3.846.793l-1.719.764.814 2.937c.448 1.616 1.104 3.513 1.458 4.217.354.703 1.212 1.877 1.905 2.608.788.831 1.658 1.329 2.317 1.329.58 0 1.511-.313 2.067-.697.556-.383 1.235-.981 1.509-1.329.273-.347.796-1.247 1.16-1.998l.664-1.366 1.088.953c.809.709.755.587-.209-.474-.75-.825-1.664-2.568-2.164-4.13Z" clip-rule="evenodd"/>
  <path fill="#081754" d="m.177 79.272 15.487-66.771h44.64l-1.214 4.654H19.612L13.64 42.953h31.48l-1.113 4.755h-31.38l-6.175 26.91h41.199l-1.114 4.654H.177Zm69.113-36.29 7.07-30.481h6.175l12.978 30.481h-5.795l-6.88-16.115-3.036-8.903H79.7l-1.721 8.397-3.848 16.621H69.29Zm-8.417 36.29 7.332-31.613h4.845l-7.318 31.613h-4.86ZM91.715 47.66l13.495 31.612h6.073l7.333-31.613h-4.809l-4.144 17.753-1.619 8.397h-.101l-3.138-9.004-7.3-17.146h-5.79Zm27.986-4.678h-4.802l7.114-30.481h4.758l-7.07 30.481Zm22.575-3.672c1.147 1.012 2.564 1.518 4.251 1.518 1.957 0 3.577-.674 4.859-2.023 1.35-1.349 2.024-3.17 2.024-5.463 0-1.686-.573-3.035-1.72-4.047-1.08-1.08-2.464-1.619-4.151-1.619-1.889 0-3.509.675-4.858 2.024-1.35 1.349-2.025 3.17-2.025 5.463 0 1.686.54 3.069 1.62 4.148Zm-4.859 40.974c-1.687 0-3.104-.506-4.252-1.517-1.079-1.08-1.619-2.462-1.619-4.148 0-2.293.675-4.114 2.024-5.463 1.35-1.35 2.97-2.024 4.859-2.024 1.687 0 3.071.54 4.15 1.619 1.148 1.012 1.721 2.36 1.721 4.047 0 2.293-.675 4.114-2.024 5.463-1.283 1.349-2.902 2.023-4.859 2.023Zm123.626-37.302h19.963l.671-3.57h.203l.95 3.57h18.508l-8.728-30.481h-24.497l-7.07 30.481Zm-8.417 36.29 7.332-31.613h20.169l-1.284 6.827-5.77 24.786h-20.447Zm31.449-31.612.336 1.262 9.414 30.35h24.192l7.333-31.613h-20.086l-1.114 5.714h-.203l-1.414-5.713h-18.458Zm42.36-4.678h-20.258l1.111-5.695 5.769-24.786h20.448l-7.07 30.481Zm9.047 4.678-7.332 31.612h23.585l3.746-16.288 8.199-7.587 8.503 23.875h23.889L384.397 47.66h-48.915Zm1.085-4.678h46.102l-.87-2.356 28.951-28.125h-25.408l-23.383 22.56 5.264-22.56h-23.586l-7.07 30.481ZM163.972 47.66l-7.333 31.612h54.865l4.049-17.3h-31.279l3.309-14.313h-23.611Zm1.085-4.678h23.608l7.048-30.481h-23.586l-7.07 30.481Zm61.193 4.678-7.333 31.612h23.586l7.332-31.613H226.25Zm1.084-4.678h23.586l7.07-30.481h-23.586l-7.07 30.481Zm404.03 43.407c-.439 0-.799-.14-1.079-.42-.279-.28-.419-.639-.419-1.078V45.939c0-.44.14-.799.419-1.078.28-.28.64-.42 1.079-.42h27.985c.44 0 .799.14 1.079.42.279.28.419.639.419 1.078v5.633c0 .44-.14.8-.419 1.079-.28.28-.639.42-1.079.42h-19.116v8.09h17.798c.439 0 .799.159 1.078.479.28.28.42.639.42 1.078v5.214c0 .4-.14.759-.42 1.078-.279.28-.639.42-1.078.42h-17.798v8.33h19.596c.439 0 .799.14 1.078.419.28.28.42.64.42 1.079v5.633c0 .439-.14.798-.42 1.078-.279.28-.639.42-1.078.42h-28.465Zm38.273 0c-.44 0-.799-.14-1.079-.42-.28-.28-.42-.639-.42-1.078V45.939c0-.44.14-.799.42-1.078.28-.28.639-.42 1.079-.42h6.352c.679 0 1.158.16 1.438.48.319.28.519.499.599.659l14.622 23.07V45.94c0-.44.14-.8.419-1.08.28-.28.64-.419 1.079-.419h7.191c.439 0 .799.14 1.079.42.279.28.419.639.419 1.078v38.952c0 .399-.14.759-.419 1.078-.28.28-.64.42-1.079.42h-6.412c-.639 0-1.119-.16-1.438-.48a8.09 8.09 0 0 1-.54-.659l-14.621-22.172V84.89c0 .439-.14.798-.42 1.078-.279.28-.639.42-1.078.42h-7.191Zm60.632 0c-.679 0-1.218-.2-1.618-.6-.399-.4-.639-.859-.719-1.378L721.4 46.12a.531.531 0 0 1-.06-.24v-.18c0-.32.12-.599.36-.838.279-.28.579-.42.899-.42h7.43c1.119 0 1.738.44 1.858 1.319l3.895 23.43 4.315-13.843c.12-.32.319-.659.599-1.018.28-.4.739-.6 1.378-.6h4.315c.679 0 1.158.2 1.438.6.28.36.46.699.539 1.018l4.315 13.783 3.895-23.37c.12-.88.739-1.319 1.858-1.319h7.431c.359 0 .659.14.898.42.24.24.36.519.36.839v.419l-6.532 38.292c-.08.52-.319.979-.719 1.378-.399.4-.939.6-1.618.6h-5.693c-.679 0-1.198-.18-1.558-.54-.359-.36-.599-.699-.719-1.018l-6.052-17.139-6.053 17.139c-.12.32-.359.659-.719 1.018-.32.36-.819.54-1.498.54h-5.693Zm43.87 0c-.44 0-.799-.14-1.079-.42-.279-.28-.419-.639-.419-1.078V56.726c0-.44.14-.8.419-1.079.28-.28.639-.42 1.079-.42h7.071c.4 0 .739.14 1.019.42.319.28.479.64.479 1.079V84.89c0 .439-.16.798-.479 1.078-.28.28-.619.42-1.019.42h-7.071Zm-.06-35.656c-.439 0-.799-.14-1.079-.42-.279-.279-.419-.638-.419-1.078v-5.333c0-.44.14-.8.419-1.079.28-.32.64-.48 1.079-.48h7.131c.44 0 .799.16 1.079.48.319.28.479.64.479 1.079v5.333c0 .44-.16.8-.479 1.079-.28.28-.639.42-1.079.42h-7.131Zm17.148 35.656c-.44 0-.799-.14-1.079-.42-.279-.28-.419-.639-.419-1.078V45.34c0-.44.14-.799.419-1.079.28-.28.639-.42 1.079-.42h6.951c.4 0 .739.14 1.019.42.32.28.479.64.479 1.079v20.075l8.33-9.169c.24-.28.499-.519.779-.719.28-.2.679-.3 1.198-.3h8.03c.36 0 .66.14.899.42.28.24.42.54.42.899 0 .16-.04.34-.12.54-.08.2-.2.359-.36.479L808.066 69.19l12.285 14.922c.319.32.479.639.479.958 0 .36-.14.68-.42.96-.239.239-.559.359-.958.359h-8.21c-.599 0-1.039-.1-1.318-.3-.28-.24-.54-.48-.779-.72l-9.469-11.385v10.907c0 .439-.159.798-.479 1.078-.28.28-.619.42-1.019.42h-6.951Zm34.995 0c-.439 0-.799-.14-1.078-.42-.28-.28-.42-.639-.42-1.078V56.726c0-.44.14-.8.42-1.079.279-.28.639-.42 1.078-.42h7.071c.4 0 .739.14 1.019.42.32.28.48.64.48 1.079V84.89c0 .439-.16.798-.48 1.078-.28.28-.619.42-1.019.42h-7.071Zm-.06-35.656c-.439 0-.799-.14-1.078-.42-.28-.279-.42-.638-.42-1.078v-5.333c0-.44.14-.8.42-1.079.279-.32.639-.48 1.078-.48h7.131c.44 0 .799.16 1.079.48.32.28.479.64.479 1.079v5.333c0 .44-.159.8-.479 1.079-.28.28-.639.42-1.079.42h-7.131ZM629.045 30.389a.863.863 0 0 1-.639-.249.864.864 0 0 1-.249-.64V6.419c0-.26.083-.473.249-.639a.863.863 0 0 1 .639-.248h16.584c.26 0 .473.083.639.248a.864.864 0 0 1 .248.64v3.338c0 .26-.082.473-.248.639a.866.866 0 0 1-.639.248h-11.328v4.794h10.546c.261 0 .474.095.64.284a.868.868 0 0 1 .248.64v3.09a.946.946 0 0 1-.248.638.867.867 0 0 1-.64.249h-10.546v4.936h11.612c.26 0 .473.083.639.249a.864.864 0 0 1 .249.639V29.5c0 .26-.083.473-.249.64a.866.866 0 0 1-.639.248h-16.868Zm22.289 0a.866.866 0 0 1-.639-.249.864.864 0 0 1-.248-.64V12.81c0-.26.082-.473.248-.639a.866.866 0 0 1 .639-.248h4.084c.261 0 .474.083.639.248a.864.864 0 0 1 .249.64v1.349c.615-.734 1.42-1.35 2.415-1.847.994-.497 2.166-.745 3.515-.745 1.373 0 2.581.307 3.623.923 1.065.616 1.893 1.527 2.485 2.734.616 1.184.924 2.64.924 4.368v9.908c0 .26-.095.473-.284.64a.823.823 0 0 1-.604.248h-4.475a.948.948 0 0 1-.639-.249.864.864 0 0 1-.248-.64v-9.694c0-1.112-.273-1.965-.817-2.556-.521-.616-1.302-.924-2.344-.924-.971 0-1.752.308-2.344.924-.568.591-.852 1.444-.852 2.556v9.695c0 .26-.095.473-.284.64a.823.823 0 0 1-.604.248h-4.439Zm29.496.355c-1.539 0-2.853-.166-3.942-.497-1.065-.355-1.941-.782-2.627-1.279-.663-.497-1.16-1.006-1.492-1.527-.331-.544-.509-1.006-.533-1.385a.72.72 0 0 1 .249-.639c.189-.19.391-.284.604-.284h4.048c.071 0 .13.012.178.036.047.023.118.07.213.142.307.165.615.378.923.639.308.236.663.45 1.065.639.403.19.888.284 1.456.284.663 0 1.219-.13 1.669-.39.45-.261.675-.652.675-1.172 0-.38-.107-.687-.32-.924-.213-.26-.651-.509-1.314-.745-.639-.237-1.609-.474-2.911-.71-1.232-.285-2.309-.652-3.232-1.102-.923-.473-1.634-1.077-2.131-1.81-.497-.758-.745-1.67-.745-2.735 0-.947.307-1.858.923-2.734.615-.876 1.515-1.587 2.699-2.131 1.183-.568 2.639-.852 4.368-.852 1.373 0 2.556.165 3.551.497 1.018.308 1.87.71 2.557 1.207.71.497 1.242 1.006 1.598 1.527.355.521.544.995.568 1.42a.819.819 0 0 1-.213.64.782.782 0 0 1-.568.248h-3.694c-.094 0-.189-.011-.284-.035a2.396 2.396 0 0 1-.248-.142 4.456 4.456 0 0 1-.853-.568 5.113 5.113 0 0 0-.994-.64c-.379-.189-.852-.284-1.42-.284-.64 0-1.137.142-1.492.426a1.346 1.346 0 0 0-.533 1.101c0 .308.095.592.285.853.213.26.627.497 1.242.71.64.213 1.622.45 2.948.71 1.633.26 2.936.687 3.906 1.279.971.568 1.657 1.242 2.06 2.024.402.757.604 1.562.604 2.414 0 1.137-.344 2.143-1.03 3.019-.663.876-1.658 1.562-2.983 2.06-1.326.473-2.936.71-4.83.71Zm20.552 0c-2.794 0-5.019-.758-6.676-2.273-1.658-1.515-2.522-3.764-2.593-6.747V20.48c.071-1.87.486-3.468 1.243-4.794.782-1.35 1.847-2.367 3.196-3.054 1.373-.71 2.971-1.065 4.794-1.065 2.084 0 3.8.414 5.149 1.242a7.867 7.867 0 0 1 3.09 3.374c.687 1.42 1.03 3.042 1.03 4.865v.852c0 .26-.095.474-.284.64a.823.823 0 0 1-.604.248h-11.364v.249c.024.686.142 1.314.355 1.882.214.568.545 1.018.995 1.35.45.33.994.497 1.633.497.474 0 .864-.072 1.172-.214.332-.165.604-.343.817-.532a8.03 8.03 0 0 0 .497-.533c.213-.237.379-.379.497-.426.142-.071.355-.107.639-.107h4.404c.237 0 .426.072.568.214.166.118.237.295.213.532-.024.403-.225.888-.604 1.456-.378.568-.935 1.137-1.669 1.705-.71.544-1.609.994-2.698 1.35-1.089.354-2.356.532-3.8.532Zm-3.019-11.47h6.002v-.071c0-.758-.119-1.42-.355-1.99-.213-.567-.557-1.005-1.03-1.313-.45-.308-.994-.462-1.634-.462-.639 0-1.183.154-1.633.462-.426.308-.758.746-.995 1.314-.236.568-.355 1.231-.355 1.989v.07Zm16.469 11.115a.863.863 0 0 1-.639-.249.864.864 0 0 1-.249-.64V12.81c0-.26.083-.473.249-.639a.863.863 0 0 1 .639-.248h3.871c.26 0 .473.083.639.248a.868.868 0 0 1 .248.64v1.207c.474-.64 1.137-1.196 1.989-1.67.852-.496 1.858-.757 3.018-.78 2.723-.048 4.593.982 5.611 3.09.545-.9 1.326-1.634 2.344-2.203a6.525 6.525 0 0 1 3.338-.887c1.231 0 2.332.284 3.303.852.994.544 1.787 1.397 2.379 2.557.592 1.136.888 2.616.888 4.439V29.5c0 .26-.095.473-.284.64a.823.823 0 0 1-.604.248h-4.119a.99.99 0 0 1-.675-.249.864.864 0 0 1-.249-.64v-9.836c0-.828-.118-1.48-.355-1.953-.237-.497-.556-.852-.959-1.065-.402-.213-.864-.32-1.385-.32-.426 0-.852.107-1.278.32-.403.213-.734.568-.994 1.065-.237.474-.355 1.125-.355 1.953V29.5c0 .26-.083.473-.249.64a.866.866 0 0 1-.639.248h-4.12a.866.866 0 0 1-.639-.249.864.864 0 0 1-.248-.64v-9.836c0-.828-.131-1.48-.391-1.953-.26-.497-.592-.852-.994-1.065a2.843 2.843 0 0 0-1.35-.32c-.426 0-.852.107-1.278.32-.403.213-.734.568-.994 1.065-.237.474-.356 1.113-.356 1.918V29.5c0 .26-.094.473-.284.64a.863.863 0 0 1-.639.248h-4.19Zm42.899.355c-1.326 0-2.439-.225-3.338-.675-.876-.45-1.598-1.018-2.166-1.704V29.5c0 .26-.095.473-.284.64a.823.823 0 0 1-.604.248h-4.013a.866.866 0 0 1-.639-.249.864.864 0 0 1-.249-.64V6.064c0-.26.083-.473.249-.639a.866.866 0 0 1 .639-.248h4.332c.261 0 .474.082.64.248a.868.868 0 0 1 .248.64v7.599c.568-.616 1.279-1.113 2.131-1.492.876-.402 1.894-.603 3.054-.603 1.184 0 2.225.2 3.125.603a6.172 6.172 0 0 1 2.344 1.67c.639.733 1.136 1.61 1.491 2.627.355 1.018.557 2.166.604 3.445.024.45.035.864.035 1.243 0 .355-.011.77-.035 1.243-.047 1.325-.261 2.51-.639 3.55-.355 1.019-.853 1.895-1.492 2.629a6.405 6.405 0 0 1-2.308 1.633c-.9.355-1.941.533-3.125.533Zm-1.918-4.759c.805 0 1.433-.165 1.882-.497.45-.331.77-.781.959-1.35a6.63 6.63 0 0 0 .391-1.881c.047-.734.047-1.468 0-2.202a6.628 6.628 0 0 0-.391-1.882 2.676 2.676 0 0 0-.959-1.35c-.449-.331-1.077-.497-1.882-.497-.734 0-1.337.166-1.811.497a2.87 2.87 0 0 0-1.065 1.243 4.145 4.145 0 0 0-.391 1.634 25.756 25.756 0 0 0 0 2.663c.024.64.142 1.231.355 1.776.213.544.557.994 1.03 1.35.474.33 1.101.496 1.882.496Zm13.916 4.404a.863.863 0 0 1-.639-.249.864.864 0 0 1-.249-.64V6.064c0-.26.083-.473.249-.639a.863.863 0 0 1 .639-.248h4.19c.261 0 .474.082.639.248a.864.864 0 0 1 .249.64V29.5c0 .26-.083.473-.249.64a.863.863 0 0 1-.639.248h-4.19Zm17.796.355c-2.794 0-5.019-.758-6.676-2.273-1.658-1.515-2.522-3.764-2.593-6.747V20.48c.071-1.87.486-3.468 1.243-4.794.781-1.35 1.847-2.367 3.196-3.054 1.373-.71 2.971-1.065 4.794-1.065 2.084 0 3.8.414 5.149 1.242a7.873 7.873 0 0 1 3.09 3.374c.686 1.42 1.03 3.042 1.03 4.865v.852c0 .26-.095.474-.284.64a.823.823 0 0 1-.604.248h-11.364v.249c.024.686.142 1.314.355 1.882.213.568.545 1.018.995 1.35.449.33.994.497 1.633.497.474 0 .864-.072 1.172-.214.332-.165.604-.343.817-.532a8.03 8.03 0 0 0 .497-.533c.213-.237.379-.379.497-.426.142-.071.355-.107.639-.107h4.404c.237 0 .426.072.568.214.166.118.237.295.213.532-.024.403-.225.888-.604 1.456-.378.568-.935 1.137-1.669 1.705-.71.544-1.61.994-2.699 1.35-1.089.354-2.355.532-3.799.532Zm-3.019-11.47h6.002v-.071c0-.758-.119-1.42-.355-1.99-.214-.567-.557-1.005-1.03-1.313-.45-.308-.995-.462-1.634-.462-.639 0-1.184.154-1.633.462-.426.308-.758.746-.995 1.314-.236.568-.355 1.231-.355 1.989v.07Zm32.8 11.47c-2.367 0-4.332-.332-5.895-.994-1.562-.687-2.746-1.575-3.551-2.664-.805-1.089-1.231-2.249-1.278-3.48a.68.68 0 0 1 .213-.497.78.78 0 0 1 .568-.249h4.474c.332 0 .58.06.746.178.189.118.355.272.497.462.19.355.45.698.781 1.03.356.33.805.603 1.35.816.568.19 1.266.284 2.095.284 1.373 0 2.403-.213 3.09-.64.71-.425 1.065-1.005 1.065-1.74 0-.52-.19-.946-.568-1.277-.379-.356-.995-.663-1.847-.924-.829-.284-1.941-.568-3.338-.852-1.799-.379-3.338-.864-4.616-1.456-1.255-.616-2.214-1.409-2.877-2.38-.663-.994-.994-2.225-.994-3.693 0-1.444.402-2.734 1.207-3.87.829-1.137 1.977-2.024 3.445-2.664 1.468-.639 3.208-.958 5.22-.958 1.633 0 3.066.213 4.297.639 1.255.426 2.308.994 3.16 1.704.853.71 1.492 1.468 1.918 2.273.45.781.687 1.55.71 2.308 0 .19-.071.367-.213.533a.722.722 0 0 1-.533.213h-4.687c-.26 0-.485-.047-.675-.142a1.31 1.31 0 0 1-.497-.462c-.142-.52-.521-.97-1.136-1.35-.592-.401-1.373-.603-2.344-.603-1.042 0-1.858.19-2.45.568-.569.356-.853.912-.853 1.67 0 .473.154.887.462 1.242.331.355.864.663 1.598.924.758.26 1.787.532 3.09.816 2.154.403 3.894.912 5.22 1.527 1.325.592 2.296 1.373 2.912 2.344.615.947.923 2.143.923 3.587 0 1.61-.462 3.006-1.385 4.19-.9 1.16-2.154 2.048-3.764 2.663-1.61.616-3.457.924-5.54.924Zm23.299-.355c-1.515 0-2.829-.237-3.941-.71a5.473 5.473 0 0 1-2.522-2.273c-.592-1.042-.887-2.38-.887-4.013v-6.818h-2.77a.99.99 0 0 1-.675-.249.865.865 0 0 1-.249-.639V12.81c0-.26.083-.473.249-.639a.99.99 0 0 1 .675-.248h2.77v-5.86c0-.26.082-.473.248-.639a.946.946 0 0 1 .639-.248h4.12c.26 0 .473.082.639.248a.864.864 0 0 1 .248.64v5.859h4.439c.261 0 .474.083.64.248a.868.868 0 0 1 .248.64v2.876c0 .26-.083.473-.248.64a.867.867 0 0 1-.64.248h-4.439v6.32c0 .806.154 1.445.462 1.918.308.474.829.71 1.563.71h2.734c.26 0 .473.084.639.25a.864.864 0 0 1 .249.638v3.09c0 .26-.083.473-.249.64a.866.866 0 0 1-.639.248h-3.303Zm12.671.355c-1.279 0-2.427-.237-3.445-.71-.994-.498-1.787-1.16-2.379-1.99a4.709 4.709 0 0 1-.888-2.805c0-1.68.687-3.006 2.06-3.977 1.373-.994 3.196-1.669 5.468-2.024l4.439-.675v-.497c0-.852-.177-1.503-.532-1.953-.355-.45-1.006-.675-1.953-.675-.663 0-1.208.13-1.634.391-.402.26-.722.616-.959 1.065a1.02 1.02 0 0 1-.888.462h-3.977c-.26 0-.461-.071-.603-.213a.714.714 0 0 1-.178-.568c0-.426.154-.912.462-1.456.331-.568.828-1.125 1.491-1.67.663-.544 1.515-.994 2.557-1.349s2.296-.532 3.764-.532c1.539 0 2.853.177 3.942.532 1.089.355 1.965.853 2.628 1.492a5.948 5.948 0 0 1 1.527 2.272c.331.853.497 1.8.497 2.841v10.796c0 .26-.095.473-.284.64a.823.823 0 0 1-.604.248h-4.119a.863.863 0 0 1-.639-.249.864.864 0 0 1-.249-.64v-1.242c-.308.45-.722.864-1.243 1.243a6.084 6.084 0 0 1-1.846.888c-.687.236-1.492.355-2.415.355Zm1.669-4.049c.686 0 1.302-.142 1.846-.426.569-.307 1.007-.77 1.314-1.385.332-.639.497-1.432.497-2.379v-.497l-3.018.533c-1.113.189-1.929.485-2.45.887-.497.38-.746.829-.746 1.35 0 .402.118.746.355 1.03.237.284.545.509.923.674a3.62 3.62 0 0 0 1.279.213Zm14.625 3.694a.863.863 0 0 1-.639-.249.864.864 0 0 1-.249-.64V12.81c0-.236.083-.437.249-.603a.808.808 0 0 1 .639-.284h4.084a.81.81 0 0 1 .639.284.82.82 0 0 1 .248.603v1.421a6.692 6.692 0 0 1 2.273-1.705c.9-.402 1.906-.603 3.019-.603h1.562c.237 0 .438.083.604.248a.812.812 0 0 1 .284.64v3.657c0 .237-.095.45-.284.64a.823.823 0 0 1-.604.248h-3.444c-.971 0-1.729.272-2.273.817-.521.52-.781 1.266-.781 2.237v9.09a.813.813 0 0 1-.284.64.867.867 0 0 1-.64.249h-4.403Zm22.837.355c-1.538 0-2.852-.166-3.941-.497-1.066-.355-1.942-.782-2.628-1.279-.663-.497-1.16-1.006-1.492-1.527-.331-.544-.509-1.006-.532-1.385a.717.717 0 0 1 .248-.639c.19-.19.391-.284.604-.284h4.048c.071 0 .13.012.178.036.047.023.118.07.213.142.308.165.615.378.923.639.308.236.663.45 1.065.639.403.19.888.284 1.456.284.663 0 1.22-.13 1.669-.39.45-.261.675-.652.675-1.172 0-.38-.106-.687-.319-.924-.214-.26-.651-.509-1.314-.745-.64-.237-1.61-.474-2.912-.71-1.231-.285-2.309-.652-3.232-1.102-.923-.473-1.633-1.077-2.131-1.81-.497-.758-.745-1.67-.745-2.735 0-.947.307-1.858.923-2.734.616-.876 1.515-1.587 2.699-2.131 1.184-.568 2.64-.852 4.368-.852 1.373 0 2.557.165 3.551.497 1.018.308 1.87.71 2.557 1.207.71.497 1.243 1.006 1.598 1.527.355.521.544.995.568 1.42a.811.811 0 0 1-.213.64.782.782 0 0 1-.568.248h-3.693c-.095 0-.19-.011-.285-.035a2.396 2.396 0 0 1-.248-.142 4.45 4.45 0 0 1-.852-.568 5.152 5.152 0 0 0-.995-.64c-.379-.189-.852-.284-1.42-.284-.639 0-1.137.142-1.492.426a1.346 1.346 0 0 0-.532 1.101c0 .308.094.592.284.853.213.26.627.497 1.243.71.639.213 1.621.45 2.947.71 1.634.26 2.936.687 3.906 1.279.971.568 1.658 1.242 2.06 2.024.402.757.604 1.562.604 2.414 0 1.137-.344 2.143-1.03 3.019-.663.876-1.657 1.562-2.983 2.06-1.326.473-2.936.71-4.83.71ZM556.908 42.93c-5.681-3.55-12.782-9.763-19.528-16.331-7.278-7.279-14.024-15.09-17.93-21.303-1.598-2.486-5.326-2.486-6.923 0-7.634 11.894-25.741 30.001-37.636 37.635-2.485 1.598-2.485 5.326 0 6.923 11.895 7.634 30.002 25.742 37.636 37.636 1.597 2.485 5.325 2.485 6.923 0 3.906-6.214 10.652-14.025 17.93-21.303 6.746-6.569 13.847-12.782 19.528-16.333 2.663-1.775 2.663-5.325 0-6.923Zm-26.629 16.51c-4.438-3.905-8.699-7.278-12.427-9.586-2.485-1.597-2.485-5.325 0-6.923 3.728-2.308 7.989-5.68 12.427-9.586 4.793 4.793 9.942 9.408 14.735 13.136-4.793 3.55-9.942 8.167-14.735 12.96Z"/>
  <path fill="#081754" d="M558.861 17.367c7.633 9.764 19.173 21.303 28.936 28.937-9.763 7.633-21.303 19.172-28.936 28.936-7.634-9.763-19.173-21.303-28.937-28.936 9.764-7.634 21.303-19.173 28.937-28.937Zm0-14.024c-1.243 0-2.663.71-3.551 1.953-7.456 11.894-25.563 30.001-37.457 37.635-2.486 1.598-2.486 5.326 0 6.923 11.894 7.634 30.001 25.741 37.635 37.636.887 1.242 2.13 1.952 3.55 1.952 1.243 0 2.663-.71 3.551-1.952 7.633-11.895 25.741-30.002 37.635-37.636 2.485-1.597 2.485-5.325 0-6.923-12.072-7.634-30.357-25.741-37.813-37.635-.887-1.243-2.13-1.953-3.55-1.953Zm197.925 219.134c-.68 0-1.219-.2-1.618-.6-.4-.399-.64-.859-.72-1.378l-6.531-38.292a.533.533 0 0 1-.06-.24v-.18c0-.319.12-.599.359-.839.28-.279.58-.419.899-.419h7.431c1.118 0 1.738.439 1.858 1.318l3.895 23.431 4.314-13.843c.12-.319.32-.659.599-1.018.28-.4.74-.6 1.379-.6h4.314c.68 0 1.159.2 1.439.6.279.359.459.699.539 1.018l4.315 13.783 3.895-23.371c.119-.879.739-1.318 1.857-1.318h7.431c.36 0 .659.14.899.419.24.24.359.52.359.839v.42l-6.531 38.292c-.08.519-.32.979-.719 1.378-.4.4-.939.6-1.618.6h-5.693c-.679 0-1.199-.18-1.558-.54-.36-.359-.6-.699-.719-1.018l-6.053-17.139-6.052 17.139c-.12.319-.36.659-.719 1.018-.32.36-.819.54-1.499.54h-5.692Zm43.869 0c-.439 0-.799-.14-1.078-.42-.28-.28-.42-.639-.42-1.079v-28.164c0-.44.14-.799.42-1.079.279-.28.639-.419 1.078-.419h7.072c.399 0 .739.139 1.018.419.32.28.48.639.48 1.079v28.164c0 .44-.16.799-.48 1.079-.279.28-.619.42-1.018.42h-7.072Zm-.06-35.656c-.439 0-.799-.14-1.078-.419-.28-.28-.42-.64-.42-1.079v-5.333c0-.44.14-.799.42-1.079.279-.32.639-.479 1.078-.479h7.132c.439 0 .799.159 1.078.479.32.28.48.639.48 1.079v5.333c0 .439-.16.799-.48 1.079-.279.279-.639.419-1.078.419h-7.132Zm17.148 35.656c-.439 0-.799-.14-1.078-.42-.28-.28-.42-.639-.42-1.079v-39.55c0-.44.14-.799.42-1.079.279-.279.639-.419 1.078-.419h6.952c.399 0 .739.14 1.018.419.32.28.48.639.48 1.079v20.075l8.329-9.169c.24-.279.5-.519.779-.719.28-.2.68-.299 1.199-.299h8.03c.359 0 .659.139.899.419.279.24.419.539.419.899 0 .16-.04.339-.12.539-.08.2-.199.36-.359.48l-10.787 11.625 12.285 14.921c.32.32.479.64.479.959 0 .36-.139.679-.419.959-.24.24-.559.36-.959.36h-8.21c-.599 0-1.038-.1-1.318-.3-.28-.24-.539-.479-.779-.719l-9.468-11.386v10.906c0 .44-.16.799-.48 1.079-.279.28-.619.42-1.018.42h-6.952Zm34.996 0c-.44 0-.799-.14-1.079-.42-.28-.28-.419-.639-.419-1.079v-28.164c0-.44.139-.799.419-1.079.28-.28.639-.419 1.079-.419h7.071c.399 0 .739.139 1.019.419.319.28.479.639.479 1.079v28.164c0 .44-.16.799-.479 1.079-.28.28-.62.42-1.019.42h-7.071Zm-.06-35.656c-.44 0-.799-.14-1.079-.419-.28-.28-.419-.64-.419-1.079v-5.333c0-.44.139-.799.419-1.079.28-.32.639-.479 1.079-.479h7.131c.439 0 .799.159 1.079.479.319.28.479.639.479 1.079v5.333c0 .439-.16.799-.479 1.079-.28.279-.64.419-1.079.419h-7.131Zm-215.582 14.924c0 1.099.549 1.648 1.593 1.648h9.118c1.099 0 1.648-.549 1.648-1.648v-9.612c0-1.044-.549-1.593-1.593-1.593h-9.118c-1.099 0-1.648.549-1.648 1.593v9.612Zm1.593 7.581c-.989 0-1.538.439-1.593 1.373-.055 1.098-.605 1.648-1.648 1.648h-3.516c-1.098 0-1.648-.55-1.648-1.593v-24.719c0-1.043.55-1.593 1.593-1.593h15.985c1.044 0 1.593-.549 1.593-1.593v-5.438c0-1.098.549-1.648 1.648-1.648h4.065c1.098 0 1.648.55 1.648 1.593v5.438c0 1.099.549 1.648 1.593 1.648h15.984c1.044 0 1.593.55 1.593 1.593v24.719c0 1.043-.549 1.593-1.648 1.593h-3.515c-1.044 0-1.593-.44-1.648-1.373-.055-1.099-.604-1.648-1.593-1.648h-9.119c-1.098 0-1.647.549-1.647 1.648v12.963c0 1.099-.55 1.648-1.648 1.648h-4.065c-1.099 0-1.648-.549-1.648-1.703v-12.908c0-1.099-.549-1.648-1.648-1.648h-9.118Zm28.893-5.933c1.044 0 1.593-.549 1.593-1.648v-9.612c0-1.044-.549-1.593-1.593-1.593h-9.119c-1.098 0-1.647.549-1.647 1.647v9.613c0 1.044.549 1.593 1.647 1.593h9.119Zm46.965 5.768c-.824.879-.714 1.593.275 2.142 3.955 2.252 9.228 4.395 15.765 6.317 1.043.33 1.428.989 1.043 2.032l-.988 2.912c-.385 1.043-1.099 1.428-2.143 1.153-7.855-2.252-14.227-4.888-19.06-7.91-.934-.604-1.813-.604-2.747 0-4.834 3.022-11.206 5.658-19.061 7.91-1.043.275-1.757-.055-2.142-1.098l-.989-2.912c-.384-1.043-.055-1.757.989-2.032 6.537-1.923 11.81-4.065 15.765-6.372.989-.604 1.099-1.318.33-2.197-3.516-3.9-6.482-8.899-8.844-15.106-.385-1.043-.055-1.758 1.043-2.032l3.516-.934c1.044-.275 1.758.055 2.142 1.099 2.088 5.383 4.559 9.667 7.361 12.798.714.824 1.483.824 2.197 0 2.911-3.46 5.493-8.184 7.69-14.227.385-1.153 0-1.757-1.263-1.757h-29.552c-1.099 0-1.648-.55-1.648-1.648v-2.967c0-1.043.549-1.592 1.648-1.592h16.863c1.099 0 1.648-.55 1.648-1.648v-4.065c0-1.099.549-1.648 1.648-1.648h4.065c1.098 0 1.648.549 1.648 1.648v4.065c0 1.098.549 1.648 1.647 1.648h16.864c1.099 0 1.648.549 1.648 1.592v2.967c0 1.098-.549 1.648-1.593 1.648h-3.68c-1.099 0-1.813.549-2.198 1.593-2.691 7.91-5.987 14.117-9.887 18.621Zm-85.503-43.684a.862.862 0 0 1-.639-.249.865.865 0 0 1-.249-.639v-23.083c0-.26.083-.473.249-.639a.861.861 0 0 1 .639-.248h16.584c.26 0 .473.082.639.248a.864.864 0 0 1 .248.639v3.338a.865.865 0 0 1-.248.64.868.868 0 0 1-.639.248h-11.328v4.794h10.546c.261 0 .474.095.64.284a.869.869 0 0 1 .248.64v3.089c0 .237-.083.45-.248.639a.866.866 0 0 1-.64.249h-10.546v4.936h11.612c.26 0 .473.083.639.249a.862.862 0 0 1 .249.639v3.338c0 .26-.083.473-.249.639a.865.865 0 0 1-.639.249h-16.868Zm22.289 0a.865.865 0 0 1-.639-.249.864.864 0 0 1-.248-.639v-16.691c0-.26.082-.473.248-.639a.864.864 0 0 1 .639-.248h4.084c.261 0 .474.082.639.248a.865.865 0 0 1 .249.639v1.35c.615-.734 1.42-1.35 2.415-1.847.994-.497 2.166-.745 3.515-.745 1.373 0 2.581.307 3.623.923 1.065.615 1.893 1.527 2.485 2.734.616 1.184.924 2.64.924 4.368v9.908c0 .26-.095.473-.284.639a.822.822 0 0 1-.604.249h-4.475a.947.947 0 0 1-.639-.249.864.864 0 0 1-.248-.639v-9.695c0-1.113-.273-1.965-.817-2.557-.521-.615-1.302-.923-2.344-.923-.971 0-1.752.308-2.344.923-.568.592-.852 1.444-.852 2.557v9.695c0 .26-.095.473-.284.639a.822.822 0 0 1-.604.249h-4.439Zm29.496.355c-1.539 0-2.853-.166-3.942-.497-1.065-.356-1.941-.782-2.627-1.279-.663-.497-1.16-1.006-1.492-1.527-.331-.544-.509-1.006-.533-1.385a.72.72 0 0 1 .249-.639c.189-.189.391-.284.604-.284h4.048c.071 0 .13.012.178.035.047.024.118.071.213.142.307.166.615.379.923.64.308.236.663.449 1.065.639.403.189.888.284 1.456.284.663 0 1.219-.13 1.669-.391.45-.26.675-.651.675-1.172 0-.378-.107-.686-.32-.923-.213-.26-.651-.509-1.314-.746-.639-.236-1.609-.473-2.911-.71-1.232-.284-2.309-.651-3.232-1.101-.923-.473-1.634-1.077-2.131-1.811-.497-.757-.745-1.669-.745-2.734 0-.947.307-1.859.923-2.735.615-.875 1.515-1.586 2.699-2.13 1.183-.568 2.639-.852 4.368-.852 1.373 0 2.556.165 3.551.497 1.018.307 1.87.71 2.557 1.207.71.497 1.242 1.006 1.598 1.527.355.521.544.994.568 1.421a.82.82 0 0 1-.213.639.784.784 0 0 1-.568.248h-3.694c-.094 0-.189-.012-.284-.035a2.572 2.572 0 0 1-.248-.142 4.483 4.483 0 0 1-.853-.568 5.134 5.134 0 0 0-.994-.64c-.379-.189-.852-.284-1.42-.284-.64 0-1.137.142-1.492.426a1.346 1.346 0 0 0-.533 1.101c0 .308.095.592.285.853.213.26.627.497 1.242.71.64.213 1.622.45 2.948.71 1.633.26 2.936.687 3.906 1.278.971.569 1.657 1.243 2.06 2.025.402.757.604 1.562.604 2.414 0 1.137-.344 2.143-1.03 3.019-.663.876-1.658 1.562-2.983 2.059-1.326.474-2.936.711-4.83.711Zm20.552 0c-2.794 0-5.019-.758-6.676-2.273-1.658-1.515-2.522-3.764-2.593-6.747v-1.243c.071-1.87.486-3.468 1.243-4.794.782-1.35 1.847-2.368 3.196-3.054 1.373-.71 2.971-1.065 4.794-1.065 2.084 0 3.8.414 5.149 1.242a7.873 7.873 0 0 1 3.09 3.374c.687 1.42 1.03 3.042 1.03 4.865v.852a.813.813 0 0 1-.284.64.825.825 0 0 1-.604.248h-11.364v.249c.024.686.142 1.314.355 1.882.214.568.545 1.018.995 1.349.45.332.994.497 1.633.497.474 0 .864-.071 1.172-.213.332-.165.604-.343.817-.532.213-.213.379-.391.497-.533.213-.237.379-.379.497-.426.142-.071.355-.107.639-.107h4.404c.237 0 .426.071.568.213.166.119.237.296.213.533-.024.403-.225.888-.604 1.456-.378.568-.935 1.136-1.669 1.705-.71.544-1.609.994-2.698 1.349s-2.356.533-3.8.533Zm-3.019-11.471h6.002v-.071c0-.757-.119-1.42-.355-1.988-.213-.568-.557-1.006-1.03-1.314-.45-.308-.994-.462-1.634-.462-.639 0-1.183.154-1.633.462-.426.308-.758.746-.995 1.314-.236.568-.355 1.231-.355 1.988v.071Zm16.469 11.116a.862.862 0 0 1-.639-.249.865.865 0 0 1-.249-.639v-16.691c0-.26.083-.473.249-.639a.861.861 0 0 1 .639-.248h3.871c.26 0 .473.082.639.248a.868.868 0 0 1 .248.639v1.208c.474-.639 1.137-1.196 1.989-1.669.852-.497 1.858-.758 3.018-.781 2.723-.048 4.593.982 5.611 3.089.545-.9 1.326-1.634 2.344-2.202a6.522 6.522 0 0 1 3.338-.887c1.231 0 2.332.284 3.303.852.994.544 1.787 1.397 2.379 2.557.592 1.136.888 2.616.888 4.439v10.085c0 .26-.095.473-.284.639a.822.822 0 0 1-.604.249h-4.119a.989.989 0 0 1-.675-.249.865.865 0 0 1-.249-.639v-9.837c0-.828-.118-1.48-.355-1.953-.237-.497-.556-.852-.959-1.065-.402-.213-.864-.32-1.385-.32-.426 0-.852.107-1.278.32-.403.213-.734.568-.994 1.065-.237.473-.355 1.125-.355 1.953v9.837c0 .26-.083.473-.249.639a.865.865 0 0 1-.639.249h-4.12a.865.865 0 0 1-.639-.249.864.864 0 0 1-.248-.639v-9.837c0-.828-.131-1.48-.391-1.953-.26-.497-.592-.852-.994-1.065a2.844 2.844 0 0 0-1.35-.32c-.426 0-.852.107-1.278.32-.403.213-.734.568-.994 1.065-.237.473-.356 1.113-.356 1.918v9.872a.81.81 0 0 1-.284.639.862.862 0 0 1-.639.249h-4.19Zm42.899.355c-1.326 0-2.439-.225-3.338-.675-.876-.45-1.598-1.018-2.166-1.705v1.137c0 .26-.095.473-.284.639a.822.822 0 0 1-.604.249h-4.013a.865.865 0 0 1-.639-.249.865.865 0 0 1-.249-.639v-23.438c0-.26.083-.473.249-.639a.865.865 0 0 1 .639-.249h4.332c.261 0 .474.083.64.249a.868.868 0 0 1 .248.639v7.6c.568-.616 1.279-1.113 2.131-1.492.876-.402 1.894-.603 3.054-.603 1.184 0 2.225.201 3.125.603a6.173 6.173 0 0 1 2.344 1.669c.639.734 1.136 1.61 1.491 2.628.355 1.018.557 2.166.604 3.445.024.45.035.864.035 1.243 0 .355-.011.769-.035 1.242-.047 1.326-.261 2.51-.639 3.552-.355 1.018-.853 1.894-1.492 2.627a6.399 6.399 0 0 1-2.308 1.634c-.9.355-1.941.533-3.125.533Zm-1.918-4.759c.805 0 1.433-.166 1.882-.497.45-.331.77-.781.959-1.349a6.638 6.638 0 0 0 .391-1.883c.047-.733.047-1.467 0-2.201a6.624 6.624 0 0 0-.391-1.882 2.676 2.676 0 0 0-.959-1.35c-.449-.331-1.077-.497-1.882-.497-.734 0-1.337.166-1.811.497a2.87 2.87 0 0 0-1.065 1.243 4.146 4.146 0 0 0-.391 1.634 25.705 25.705 0 0 0 0 2.663c.024.639.142 1.231.355 1.776.213.544.557.994 1.03 1.349.474.331 1.101.497 1.882.497Zm13.916 4.404a.862.862 0 0 1-.639-.249.865.865 0 0 1-.249-.639v-23.438c0-.26.083-.473.249-.639a.862.862 0 0 1 .639-.249h4.19c.261 0 .474.083.639.249a.865.865 0 0 1 .249.639v23.438c0 .26-.083.473-.249.639a.862.862 0 0 1-.639.249h-4.19Zm17.796.355c-2.794 0-5.019-.758-6.676-2.273-1.658-1.515-2.522-3.764-2.593-6.747v-1.243c.071-1.87.486-3.468 1.243-4.794.781-1.35 1.847-2.368 3.196-3.054 1.373-.71 2.971-1.065 4.794-1.065 2.084 0 3.8.414 5.149 1.242a7.879 7.879 0 0 1 3.09 3.374c.686 1.42 1.03 3.042 1.03 4.865v.852a.813.813 0 0 1-.284.64.825.825 0 0 1-.604.248h-11.364v.249c.024.686.142 1.314.355 1.882.213.568.545 1.018.995 1.349.449.332.994.497 1.633.497.474 0 .864-.071 1.172-.213.332-.165.604-.343.817-.532.213-.213.379-.391.497-.533.213-.237.379-.379.497-.426.142-.071.355-.107.639-.107h4.404c.237 0 .426.071.568.213.166.119.237.296.213.533-.024.403-.225.888-.604 1.456-.378.568-.935 1.136-1.669 1.705-.71.544-1.61.994-2.699 1.349-1.089.355-2.355.533-3.799.533Zm-3.019-11.471h6.002v-.071c0-.757-.119-1.42-.355-1.988-.214-.568-.557-1.006-1.03-1.314-.45-.308-.995-.462-1.634-.462-.639 0-1.184.154-1.633.462-.426.308-.758.746-.995 1.314-.236.568-.355 1.231-.355 1.988v.071Zm32.8 11.471c-2.367 0-4.332-.332-5.895-.995-1.562-.686-2.746-1.574-3.551-2.663-.805-1.089-1.231-2.249-1.278-3.48a.68.68 0 0 1 .213-.497.78.78 0 0 1 .568-.249h4.474c.332 0 .58.059.746.178.189.118.355.272.497.461.19.355.45.699.781 1.03.356.332.805.604 1.35.817.568.189 1.266.284 2.095.284 1.373 0 2.403-.213 3.09-.639.71-.426 1.065-1.006 1.065-1.74 0-.521-.19-.947-.568-1.279-.379-.355-.995-.663-1.847-.923-.829-.284-1.941-.568-3.338-.852-1.799-.379-3.338-.864-4.616-1.456-1.255-.616-2.214-1.409-2.877-2.379-.663-.995-.994-2.226-.994-3.694 0-1.444.402-2.734 1.207-3.87.829-1.137 1.977-2.025 3.445-2.664 1.468-.639 3.208-.959 5.22-.959 1.633 0 3.066.214 4.297.64 1.255.426 2.308.994 3.16 1.704.853.71 1.492 1.468 1.918 2.273.45.781.687 1.551.71 2.308 0 .19-.071.367-.213.533a.722.722 0 0 1-.533.213h-4.687c-.26 0-.485-.047-.675-.142a1.315 1.315 0 0 1-.497-.462c-.142-.521-.521-.97-1.136-1.349-.592-.403-1.373-.604-2.344-.604-1.042 0-1.858.19-2.45.568-.569.355-.853.912-.853 1.669 0 .474.154.888.462 1.243.331.355.864.663 1.598.924.758.26 1.787.532 3.09.816 2.154.403 3.894.912 5.22 1.527 1.325.592 2.296 1.373 2.912 2.344.615.947.923 2.143.923 3.587 0 1.61-.462 3.006-1.385 4.19-.9 1.16-2.154 2.048-3.764 2.663-1.61.616-3.457.924-5.54.924Zm23.299-.355c-1.515 0-2.829-.237-3.941-.711a5.471 5.471 0 0 1-2.522-2.272c-.592-1.042-.887-2.38-.887-4.013v-6.818h-2.77a.989.989 0 0 1-.675-.249.865.865 0 0 1-.249-.639v-2.877c0-.26.083-.473.249-.639a.988.988 0 0 1 .675-.248h2.77v-5.86c0-.26.082-.473.248-.639a.945.945 0 0 1 .639-.249h4.12c.26 0 .473.083.639.249a.864.864 0 0 1 .248.639v5.86h4.439c.261 0 .474.082.64.248a.868.868 0 0 1 .248.639v2.877c0 .26-.083.473-.248.639a.866.866 0 0 1-.64.249h-4.439v6.321c0 .805.154 1.444.462 1.917.308.474.829.711 1.563.711h2.734c.26 0 .473.082.639.248a.865.865 0 0 1 .249.639v3.09c0 .26-.083.473-.249.639a.865.865 0 0 1-.639.249h-3.303Zm12.671.355c-1.279 0-2.427-.237-3.445-.711-.994-.497-1.787-1.16-2.379-1.988a4.71 4.71 0 0 1-.888-2.806c0-1.68.687-3.006 2.06-3.977 1.373-.994 3.196-1.669 5.468-2.024l4.439-.675v-.497c0-.852-.177-1.503-.532-1.953-.355-.45-1.006-.675-1.953-.675-.663 0-1.208.13-1.634.391-.402.26-.722.615-.959 1.065a1.02 1.02 0 0 1-.888.462h-3.977c-.26 0-.461-.071-.603-.213a.714.714 0 0 1-.178-.568c0-.427.154-.912.462-1.456.331-.569.828-1.125 1.491-1.669.663-.545 1.515-.995 2.557-1.35 1.042-.355 2.296-.532 3.764-.532 1.539 0 2.853.177 3.942.532 1.089.355 1.965.852 2.628 1.492a5.943 5.943 0 0 1 1.527 2.272c.331.853.497 1.8.497 2.841v10.796c0 .26-.095.473-.284.639a.822.822 0 0 1-.604.249h-4.119a.862.862 0 0 1-.639-.249.865.865 0 0 1-.249-.639v-1.243c-.308.45-.722.864-1.243 1.243-.521.379-1.136.674-1.846.888-.687.236-1.492.355-2.415.355Zm1.669-4.049c.686 0 1.302-.142 1.846-.426.569-.308 1.007-.769 1.314-1.385.332-.639.497-1.432.497-2.379v-.497l-3.018.533c-1.113.189-1.929.485-2.45.887-.497.379-.746.829-.746 1.35 0 .402.118.746.355 1.03.237.284.545.509.923.674.379.142.805.213 1.279.213Zm14.625 3.694a.862.862 0 0 1-.639-.249.865.865 0 0 1-.249-.639v-16.691a.82.82 0 0 1 .249-.603.806.806 0 0 1 .639-.284h4.084a.81.81 0 0 1 .639.284.819.819 0 0 1 .248.603v1.421a6.698 6.698 0 0 1 2.273-1.705c.9-.402 1.906-.603 3.019-.603h1.562c.237 0 .438.082.604.248a.812.812 0 0 1 .284.639v3.658c0 .237-.095.45-.284.639a.822.822 0 0 1-.604.249h-3.444c-.971 0-1.729.272-2.273.817-.521.52-.781 1.266-.781 2.237v9.091c0 .26-.095.473-.284.639a.866.866 0 0 1-.64.249h-4.403Zm22.837.355c-1.538 0-2.852-.166-3.941-.497-1.066-.356-1.942-.782-2.628-1.279-.663-.497-1.16-1.006-1.492-1.527-.331-.544-.509-1.006-.532-1.385a.717.717 0 0 1 .248-.639c.19-.189.391-.284.604-.284h4.048c.071 0 .13.012.178.035.047.024.118.071.213.142.308.166.615.379.923.64.308.236.663.449 1.065.639.403.189.888.284 1.456.284.663 0 1.22-.13 1.669-.391.45-.26.675-.651.675-1.172 0-.378-.106-.686-.319-.923-.214-.26-.651-.509-1.314-.746-.64-.236-1.61-.473-2.912-.71-1.231-.284-2.309-.651-3.232-1.101-.923-.473-1.633-1.077-2.131-1.811-.497-.757-.745-1.669-.745-2.734 0-.947.307-1.859.923-2.735.616-.875 1.515-1.586 2.699-2.13 1.184-.568 2.64-.852 4.368-.852 1.373 0 2.557.165 3.551.497 1.018.307 1.87.71 2.557 1.207.71.497 1.243 1.006 1.598 1.527.355.521.544.994.568 1.421a.813.813 0 0 1-.213.639.784.784 0 0 1-.568.248h-3.693c-.095 0-.19-.012-.285-.035a2.572 2.572 0 0 1-.248-.142 4.477 4.477 0 0 1-.852-.568 5.173 5.173 0 0 0-.995-.64c-.379-.189-.852-.284-1.42-.284-.639 0-1.137.142-1.492.426a1.345 1.345 0 0 0-.532 1.101c0 .308.094.592.284.853.213.26.627.497 1.243.71.639.213 1.621.45 2.947.71 1.634.26 2.936.687 3.906 1.278.971.569 1.658 1.243 2.06 2.025.402.757.604 1.562.604 2.414 0 1.137-.344 2.143-1.03 3.019-.663.876-1.657 1.562-2.983 2.059-1.326.474-2.936.711-4.83.711Zm-335.499 12.187c-5.681-3.551-12.782-9.764-19.528-16.332-7.278-7.279-14.024-15.09-17.93-21.303-1.598-2.486-5.326-2.486-6.923 0-7.634 11.894-25.741 30.001-37.636 37.635-2.485 1.598-2.485 5.326 0 6.923 11.895 7.634 30.002 25.741 37.636 37.636 1.597 2.485 5.325 2.485 6.923 0 3.906-6.214 10.652-14.025 17.93-21.303 6.746-6.569 13.847-12.782 19.528-16.333 2.663-1.775 2.663-5.325 0-6.923Zm-26.629 16.51c-4.438-3.906-8.699-7.279-12.427-9.587-2.485-1.597-2.485-5.325 0-6.923 3.728-2.308 7.989-5.681 12.427-9.587 4.793 4.794 9.942 9.409 14.735 13.137-4.793 3.551-9.942 8.166-14.735 12.96Z"/>
  <path fill="#081754" d="M558.861 152.455c7.633 9.764 19.173 21.303 28.936 28.937-9.763 7.633-21.303 19.172-28.936 28.936-7.634-9.764-19.173-21.303-28.937-28.936 9.764-7.634 21.303-19.173 28.937-28.937Zm0-14.024c-1.243 0-2.663.71-3.551 1.952-7.456 11.895-25.563 30.002-37.457 37.636-2.486 1.597-2.486 5.325 0 6.923 11.894 7.634 30.001 25.741 37.635 37.636.887 1.242 2.13 1.952 3.55 1.952 1.243 0 2.663-.71 3.551-1.952 7.633-11.895 25.741-30.002 37.635-37.636 2.485-1.598 2.485-5.326 0-6.923-12.072-7.634-30.357-25.741-37.813-37.636-.887-1.242-2.13-1.952-3.55-1.952Z"/>
</svg>
