<svg xmlns="http://www.w3.org/2000/svg" width="24" height="24" viewBox="0 0 24 24">
  <g clip-path="url(#a)">
    <path stroke="currentColor" stroke-linecap="round" stroke-linejoin="round" d="M15 16c0-1.5 1-5.5 3.5-5.5 2 0 2.5 1.5 2.5 2.5 0 1.2-.667 1.667-1 2-.167-.5-.8-1.5-2-1.5-1.5 0-3 1-3 2.5Zm0 0c0 .667 1 2 2 2m-2-2H9m0 0c0-1.5-1-5.5-3.5-5.5C3.5 10.5 3 12 3 13c0 1.2.667 1.667 1 2 .167-.5.8-1.5 2-1.5 1.5 0 3 1 3 2.5Zm0 0c0 .667-1 2-2 2m5-15s3 4.5 3 5.5-2.5 3.5-2.5 7.5c0 1.5 1 3 1.5 3.5L12 21l-2-1.5c.5-.5 1.5-2 1.5-3.5 0-4-2.5-6.5-2.5-7.5S12 3 12 3Z"/>
  </g>
  <defs>
    <clipPath id="a">
      <path d="M0 0h24v24H0z"/>
    </clipPath>
  </defs>
</svg>
