<svg xmlns="http://www.w3.org/2000/svg" width="24" height="24" viewBox="0 0 24 24">
  <g clip-path="url(#a)">
    <path stroke="currentColor" stroke-linecap="round" stroke-linejoin="round" d="M16.524 5.504a1.484 1.484 0 0 1-1.16-.67A3.997 3.997 0 0 0 12 3c-1.41 0-2.651.73-3.363 1.834a1.484 1.484 0 0 1-1.162.67A3.997 3.997 0 0 0 4.205 7.5a3.997 3.997 0 0 0-.093 3.83c.214.416.214.925 0 1.34a3.997 3.997 0 0 0 .094 3.83 3.997 3.997 0 0 0 3.27 1.996c.466.023.907.277 1.16.67A3.997 3.997 0 0 0 12 21c1.41 0 2.651-.73 3.363-1.834a1.484 1.484 0 0 1 1.162-.67 3.997 3.997 0 0 0 3.27-1.996 3.997 3.997 0 0 0 .093-3.83 1.484 1.484 0 0 1 0-1.34 3.997 3.997 0 0 0-.094-3.83 3.997 3.997 0 0 0-3.27-1.996Z"/>
    <path stroke="currentColor" stroke-linecap="round" stroke-linejoin="round" d="M15 12a3 3 0 1 1-6 0 3 3 0 0 1 6 0Z"/>
  </g>
  <defs>
    <clipPath id="a">
      <path d="M0 0h24v24H0z"/>
    </clipPath>
  </defs>
</svg>
