<svg xmlns="http://www.w3.org/2000/svg" width="24" height="24" viewBox="0 0 24 24">
  <g clip-path="url(#a)">
    <path stroke="currentColor" stroke-linecap="round" stroke-linejoin="round" d="M15 8c1.642.057 3.292.148 5-2.5 2.13 2.186 1.827 4.905 2 7.5-2.222-.762-4.26.714-5 3-2.593 0-3.889.952-5 4-1.111-3.048-2.407-4-5-4-.74-2.286-2.778-3.762-5-3 .173-2.595-.13-5.314 2-7.5C5.708 8.148 7.358 8.057 9 8m6 0V4l-3 2-3-2v4m6 0a3 3 0 0 1-6 0"/>
  </g>
  <defs>
    <clipPath id="a">
      <path d="M0 0h24v24H0z"/>
    </clipPath>
  </defs>
</svg>
