<svg xmlns="http://www.w3.org/2000/svg" width="24" height="24" viewBox="0 0 24 24">
  <g clip-path="url(#a)">
    <path stroke="currentColor" stroke-linecap="round" stroke-linejoin="round" d="M12 16.5c2.4 2 5.833 2 7 1.5 0-1.5-1.5-3.5-2.5-4 3-1 3.667-3.833 4-5.5-2.4-.8-4.667-.167-5.5.5.5-3-1.667-5-3-6-1.333 1-3.5 3-3 6-.833-.667-3.1-1.3-5.5-.5.333 1.667 1 4.5 4 5.5-1 .5-2.5 2.5-2.5 4 1.167.5 4.6.5 7-1.5Zm0 0c.8 1.6.333 3.667 0 4.5m0-4.5V13m0 0 1.5-1M12 13l-1.5-1"/>
  </g>
  <defs>
    <clipPath id="a">
      <path d="M0 0h24v24H0z"/>
    </clipPath>
  </defs>
</svg>
