<svg xmlns="http://www.w3.org/2000/svg" width="24" height="24" viewBox="0 0 24 24">
  <g clip-path="url(#a)">
    <path stroke="currentColor" stroke-linecap="round" stroke-linejoin="round" d="M11.087 5.05c.352-.791 1.474-.791 1.827 0l1.614 3.62a1 1 0 0 0 .808.588l3.944.416c.86.091 1.207 1.158.564 1.738l-2.946 2.654a1 1 0 0 0-.308.95l.823 3.88c.179.846-.729 1.506-1.478 1.073L12.5 17.99a1 1 0 0 0-1 0l-3.434 1.98c-.75.433-1.658-.227-1.478-1.073l.822-3.88a1 1 0 0 0-.308-.95l-2.946-2.654c-.643-.58-.296-1.647.565-1.738l3.943-.416a1 1 0 0 0 .808-.587l1.615-3.622Z"/>
  </g>
  <defs>
    <clipPath id="a">
      <path d="M0 0h24v24H0z"/>
    </clipPath>
  </defs>
</svg>
